<?xml version="1.0" standalone="no"?><!DOCTYPE svg PUBLIC "-//W3C//DTD SVG 1.1//EN" "http://www.w3.org/Graphics/SVG/1.1/DTD/svg11.dtd"><svg width="100%" height="100%" viewBox="0 0 15625 2850" version="1.1" xmlns="http://www.w3.org/2000/svg" xmlns:xlink="http://www.w3.org/1999/xlink" xml:space="preserve" style="fill-rule:evenodd;clip-rule:evenodd;stroke-linejoin:round;stroke-miterlimit:1.41421;"><g id="CoderFaire Hat"><path d="M2308.8,851.283l-142.382,0l0,179.279l142.382,0l-4.791,-142.304c-70.476,2.367 -139.311,12.161 -205.499,28.889l34.886,138.05l94.017,-106.927c-70.845,-62.302 -120.997,-102.381 -122.281,-103.419c-4.635,-3.708 -6.678,-5.171 -11.67,-8.398c-26.143,-16.874 -52.151,-32.419 -77.802,-46.925l-70.086,123.934l12.82,141.802c103.174,-9.358 184.182,-18.013 250.147,-28.812c33.066,-5.449 62.436,-11.401 90.142,-19.118c27.706,-7.873 53.938,-17.019 81.655,-32.943l-71.538,-123.108l-142.382,0l142.382,0l-71.548,-123.097l11.848,20.37l-10.922,-20.894l-0.926,0.524l11.848,20.37l-10.922,-20.894l3.764,7.191l-3.618,-7.259l-0.146,0.068l3.764,7.191l-3.618,-7.259l-0.291,0.134c-1.731,0.86 -10.999,4.367 -26.075,7.974c-22.703,5.584 -58.26,11.781 -104.905,17.722c-46.724,6.008 -104.738,11.949 -174.31,18.236c-62.101,5.618 -113.225,50.856 -126.358,111.818c-13.132,60.951 14.819,123.231 69.103,153.93c21.553,12.183 42.749,24.88 63.553,38.303l77.211,-119.623l-88.881,111.225l36.54,-45.73l-36.573,45.708l0.033,0.022l36.54,-45.73l-36.573,45.708c0.212,0.168 46.78,37.444 112.041,94.833c35.389,31.111 83.218,42.658 128.915,31.111c46.322,-11.714 94.91,-18.683 145.286,-20.38c76.864,-2.58 137.603,-65.395 137.603,-142.293l0,-179.279c0,-50.867 -27.282,-98.037 -71.37,-123.409c-44.089,-25.373 -98.574,-25.249 -142.561,0.312l71.548,123.097ZM2735.74,913.943l-12.787,141.812c6.656,0.592 13.334,1.218 20.079,1.843l13.256,-141.768l-98.808,-102.505c-28.611,27.561 -84,83.945 -156.666,172.099l109.864,90.566l47.025,-134.398c-89.897,-31.458 -185.991,-49.772 -285.458,-53.29l-5.047,142.293l142.394,0l0,-179.312l-142.394,0l-71.515,123.108c27.94,16.047 54.373,25.227 82.347,33.144c20.995,5.818 42.905,10.609 66.702,14.975c35.668,6.533 75.591,12.106 121.522,17.466c45.92,5.36 97.792,10.475 156.733,15.779l-0.034,0l12.787,-141.812l12.753,-141.814c-102.091,-9.145 -179.905,-17.666 -233.508,-26.455c-26.723,-4.333 -47.338,-8.766 -60.682,-12.507c-6.667,-1.843 -11.48,-3.495 -14.16,-4.545c-1.352,-0.525 -2.156,-0.894 -2.39,-1.005l-0.078,-0.034l-8.141,16.416l9.201,-15.835l-1.06,-0.581l-8.141,16.416l9.201,-15.835c-43.976,-25.551 -98.461,-25.663 -142.55,-0.29c-44.088,25.372 -71.358,72.542 -71.358,123.409l0,179.312c0,76.474 60.917,139.58 137.346,142.294c71.079,2.524 138.719,15.533 201.479,37.488c56.406,19.744 118.876,2.29 156.889,-43.82c65.396,-79.332 113.337,-127.765 134.554,-148.212c40.191,-38.739 54.016,-96.898 35.568,-149.574c-18.448,-52.687 -65.552,-89.506 -121.131,-94.699c-6.902,-0.647 -13.881,-1.295 -21.006,-1.931l-0.033,-0.012l-12.753,141.814ZM4796.64,1996.71l142.294,-5.081l-0.012,-0.301l-142.293,5.081l142.338,-3.417c-0.67,-29.56 -8.978,-58.227 -22.904,-82.605c-13.926,-24.456 -33.301,-44.948 -56.585,-60.191l-77.925,119.166l115.76,82.905c21.084,-29.47 32.832,-64.982 32.854,-102.269c0.012,-19.342 -3.238,-39.075 -9.816,-57.891l-0.044,-0.134c-18.058,-51.392 -48.076,-97.2 -87.775,-134.309l-0.034,-0.034c-16.628,-15.533 -36.092,-27.549 -56.55,-35.411c-20.47,-7.895 -41.911,-11.759 -63.196,-11.759c-12.072,0 -24.132,1.24 -36.026,3.73l29.169,139.367l140.485,-23.194c-4.501,-27.159 -15.233,-52.866 -31.682,-75.312c-16.383,-22.424 -38.851,-41.565 -65.251,-54.262l-0.055,-0.033c-22.223,-10.732 -45.931,-19.186 -70.443,-24.803c-24.501,-5.628 -49.751,-8.42 -74.866,-8.409c-3.595,0 -7.214,0.056 -10.843,0.179c-78.171,2.434 -139.479,66.97 -137.915,145.163l0.67,33.211l142.348,-2.847l-142.382,0l0,0.033l142.382,0l-4.589,-142.304c-10.207,0.324 -19.733,1.184 -28.51,2.301l18.079,141.232l138.441,-33.279l-112.51,27.047l113.336,-23.339c-0.067,-0.335 -0.312,-1.586 -0.826,-3.708l-112.51,27.047l113.336,-23.339l0,-0.011c-0.256,-0.849 -1.373,-8.264 -5.673,-20.805c-12.429,-35.769 -36.204,-65.909 -65.294,-86.088c-29.114,-20.28 -63.922,-31.559 -100.484,-31.592c-19.297,-0.012 -39.029,3.227 -57.879,9.827l0.212,-0.078c-7.717,2.68 -14.406,5.36 -20.235,7.828l55.401,131.159l125.597,-67.059c-50.085,-93.615 -145.364,-243.926 -304.81,-384.556l-94.117,106.837l105.832,-95.245c-7.36,-8.152 -65.463,-70.934 -180.34,-141.713c-114.755,-70.755 -286.664,-149.194 -517.826,-187.174l-11.167,-1.385c-3.328,-0.279 -34.898,-2.836 -86.133,-2.836c-55.401,0.011 -133.773,2.959 -224.596,15.377c-90.823,12.463 -194.187,34.295 -299.562,73.313l49.482,133.505l134.477,46.813c14.45,-41.554 31.436,-85.575 49.839,-125.866c18.292,-40.236 38.337,-76.82 56.361,-102.259l0.983,-1.418l-2.848,-1.954l2.848,1.965l0,-0.011l-2.848,-1.954l2.848,1.965c1.139,-1.697 40.995,-59.332 93.079,-123.51c25.975,-32.039 55.032,-65.708 82.727,-94.106c13.814,-14.194 27.259,-27.047 39.365,-37.567c12.049,-10.508 22.848,-18.66 30.252,-23.406c4.98,-3.228 12.172,-8.666 16.628,-12.586l-43.028,-48.968l42.749,49.214l0.279,-0.246l-43.028,-48.968l42.749,49.214c0.145,-0.156 24.333,-21.028 60.291,-45.16l-79.421,-118.172l-122.058,73.313c15.723,26.176 35.166,50.643 58.349,72.341l-0.078,-0.067c16.605,15.578 36.047,27.65 56.528,35.579c20.515,7.951 42.045,11.871 63.497,11.882c12.072,-0.011 24.122,-1.251 35.981,-3.73l-29.169,-139.356l-140.506,23.027c4.467,27.158 15.176,52.877 31.57,75.323c16.349,22.424 38.739,41.564 65.06,54.306l0.056,0.023c45.283,22.066 95.782,33.602 146.045,33.501c3.328,0 7.025,-0.044 11.067,-0.179l-1.05,0.023c29.415,-0.748 57.791,-9.023 82.024,-22.837c24.289,-13.814 44.758,-33.044 60.068,-56.317l-119.02,-78.159l-83.174,115.558c29.437,21.174 65.072,33.089 102.616,33.112c19.23,0.011 38.884,-3.217 57.601,-9.727l0.022,0c51.392,-17.912 97.267,-47.774 134.499,-87.384c15.645,-16.662 27.739,-36.171 35.668,-56.674c7.951,-20.536 11.859,-42.045 11.859,-63.463c0,-11.961 -1.217,-23.854 -3.629,-35.546l-139.445,28.778l22.803,140.54c27.192,-4.422 52.977,-15.109 75.48,-31.525c22.479,-16.36 41.654,-38.795 54.384,-65.116l-0.045,0.1c22.178,-45.384 33.759,-96.005 33.659,-146.369c0,-3.574 -0.056,-7.136 -0.168,-10.687l-0.022,-0.614l-0.011,-0.313l-142.294,5.093l142.338,-3.418c-0.67,-29.515 -8.945,-58.159 -22.87,-82.559c-13.926,-24.468 -33.323,-45.004 -56.652,-60.27l-77.88,119.199l115.782,82.873c21.061,-29.46 32.798,-64.938 32.832,-102.225c0.011,-19.387 -3.261,-39.175 -9.872,-58.026l0,-0.011c-18.058,-51.391 -48.064,-97.199 -87.764,-134.308l-0.033,-0.034c-16.662,-15.556 -36.138,-27.561 -56.585,-35.422c-20.458,-7.884 -41.877,-11.748 -63.184,-11.748c-12.061,0 -24.121,1.239 -36.026,3.73l29.18,139.367l140.507,-23.049c-4.49,-27.271 -15.266,-53.045 -31.738,-75.513c-16.415,-22.435 -38.884,-41.543 -65.272,-54.228l0.056,0.022c-45.15,-21.899 -95.458,-33.334 -145.521,-33.234c-3.317,0 -7.013,0.045 -11.022,0.179c-77.724,2.602 -139.166,67.45 -137.58,145.208l0.681,33.211l142.349,-2.892l-142.383,0l0,0.022l142.383,0l-4.735,-142.304c-10.017,0.335 -19.509,1.172 -28.332,2.3l18.036,141.232l138.742,-32.016l-108.691,25.081l109.361,-21.999c-0.034,-0.167 -0.246,-1.206 -0.67,-3.082l-108.691,25.081l109.361,-21.999l-1.363,0.268l1.363,-0.268l-1.363,0.268l1.363,-0.268c-0.168,-0.369 -1.251,-8.051 -5.662,-21.05l-0.168,-0.48c-12.451,-35.736 -36.204,-65.842 -65.283,-86.01c-29.102,-20.269 -63.911,-31.559 -100.483,-31.593c-19.309,-0.011 -39.052,3.239 -57.914,9.827l0.011,0c-51.402,18.013 -97.233,47.997 -134.353,87.63l-0.056,0.067c-15.533,16.606 -27.549,36.025 -35.433,56.473c-7.918,20.469 -11.827,41.955 -11.827,63.352c0,12.105 1.251,24.21 3.764,36.148l139.334,-29.303l-23.094,-140.495c-27.159,4.467 -52.888,15.198 -75.368,31.648c-22.458,16.382 -41.609,38.873 -54.318,65.273l0.056,-0.112c-21.999,45.238 -33.468,95.647 -33.368,145.788c0,3.071 0.034,6.645 0.157,10.699l0.134,3.26l0.044,0.804l-0.055,-1.105c0.994,20.983 5.673,37.823 9.503,48.968l134.644,-46.299l-22.212,-140.629c-42.201,6.666 -92.934,15.421 -144.94,26.242c-52.106,10.877 -105.162,23.597 -154.32,39.521l44.021,135.415l-40.582,-136.486c-4.277,1.317 -85.228,25.438 -191.619,73.703l58.863,129.641l7.192,-142.204c-14.92,-0.748 -29.984,-1.072 -45.261,-1.072c-49.962,0.022 -102.46,3.373 -158.564,7.84c-56.06,4.489 -115.626,10.184 -178.52,15.433c-105.184,8.811 -187.699,17.331 -254.825,28.264c-33.647,5.516 -63.52,11.603 -91.628,19.52c-28.141,8.085 -54.708,17.511 -82.615,33.792l72.375,122.606l142.394,0l0,-5.059c0,-37.489 -15.188,-74.162 -41.699,-100.673c-26.522,-26.511 -63.184,-41.698 -100.695,-41.698l-0.089,0l0,142.371l142.315,4.121c0.034,-1.351 0.168,-4.478 0.168,-9.213c-0.012,-17.689 -1.474,-34.865 -4.501,-51.973c-2.3,-12.842 -5.472,-25.64 -10.062,-38.895c-3.472,-9.939 -7.727,-20.146 -13.501,-30.956c-4.355,-8.096 -9.559,-16.55 -16.326,-25.417c-10.162,-13.177 -23.842,-27.806 -44.892,-40.961c-10.498,-6.499 -22.894,-12.463 -36.931,-16.751c-14.015,-4.299 -29.637,-6.812 -45.395,-6.79c-12.429,-0.011 -24.824,1.53 -36.371,4.333c-21.765,5.238 -40.057,14.663 -54.128,24.646c-12.407,8.778 -21.91,18.002 -29.593,26.813c-13.39,15.511 -21.586,29.817 -27.985,43.184c-9.403,20.045 -14.63,38.404 -18.27,56.864c-3.54,18.414 -5.215,36.851 -5.226,55.903c0,4.433 0.111,7.862 0.19,10.129l142.293,-5.037l0,-142.371l-0.101,0c-37.499,0 -74.173,15.187 -100.684,41.698c-26.511,26.511 -41.698,63.184 -41.698,100.673l0,5.059l142.382,0l72.364,-122.606c-27.896,-16.293 -54.485,-25.718 -82.604,-33.792c-21.095,-5.952 -43.139,-10.832 -67.071,-15.254c-35.858,-6.611 -75.97,-12.184 -122.091,-17.455c-46.099,-5.248 -98.16,-10.139 -157.28,-15.075c-62.838,-5.249 -122.371,-10.933 -178.397,-15.422c-56.082,-4.467 -108.557,-7.817 -158.497,-7.84c-49.292,0.145 -96.094,2.915 -144.124,14.574c-23.988,5.929 -48.444,14.305 -72.867,27.169c-24.333,12.798 -48.678,30.498 -69.371,53.525l105.799,95.279l26.5,-139.881c-72.621,-13.758 -118.295,-17.7 -122.393,-18.046l-11.759,141.891l17.019,-141.355c-63.051,-7.594 -124.683,-10.911 -184.282,-10.911c-141.344,0.023 -271.231,18.583 -382.702,43.497c-111.483,24.937 -204.618,56.283 -272.638,82.66l51.515,132.734l122.482,-72.61c-16.069,-27.091 -36.003,-52.218 -59.767,-74.396l0.011,0.011c-16.717,-15.623 -36.249,-27.639 -56.707,-35.478c-20.481,-7.884 -41.866,-11.715 -63.106,-11.715c-12.005,0 -23.987,1.218 -35.814,3.675l28.979,139.4l140.485,-23.183c-4.501,-27.192 -15.255,-52.921 -31.727,-75.379c-16.404,-22.424 -38.895,-41.542 -65.295,-54.228l0.056,0.022c-22.234,-10.732 -45.942,-19.196 -70.443,-24.813c-24.501,-5.64 -49.75,-8.42 -74.854,-8.409c-3.629,0 -7.259,0.055 -10.899,0.167c-78.16,2.457 -139.468,67.004 -137.893,145.186l0.67,33.222l142.349,-2.881l-142.383,0l0,0.022l142.383,0l-4.735,-142.293c-10.006,0.335 -19.487,1.162 -28.365,2.301l18.08,141.232l138.585,-32.653l-108.791,25.629l109.484,-22.513c-0.045,-0.201 -0.246,-1.24 -0.693,-3.116l-108.791,25.629l109.484,-22.513l-13.87,2.847l13.87,-2.836l0,-0.011l-13.87,2.847l13.87,-2.836c-0.146,-0.279 -1.229,-7.739 -5.55,-20.47l-0.123,-0.357c-12.418,-35.746 -36.149,-65.876 -65.239,-86.077c-29.102,-20.303 -63.933,-31.615 -100.539,-31.637c-19.331,-0.011 -39.097,3.239 -57.958,9.849l0.056,-0.022c-51.392,18.002 -97.234,47.975 -134.398,87.674l0.044,-0.045c-15.567,16.617 -27.616,36.093 -35.512,56.563c-7.928,20.492 -11.815,41.977 -11.815,63.34c0,12.05 1.24,24.099 3.719,35.97l139.368,-29.146l-23.106,-140.485c-27.158,4.479 -52.899,15.21 -75.356,31.649c-22.435,16.382 -41.565,38.828 -54.262,65.16l-0.022,0.034c-21.955,45.183 -33.446,95.569 -33.346,145.755c0,3.316 0.045,7.013 0.179,11.067l0.034,0.793l0.078,1.976c1.34,28.745 9.883,56.473 23.719,80.092c13.836,23.686 32.809,43.552 55.49,58.416l78.003,-119.11l-115.648,-83.062c-21.139,29.47 -32.977,65.026 -33.01,102.493c-0.022,19.241 3.205,38.929 9.76,57.723l0.011,0.012c17.946,51.391 47.874,97.266 87.552,134.476l-0.056,-0.056c16.639,15.612 36.103,27.672 56.584,35.59c20.503,7.94 42.011,11.859 63.452,11.859c12.039,0 24.066,-1.239 35.914,-3.707l-29.113,-139.379l-140.517,22.971c4.444,27.159 15.154,52.911 31.581,75.39c16.36,22.458 38.795,41.61 65.15,54.34l-0.045,-0.011c45.272,22.067 95.793,33.603 146.068,33.502c3.316,0 7.001,-0.045 11.066,-0.19l-1.072,0.034c29.392,-0.748 57.791,-9.023 82.035,-22.838c24.3,-13.824 44.747,-33.055 60.024,-56.26l-118.976,-78.216l-83.185,115.559c29.426,21.173 65.072,33.089 102.616,33.111c19.241,0.011 38.873,-3.216 57.578,-9.716l0.034,-0.01c51.414,-17.913 97.3,-47.785 134.521,-87.396l-0.012,0.012c15.657,-16.662 27.751,-36.171 35.68,-56.674c7.951,-20.537 11.859,-42.056 11.859,-63.464c0,-11.937 -1.217,-23.853 -3.64,-35.59l-139.446,28.823l22.804,140.54c27.192,-4.422 52.966,-15.109 75.468,-31.514c22.469,-16.338 41.643,-38.75 54.385,-65.072l0.022,-0.033c16.539,-33.982 27.293,-70.879 31.492,-108.468l-141.489,-15.935l-4.356,142.315c142.026,4.277 271.622,31.883 364.276,58.472c46.333,13.267 83.442,26.198 108.345,35.567c12.451,4.691 21.854,8.476 27.84,10.956c2.993,1.239 5.137,2.155 6.376,2.691l1.184,0.514l0.078,0.033l35.01,-78.606l-35.289,78.483l0.279,0.123l35.01,-78.606l-35.289,78.483l58.383,-129.864l-71.56,123.097c188.537,109.696 295.72,215.818 356.403,292.749l111.851,-88.087l30.933,-138.987c-150.668,-33.469 -275.574,-38.393 -339.663,-38.438c-27.17,0 -43.396,0.916 -45.975,1.072l-3.004,0.223c-127.486,10.475 -239.527,38.438 -335.23,74.743c-143.667,54.473 -250.381,127.34 -321.997,187.576c-71.66,60.326 -108.568,108.133 -113.705,114.911l0.536,-0.715c-55.881,73.068 -97.859,145.42 -129.082,213.306c-31.246,67.908 -51.783,131.327 -65.172,186.828l138.407,33.424l14.997,-141.59c-11.469,-1.217 -23.484,-1.92 -35.925,-1.92c-3.573,0 -7.225,0.055 -10.921,0.178c-77.724,2.591 -139.189,67.45 -137.603,145.197l0.67,33.222l142.36,-2.903l-142.383,0l0,0.022l142.383,0l-4.891,-142.293c-9.805,0.335 -19.13,1.15 -27.907,2.256l17.778,141.266l138.429,-33.279l-111.27,26.746l112.063,-23.261c-0.067,-0.28 -0.301,-1.463 -0.793,-3.485l-111.27,26.746l112.063,-23.261l-39.063,8.107l39.074,-8.052l-0.011,-0.055l-39.063,8.107l39.074,-8.052c-0.111,-0.055 -1.217,-7.772 -5.717,-20.815l0.078,0.212c-12.418,-35.769 -36.171,-65.909 -65.273,-86.1c-29.113,-20.302 -63.932,-31.592 -100.516,-31.625c-19.286,-0.012 -39.019,3.227 -57.847,9.804l-0.056,0.023c-51.402,18.012 -97.222,47.985 -134.375,87.663l-0.067,0.067c-15.511,16.605 -27.527,36.036 -35.411,56.495c-7.918,20.469 -11.815,41.955 -11.815,63.329c0,12.05 1.239,24.088 3.718,35.959l139.368,-29.135l-22.904,-140.529c-27.271,4.455 -53.056,15.21 -75.547,31.67c-22.457,16.394 -41.587,38.851 -54.295,65.228l0.011,-0.033c-21.966,45.193 -33.446,95.591 -33.345,145.766c0,3.316 0.033,6.89 0.156,10.709l0.045,1.273l0.033,0.804l0.045,0.961c1.329,28.789 9.883,56.562 23.719,80.181c13.836,23.685 32.776,43.507 55.345,58.337l78.148,-119.032l-115.603,-83.129c-21.195,29.516 -33.022,65.083 -33.055,102.549c-0.011,19.264 3.216,38.974 9.783,57.78l-0.012,-0.045c17.957,51.414 47.886,97.278 87.518,134.454l0.045,0.056c16.594,15.533 36.003,27.583 56.473,35.511c20.492,7.94 42.011,11.86 63.485,11.86c12.095,0 24.178,-1.251 36.048,-3.73l-29.236,-139.356l-140.528,22.882c4.444,27.203 15.154,52.988 31.581,75.468c16.36,22.457 38.761,41.587 65.071,54.318l0.067,0.033c45.272,22.056 95.771,33.591 146.046,33.491c3.562,0 7.124,-0.056 10.687,-0.168l-0.626,0.011c29.393,-0.759 57.757,-9.045 81.968,-22.848c24.278,-13.814 44.725,-33.01 60.013,-56.227l-118.965,-78.238l-83.084,115.637c29.414,21.106 64.948,32.988 102.515,33.033c19.264,0.011 38.963,-3.227 57.757,-9.782l-0.178,0.066c51.469,-17.923 97.333,-47.807 134.531,-87.383l0.012,0c15.667,-16.684 27.761,-36.205 35.69,-56.719c7.951,-20.548 11.849,-42.056 11.849,-63.441c0,-11.915 -1.206,-23.809 -3.63,-35.523l-139.445,28.756l22.747,140.562c27.159,-4.411 52.955,-15.076 75.491,-31.503c22.491,-16.36 41.687,-38.806 54.44,-65.15l-0.011,0.023c22.111,-45.306 33.714,-95.905 33.614,-146.303c0,-3.316 -0.045,-7.001 -0.179,-11.055l-0.011,-0.235l-0.011,-0.312l-142.293,5.081l142.337,-3.406c-0.659,-29.549 -8.967,-58.226 -22.904,-82.638c-13.948,-24.467 -33.345,-44.971 -56.64,-60.203l-77.858,119.211l115.804,82.85c21.039,-29.448 32.776,-64.893 32.81,-102.214c0.011,-19.375 -3.25,-39.186 -9.883,-58.07l0.011,0.034c-12.161,-34.697 -29.794,-66.446 -51.615,-94.576l-112.499,87.261l98.674,102.649c112.979,-108.501 211.675,-166.66 290.181,-198.587c78.561,-31.804 137.547,-37.7 173.014,-37.779c15.59,0 26.567,1.206 32.374,2.044c2.904,0.424 4.512,0.759 4.735,0.815l0.022,0l15.299,-69.215l-18.872,68.299c2.289,0.637 3.462,0.894 3.573,0.916l15.299,-69.215l-18.872,68.299l4.958,1.273c70.767,16.896 123.197,41.241 163.779,68.221c30.431,20.302 54.318,42.246 73.905,65.016c29.28,34.105 48.946,70.477 62.28,105.006c13.322,34.428 20.034,66.836 23.161,90.298l141.109,-18.94l-33.446,-138.407c-2.691,0.659 -4.489,1.117 -5.338,1.341c-34.105,8.933 -63.977,30.475 -83.229,60.012c-11.737,18.013 -21.721,36.484 -29.783,55.334l130.913,55.993l-30.029,-139.178c-6.465,1.396 -10.296,2.29 -11.245,2.524c-43.016,10.252 -78.461,39.51 -96.697,79.801c-22.48,49.427 -33.212,99.367 -33.111,145.219c-0.022,31.313 4.869,60.37 12.518,85.542c11.491,37.879 28.711,66.791 43.865,87.082c15.244,20.346 28.566,32.452 35.01,37.946c25.561,21.653 57.567,33.513 91.069,33.736l796.493,5.316l791.624,0c42.224,0 81.89,-18.482 109.037,-50.822c6.12,-7.36 22.637,-28.186 38.762,-63.017c8.018,-17.41 15.88,-38.349 21.787,-62.693c5.897,-24.311 9.783,-52.017 9.783,-82.258c0.033,-36.483 -5.774,-76.552 -19.331,-117.48c-15.221,-46.098 -52.787,-81.197 -99.813,-93.269c-0.536,-0.133 -2.791,-0.714 -6.432,-1.596l-33.58,138.373l132.6,-51.883c-7.035,-17.991 -15.824,-35.635 -26.209,-52.866l-121.958,73.47l138.329,33.725c12.429,-51.28 35.456,-129.317 70.454,-203.836c17.432,-37.265 37.79,-73.57 60.314,-105.229c22.514,-31.727 47.104,-58.606 72.331,-78.607c6.577,-5.226 10.955,-9.313 16.617,-15.522l-58.517,-53.357l56.685,55.311c0.168,-0.179 0.782,-0.804 1.832,-1.954l-58.517,-53.357l56.685,55.311l-6.231,-6.075l6.175,6.131l0.056,-0.056l-6.231,-6.075l6.175,6.131c0.268,-0.302 24.166,-24.132 71.381,-47.271c23.642,-11.614 53.168,-23.161 89.16,-31.894c35.992,-8.721 78.483,-14.662 128.557,-14.673c31.927,0 66.948,2.423 105.341,8.241l20.804,-137.268l-20.916,137.257l0.123,0.011l20.793,-137.268l-20.916,137.257l8.041,-52.765l-8.197,52.731l0.156,0.034l8.041,-52.765l-8.197,52.731c0.011,0.012 4.143,0.648 11.904,2.089c27.181,5.014 98.428,19.81 187.219,49.694c88.802,29.794 194.969,74.888 292.08,138.105l77.601,-119.378l-141.891,11.827l0.022,0.256l141.892,-11.815l-23.195,-140.484c-27.17,4.49 -52.888,15.244 -75.312,31.682c-22.402,16.371 -41.475,38.761 -54.173,65.016l-0.066,0.134c-21.955,45.193 -33.446,95.58 -33.346,145.766c0,3.573 0.056,7.136 0.168,10.687l0.044,1.373l0.034,0.804l0.045,0.894c1.328,28.811 9.894,56.562 23.73,80.17c13.836,23.674 32.765,43.507 55.401,58.36l78.07,-119.066l-115.604,-83.117c-21.184,29.503 -33.01,65.082 -33.043,102.526c-0.012,19.297 3.227,39.041 9.827,57.891l-0.067,-0.201c17.957,51.481 47.907,97.356 87.54,134.532l-0.078,-0.067c16.594,15.578 36.059,27.661 56.551,35.601c20.514,7.963 42.056,11.882 63.497,11.882c12.105,0 24.177,-1.25 36.025,-3.73l-29.191,-139.356l-140.506,23.016c4.456,27.103 15.131,52.832 31.547,75.323c16.36,22.446 38.818,41.631 65.195,54.362l-0.034,-0.011c45.227,22.033 95.704,33.591 146.012,33.491c3.071,0 6.901,-0.023 11.458,-0.19l-5.238,-142.282l3.73,142.326c29.448,-0.737 57.858,-9.023 82.102,-22.848c24.3,-13.825 44.758,-33.044 60.046,-56.305l-119.009,-78.16l-83.074,115.626c29.392,21.106 64.961,32.999 102.527,33.044c19.219,0.011 38.862,-3.216 57.578,-9.727c51.437,-17.912 97.323,-47.796 134.544,-87.383l0.1,-0.112c15.601,-16.639 27.661,-36.126 35.568,-56.618c7.94,-20.503 11.848,-42.011 11.848,-63.408c0,-11.96 -1.217,-23.864 -3.629,-35.556l-139.446,28.789l22.882,140.529c27.159,-4.434 52.922,-15.121 75.401,-31.526c22.458,-16.337 41.598,-38.728 54.34,-65.004l0.023,-0.045c22.155,-45.35 33.736,-95.938 33.646,-146.336c0,-3.573 -0.055,-7.135 -0.167,-10.687l-0.022,-0.614l-142.294,5.081l-142.315,4.467l0.033,1.753c-0.1,8.454 -1.518,14.473 -4.992,21.844l0.023,-0.045l98.171,47.762l-64.368,-88.154c-13.97,10.14 -25.975,24.233 -33.803,40.392l98.171,47.762l-64.368,-88.154l64.279,88.031l-17.522,-107.596c-16.84,2.758 -32.764,9.358 -46.757,19.565l64.279,88.031l-17.522,-107.596c-38.069,6.198 -72.52,28.019 -94.396,59.801c-21.877,31.77 -29.962,71.738 -22.167,109.517l106.658,-22.011l-108.903,0c0,7.415 0.76,14.774 2.245,22.011l106.658,-22.011l-108.903,0l109.126,0l-101.767,-39.398c-4.947,12.787 -7.359,26.143 -7.359,39.398l109.126,0l-101.767,-39.398l101.779,39.398l-79.679,-74.586c-9.604,10.229 -17.175,22.424 -22.1,35.188l101.779,39.398l-79.679,-74.586l0.101,-0.111c-5.428,5.862 -13.044,10.765 -20.235,13.199l35.791,103.13l0.011,-109.149c-12.005,-0.022 -24.3,2.021 -35.802,6.019l35.791,103.13l0.011,-109.149l0,109.026l63.631,-88.568c-18.18,-13.043 -40.158,-20.424 -63.631,-20.458l0,109.026l63.631,-88.568c-31.335,-22.502 -71.102,-31.391 -109.037,-24.366c-37.935,7.035 -71.872,29.593 -93.057,61.844l91.159,59.856l-53.883,-94.81c-15.12,8.61 -27.761,20.492 -37.276,34.954l91.159,59.856l-53.883,-94.81l54.005,95.022l-2.87,-109.26c-18.214,0.447 -36.081,5.639 -51.135,14.238l54.005,95.022l-2.87,-109.26l-1.507,0.045l0.536,14.517l-0.369,-14.517l-0.167,0l0.536,14.517l-0.369,-14.517l-1.15,0c-8.398,-0.101 -14.384,-1.486 -21.81,-4.981l-0.033,-0.011l-47.64,98.339l88.211,-64.469c-10.152,-13.981 -24.301,-26.031 -40.571,-33.87l-47.64,98.339l88.211,-64.469l-87.965,64.301l107.53,-17.622c-2.759,-16.795 -9.348,-32.675 -19.565,-46.679l-87.965,64.301l107.53,-17.622c-6.321,-38.605 -27.74,-72.296 -59.991,-94.408c-32.262,-22.122 -71.415,-29.95 -109.696,-21.932l22.346,106.714l0,-109.026c-7.527,0 -15.009,0.782 -22.346,2.312l22.346,106.714l0,-109.026l0,109.272l39.532,-101.868c-12.82,-4.969 -26.221,-7.404 -39.532,-7.404l0,109.272l39.532,-101.868l-39.51,101.801l74.698,-79.667c-10.207,-9.593 -22.39,-17.187 -35.188,-22.134l-39.51,101.801l74.698,-79.667l-0.078,-0.067c-5.863,-5.428 -10.766,-13.033 -13.178,-20.157l-0.066,-0.201l-103.097,36.014l109.194,0c0.011,-12.038 -2.033,-24.412 -6.097,-36.014l-103.097,36.014l109.194,0l-109.115,0l88.612,63.698c13.132,-18.292 20.469,-40.302 20.503,-63.698l-109.115,0l88.612,63.698c22.513,-31.324 31.424,-71.169 24.378,-109.104c-7.047,-37.924 -29.66,-71.928 -61.923,-93.079l-59.789,91.192l94.173,-54.977c-8.621,-14.729 -20.324,-26.98 -34.384,-36.215l-59.789,91.192l94.173,-54.977l-94.352,55.088l109.138,-5.17c-0.804,-17.778 -6.176,-35.244 -14.786,-49.918l-94.352,55.088l109.138,-5.17l0.044,0.893l-0.033,-0.804l0.045,1.374l-0.023,-1.742c0.101,-8.443 1.497,-14.428 4.947,-21.787l-0.067,0.133l-98.171,-47.606l64.513,87.976c13.926,-10.162 25.875,-24.233 33.658,-40.37l-98.171,-47.606l64.513,87.976l-64.457,-87.897l17.745,107.54c16.862,-2.791 32.764,-9.436 46.712,-19.643l-64.457,-87.897l17.745,107.54c73.335,-12.105 124.872,-78.238 118.708,-152.299l-0.023,-0.268c-3.674,-44.066 -27.214,-83.441 -64.29,-107.551c-144.482,-93.75 -292.805,-150.491 -406.22,-185.187c-113.415,-34.552 -192.155,-46.657 -197.247,-47.45c-52.185,-7.906 -101.589,-11.457 -148.011,-11.457c-78.908,-0.023 -149.194,10.296 -209.911,26.287c-91.147,23.965 -160.473,60.516 -207.934,92.398c-47.539,31.938 -73.492,59.153 -79.79,66.043l105.207,95.927l-88.59,-111.46c-50.912,40.514 -92.465,87.674 -127.251,136.564c-52.095,73.447 -89.383,151.16 -117.379,222.418c-27.885,71.281 -46.244,136.252 -57.936,184.159c-8.889,36.428 -2.981,75.078 16.36,107.195c2.703,4.489 4.177,7.717 4.947,9.682c16.997,43.452 53.681,75.491 99.02,86.49c1.139,0.291 1.977,0.492 2.468,0.603l0.458,0.123l0.011,0l21.933,-86.021l-22.056,85.988l0.123,0.033l21.933,-86.021l-22.056,85.988l35.378,-137.916l-135.19,44.647c3.986,12.217 4.913,20.983 4.958,28.186c-0.011,5.941 -0.737,10.866 -1.776,15.176c-1.53,6.399 -3.942,11.436 -5.226,13.68l-0.648,1.094l0.302,0.19l-0.29,-0.201l-0.012,0.011l0.302,0.19l-0.29,-0.201l55.791,38.405l-51.805,-43.486c-2.602,3.105 -3.719,4.691 -3.986,5.081l55.791,38.405l-51.805,-43.486l109.048,91.561l0,-142.394l-790.664,0l0.95,0.011l-796.494,-5.327l-0.96,142.383l92.029,-108.646l-26.366,31.123l35.892,-21.553c-0.48,-0.558 -1.005,-2.234 -9.526,-9.57l-26.366,31.123l35.892,-21.553l-1.999,1.206l2.122,-0.96l-0.123,-0.246l-1.999,1.206l2.122,-0.96l-0.09,-0.347c-0.078,-0.357 -0.223,-1.027 -0.234,-2.747c0.1,-3.249 0.324,-11.066 7.795,-27.829l-129.719,-58.695l33.021,138.497l-20.804,-87.261l20.581,87.328l0.223,-0.067l-20.804,-87.261l20.581,87.328l0.223,-0.067c0.615,-0.123 2.39,-0.548 5.249,-1.162c45.127,-9.738 82.727,-40.738 100.885,-83.185c1.094,-2.568 3.06,-6.499 6.544,-11.859l-119.289,-77.735l36.071,137.736l-17.075,-65.205l16.46,65.362l0.615,-0.157l-17.075,-65.205l16.46,65.362l0.715,-0.168c70.99,-17.164 117.379,-84.949 107.664,-157.335c-4.936,-36.662 -14.272,-83.308 -32.464,-135.247c-13.657,-38.929 -32.329,-80.862 -58.013,-123.264c-38.416,-63.575 -93.091,-128.234 -167.643,-183.009c-74.441,-54.876 -168.157,-99.322 -281.281,-126.168l-32.977,138.519l37.946,-137.234c-10.475,-2.893 -48.868,-12.24 -109.439,-12.24c-68.712,-0.078 -166.079,12.329 -280.119,58.684c-114.096,46.255 -244.239,126.157 -380.424,257.16c-52.352,50.308 -58.338,132.544 -13.836,189.91c3.651,4.69 6.309,9.705 7.85,14.149l0.012,0.045l103.04,-36.115l-109.171,0c-0.011,12.083 2.043,24.478 6.131,36.115l103.04,-36.115l-109.171,0l109.07,0l-88.724,-63.475c-13.032,18.259 -20.313,40.158 -20.346,63.475l109.07,0l-88.724,-63.475c-22.446,31.38 -31.257,71.203 -24.132,109.127c7.114,37.912 29.772,71.827 62.079,92.922l59.622,-91.292l-94.766,53.938c8.689,15.243 20.693,27.907 35.144,37.354l59.622,-91.292l-94.766,53.938l94.911,-54.016l-109.193,2.613c0.401,18.169 5.594,36.227 14.282,51.403l94.911,-54.016l-109.193,2.613l0.055,1.664l0.011,0.313l-0.011,-0.246l0.011,1.373c-0.1,8.476 -1.496,14.451 -4.991,21.888l-0.011,0.023l98.283,47.717l-64.38,-88.255c-14.015,10.163 -26.075,24.323 -33.903,40.538l98.283,47.717l-64.38,-88.255l64.268,88.11l-17.421,-107.663c-16.863,2.736 -32.809,9.335 -46.847,19.553l64.268,88.11l-17.421,-107.663c-38.08,6.164 -72.587,27.985 -94.486,59.744c-21.899,31.771 -30.007,71.783 -22.212,109.562l106.659,-21.988l-108.903,0c0,7.381 0.748,14.73 2.244,21.988l106.659,-21.988l-108.903,0l109.104,0l-101.745,-39.398c-4.958,12.809 -7.359,26.154 -7.371,39.398l109.116,0l-101.745,-39.398l101.823,39.42l-79.634,-74.709c-9.648,10.263 -17.253,22.502 -22.189,35.289l101.823,39.42l-79.634,-74.709c-5.427,5.863 -13.077,10.777 -20.201,13.189l-0.179,0.067l35.936,103.141l0,-109.216c-12.027,-0.011 -24.367,2.032 -35.936,6.075l35.936,103.141l0,-109.216l0,109.048l63.642,-88.578c-18.202,-13.055 -40.146,-20.436 -63.642,-20.47l0,109.048l63.642,-88.578c-31.324,-22.514 -71.057,-31.403 -108.992,-24.379c-37.935,7.025 -71.85,29.549 -93.057,61.778l91.103,59.901l-53.871,-94.788c-15.087,8.599 -27.717,20.459 -37.232,34.887l91.103,59.901l-53.871,-94.788l53.96,94.955l-2.959,-109.182c-18.147,0.458 -35.97,5.64 -51.001,14.227l53.96,94.955l-2.959,-109.182l-0.637,0.011l-1.697,0.034c-8.465,-0.101 -14.451,-1.508 -21.821,-4.97l0.067,0.034l-47.684,98.238l88.143,-64.435c-10.162,-13.97 -24.267,-25.975 -40.459,-33.803l-47.684,98.238l88.143,-64.435l-88.032,64.346l107.63,-17.51c-2.769,-16.908 -9.38,-32.843 -19.598,-46.836l-88.032,64.346l107.63,-17.51c-6.287,-38.617 -27.728,-72.409 -59.99,-94.531c-32.251,-22.134 -71.504,-29.984 -109.774,-21.944l22.412,106.837l0,-109.171c-7.526,0 -15.031,0.782 -22.412,2.334l22.412,106.837l0,-109.171l0,109.249l39.499,-101.845c-12.775,-4.958 -26.165,-7.393 -39.499,-7.404l0,109.249l39.499,-101.845l-39.454,101.711l74.542,-79.678c-10.185,-9.548 -22.324,-17.108 -35.088,-22.033l-39.454,101.711l74.542,-79.678l0.055,0.056c-5.885,-5.439 -10.798,-13.066 -13.233,-20.235l-0.011,-0.045l-103.118,35.936l109.193,0c0.011,-12.016 -2.032,-24.367 -6.075,-35.936l-103.118,35.936l109.193,0l-109.104,0l88.59,63.709c13.144,-18.314 20.469,-40.291 20.514,-63.709l-109.104,0l88.59,63.709c22.524,-31.313 31.436,-71.135 24.4,-109.07c-7.024,-37.924 -29.604,-71.906 -61.855,-93.079l-59.823,91.114l94.14,-54.932c-8.633,-14.752 -20.336,-26.991 -34.317,-36.182l-59.823,91.114l94.14,-54.932l-94.352,55.054l109.137,-5.159c-0.804,-17.734 -6.164,-35.21 -14.785,-49.895l-94.352,55.054l109.137,-5.159l0.034,0.96l-0.034,-0.804l0.056,1.274l-0.022,-1.72c0.1,-8.465 1.485,-14.417 4.947,-21.788l0.011,-0.033l-98.35,-47.539l64.547,88.11c13.981,-10.185 25.986,-24.323 33.803,-40.571l-98.35,-47.539l64.547,88.11l-64.491,-88.021l17.555,107.697c16.963,-2.78 32.921,-9.425 46.936,-19.676l-64.491,-88.021l17.555,107.697c38.605,-6.287 72.341,-27.695 94.486,-59.946c22.133,-32.251 29.984,-71.425 21.977,-109.718l-106.692,22.312l109.004,0c0,-7.482 -0.771,-14.941 -2.312,-22.312l-106.692,22.312l109.004,0l-109.16,0l101.812,39.354c4.936,-12.764 7.348,-26.109 7.348,-39.354l-109.16,0l101.812,39.354l-101.756,-39.331l79.778,74.43c9.526,-10.185 17.064,-22.346 21.978,-35.099l-101.756,-39.331l79.778,74.43l-0.067,0.066c5.405,-5.862 13.021,-10.787 20.202,-13.233l-0.056,0.023l-35.947,-103.052l0,109.127c12.016,0.011 24.356,-2.022 35.947,-6.075l-35.947,-103.052l0,109.127l0,-109.093l-62.436,89.483c18.057,12.574 39.588,19.576 62.436,19.61l0,-109.093l-62.436,89.483l62.492,-89.562l-103.108,36.004c7.639,22.066 22.569,41.073 40.616,53.558l62.492,-89.562l-103.108,36.004l0.067,0.212l121.098,-42.492l-125.486,26.992c0.424,1.854 1.563,7.415 4.388,15.5l121.098,-42.492l-125.486,26.992l88.723,-19.085l-88.88,18.337l0.157,0.748l88.723,-19.085l-88.88,18.337l0.291,1.395c0.212,0.972 0.524,2.446 0.994,4.389c16.963,70.6 84.167,117.055 156.207,107.987c1.106,-0.133 1.798,-0.178 2.144,-0.189c76.853,-2.647 137.491,-65.396 137.491,-142.305l0,-0.022l-0.033,-2.892l-0.67,-33.223l-142.36,2.904l4.746,142.304l1.429,-0.022c1.731,0 3.652,0.089 5.93,0.335c70.923,7.504 136.665,-38.84 153.393,-108.178c9.459,-39.152 24.166,-84.86 47.059,-134.632c22.915,-49.772 53.994,-103.632 96.608,-159.368l0.547,-0.715l-59.789,-45.115l59.097,46.02l0.692,-0.905l-59.789,-45.115l59.097,46.02l0.458,-0.57c5.226,-6.599 54.976,-66.445 148.815,-127.038c46.947,-30.353 104.871,-61.018 174.276,-86.044c69.427,-25.026 150.322,-44.479 244.15,-52.218l-11.693,-141.902l8.677,142.114l-5.896,-96.597l5.561,96.619l0.335,-0.022l-5.896,-96.597l5.561,96.619l-0.625,-10.899l0.592,10.899l0.033,0l-0.625,-10.899l0.592,10.899c0.48,-0.033 10.799,-0.58 28.99,-0.569c48.801,-0.056 154.309,4.098 277.808,31.637c58.762,13.077 119.423,-12.228 151.461,-63.185c32.039,-50.967 28.566,-116.597 -8.677,-163.89c-83.285,-105.877 -219.704,-236.512 -436.997,-362.746c-5.136,-2.993 -7.761,-4.333 -13.177,-6.767c-4.835,-2.156 -72.475,-32.33 -181.937,-63.687c-109.472,-31.28 -260.811,-63.966 -433.926,-69.338c-74.296,-2.278 -137.536,52.531 -145.855,126.38c-0.671,5.606 -2.022,10.397 -4.68,15.936l0.023,-0.034l98.227,47.74l-64.379,-88.21c-13.982,10.151 -26.009,24.266 -33.848,40.47l98.227,47.74l-64.379,-88.21l64.278,88.065l-17.465,-107.619c-16.874,2.747 -32.798,9.347 -46.813,19.554l64.278,88.065l-17.465,-107.619c-38.08,6.176 -72.587,28.019 -94.464,59.79c-21.877,31.77 -29.973,71.794 -22.167,109.573l106.703,-22.056l-108.959,0c0,7.404 0.76,14.775 2.256,22.056l106.703,-22.056l-108.959,0l109.149,0l-101.767,-39.431c-4.958,12.809 -7.382,26.165 -7.382,39.431l109.149,0l-101.767,-39.431l101.812,39.454l-79.645,-74.72c-9.637,10.251 -17.231,22.479 -22.167,35.266l101.812,39.454l-79.645,-74.72l-0.011,0.022c-5.405,5.84 -13.032,10.754 -20.224,13.188l0.033,-0.011l35.769,103.074l0,-109.093c-12.016,-0.011 -24.3,2.032 -35.769,6.019l35.769,103.074l0,-109.093l0,109.104l63.743,-88.567c-18.214,-13.1 -40.281,-20.503 -63.743,-20.537l0,109.104l63.743,-88.567c-31.313,-22.536 -71.113,-31.459 -109.049,-24.457c-37.935,7.013 -71.917,29.571 -93.112,61.8l91.113,59.89l-53.859,-94.788c-15.121,8.61 -27.762,20.492 -37.254,34.898l91.113,59.89l-53.859,-94.788l53.971,94.989l-2.914,-109.216c-18.147,0.447 -36.004,5.629 -51.057,14.227l53.971,94.989l-2.914,-109.216l-1.073,0.023l-1.328,0.022c-8.476,-0.101 -14.429,-1.496 -21.799,-4.958l-0.033,-0.023l-47.64,98.294l88.154,-64.468c-10.162,-13.97 -24.288,-25.997 -40.514,-33.826l-47.64,98.294l88.154,-64.468l-87.998,64.357l107.597,-17.589c-2.77,-16.851 -9.369,-32.764 -19.599,-46.768l-87.998,64.357l107.597,-17.589c-6.22,-38.069 -28.142,-72.598 -59.946,-94.43c-31.815,-21.832 -71.917,-29.872 -109.685,-21.977l22.312,106.793l0,-109.105c-7.482,0 -14.952,0.771 -22.312,2.312l22.312,106.793l0,-109.105l0,109.194l39.454,-101.812c-12.797,-4.947 -26.153,-7.382 -39.454,-7.382l0,109.194l39.454,-101.812l-39.454,101.812l74.654,-79.69c-10.241,-9.615 -22.435,-17.186 -35.2,-22.122l-39.454,101.812l74.654,-79.69l-0.056,-0.055c-5.841,-5.383 -10.754,-12.999 -13.211,-20.202l0.011,0.011l-103.118,35.903l109.182,0c0.011,-12.005 -2.021,-24.334 -6.064,-35.903l-103.118,35.903l109.182,0l-109.06,0l88.59,63.631c13.088,-18.259 20.425,-40.225 20.47,-63.631l-109.06,0l88.59,63.631c22.514,-31.336 31.403,-71.203 24.334,-109.127c-7.058,-37.935 -29.705,-71.917 -61.979,-93.057l-59.756,91.26l94.207,-54.977c-8.621,-14.752 -20.357,-27.047 -34.451,-36.283l-59.756,91.26l94.207,-54.977l-94.318,55.043l109.104,-5.226c-0.815,-17.7 -6.164,-35.132 -14.786,-49.817l-94.318,55.043l109.104,-5.226l-142.226,6.812l142.304,-4.846l-0.022,-0.793l-0.023,-1.385c0.101,-8.431 1.497,-14.428 4.959,-21.799l-0.023,0.034l-98.294,-47.562l64.536,88.077c13.948,-10.174 25.952,-24.3 33.758,-40.515l-98.294,-47.562l64.536,88.077l-64.435,-87.931l17.689,107.563c16.851,-2.781 32.753,-9.403 46.746,-19.632l-64.435,-87.931l17.689,107.563c38.069,-6.254 72.531,-28.175 94.341,-60.002c21.809,-31.815 29.816,-71.873 21.921,-109.629l-106.692,22.312l109.004,0c0,-7.482 -0.771,-14.941 -2.312,-22.312l-106.692,22.312l109.004,0l-109.183,0l101.823,39.376c4.947,-12.798 7.36,-26.143 7.36,-39.376l-109.183,0l101.823,39.376l-101.834,-39.387l79.768,74.575c9.581,-10.218 17.153,-22.413 22.066,-35.188l-101.834,-39.387l79.768,74.575l0.044,-0.045c5.383,-5.84 12.988,-10.753 20.18,-13.21l0.056,-0.023l-36.037,-103.04l0,109.149c12.06,0.011 24.434,-2.033 36.037,-6.109l-36.037,-103.04l0,109.149l0,-109.116l-62.47,89.484c18.058,12.585 39.599,19.61 62.47,19.632l0,-109.116l-62.47,89.484l62.514,-89.539l-103.107,36.003c7.627,22.055 22.547,41.051 40.593,53.536l62.514,-89.539l-103.107,36.003l-0.134,-0.357l120.886,-41.855l-125.107,26.79c0.413,1.854 1.519,7.18 4.221,15.065l120.886,-41.855l-125.107,26.79l89.64,-19.197l-89.796,18.426l0.156,0.771l89.64,-19.197l-89.796,18.426l0.044,0.257c0.134,0.615 0.469,2.323 1.117,5.059c16.751,71.091 84.223,117.859 156.665,108.579l1.687,-0.156c76.853,-2.557 137.636,-65.396 137.636,-142.305l0,-0.022l-0.022,-2.87l-0.67,-33.223l-142.36,2.882l4.455,142.304l1.988,-0.022c4.456,0.011 7.839,0.435 11.1,1.183c3.272,0.76 6.488,1.843 10.464,3.741l0.045,0.023l47.427,-98.406l-88.043,64.647c10.185,13.948 24.345,25.964 40.616,33.759l47.427,-98.406l-88.043,64.647l87.887,-64.535l-107.586,17.767c2.803,16.873 9.448,32.787 19.699,46.768l87.887,-64.535l-107.586,17.767c6.288,38.058 28.142,72.408 59.957,94.229c31.816,21.821 71.739,29.828 109.506,21.977l-22.144,-106.535l0,108.813c7.415,0 14.819,-0.748 22.144,-2.278l-22.144,-106.535l0,108.813l0,-109.014l-39.141,101.744c12.775,4.903 26.019,7.27 39.141,7.27l0,-109.014l-39.141,101.744l39.23,-101.979l-74.541,79.902c10.307,9.637 22.558,17.197 35.311,22.077l39.23,-101.979l-74.541,79.902l0.011,0c3.194,2.981 6.388,6.89 9.057,11.39c35.5,59.89 109.081,85.318 173.997,60.136c57.031,-22.145 136.988,-49.069 231.754,-70.242c94.765,-21.218 204.282,-36.651 320.545,-36.629c49.046,0 99.287,2.725 150.233,8.867l5.259,0.525l4.545,-54.775l-4.846,54.753l0.301,0.022l4.545,-54.775l-4.846,54.753c0.826,0.067 36.137,3.249 93.213,14.07c49.069,9.292 98.875,-7.493 132.298,-44.601l-25.472,-22.949l16.192,30.665c0.749,-0.346 5.003,-2.915 9.28,-7.716l-25.472,-22.949l16.192,30.665l-2.657,-5.025l2.512,5.103l0.145,-0.078l-2.657,-5.025l2.512,5.103l0.246,-0.1c1.373,-0.693 9.816,-3.585 24.389,-5.517c14.54,-2.032 34.92,-3.294 59.566,-3.272c36.785,-0.022 82.951,2.68 135.772,6.935c52.877,4.221 112.499,9.917 177.425,15.344c101.846,8.465 179.335,16.784 232.592,25.528c26.544,4.311 46.958,8.778 60.147,12.518c6.577,1.854 11.312,3.507 13.948,4.557c1.306,0.525 2.088,0.882 2.322,0.994l0.056,0.033l8.297,-16.46l-9.358,15.857l1.061,0.603l8.297,-16.46l-9.358,15.857c44.2,26.087 98.384,26.478 142.963,1.039c44.58,-25.45 71.795,-72.331 71.795,-123.655l0,-5.059l-142.383,0l0,142.394l0.101,0c38.571,0 75.658,-15.746 102.448,-43.508c26.79,-27.75 41.219,-65.362 39.845,-103.911l-0.022,-0.827l-32.642,0.76l32.653,0l-0.011,-0.76l-32.642,0.76l32.653,0l0.067,-1.753l0.033,-0.358l0,-0.011l-26.366,-4.311l25.261,8.398c0.915,-2.781 1.06,-3.864 1.105,-4.087l-26.366,-4.311l25.261,8.398l-63.676,-21.162l59.522,30.833c2.322,-4.512 3.45,-7.571 4.154,-9.671l-63.676,-21.162l59.522,30.833l-84.023,-43.519l75.96,56.35c3.852,-5.215 6.298,-9.436 8.063,-12.831l-84.023,-43.519l75.96,56.35l-93.448,-69.326l62.28,98.015c16.382,-10.542 25.35,-20.995 31.168,-28.689l-93.448,-69.326l62.28,98.015l-67.953,-106.949l37.902,120.885c11.815,-3.696 21.899,-8.743 30.051,-13.936l-67.953,-106.949l37.902,120.885l-38.751,-123.554l0,129.484c13.546,0.023 27.003,-2.211 38.751,-5.93l-38.751,-123.554l0,129.484l0,-129.64l-30.386,126.022c9.582,2.323 19.978,3.63 30.386,3.618l0,-129.64l-30.386,126.022l29.683,-123.085l-73.09,103.487c10.631,7.538 25.339,15.254 43.407,19.598l29.683,-123.085l-73.09,103.487l67.808,-96.005l-88.679,77.21c4.891,5.606 11.491,12.139 20.871,18.795l67.808,-96.005l-88.679,77.21l72.609,-63.218l-87.205,41.297c2.39,4.891 6.086,12.038 14.596,21.921l72.609,-63.218l-87.205,41.297l41.855,-19.822l-45.808,8.856c0.234,0.871 0.558,3.618 3.953,10.966l41.855,-19.822l-45.808,8.856l5.494,-1.061l-5.55,0.781l0.056,0.28l5.494,-1.061l-5.55,0.781c0.011,0.056 0.112,0.972 0.112,2.156l49.203,0l-49.203,-0.682l0,0.682l49.203,0l-49.203,-0.682l15.924,0.224l-15.913,-0.335l-0.011,0.111l15.924,0.224l-15.913,-0.335c0,0.045 -0.023,0.625 -0.056,1.776c-1.117,38.56 13.311,75.658 40.202,103.33c26.88,27.672 63.542,43.173 102.125,43.173l0.089,0l0,-142.394l-142.371,0l0,5.059c0,51.324 27.214,98.205 71.794,123.655c44.568,25.45 98.774,25.048 142.974,-1.05l-11.882,-20.135l10.955,20.66l0.927,-0.525l-11.882,-20.135l10.955,20.66l-3.785,-7.125l3.64,7.203l0.145,-0.078l-3.785,-7.125l3.64,7.203l0.29,-0.134c1.731,-0.871 11.012,-4.433 26.188,-8.107c22.848,-5.662 58.728,-11.927 105.921,-17.801c47.271,-5.941 106.055,-11.692 176.666,-17.577c64.971,-5.427 124.638,-11.123 177.537,-15.355c52.855,-4.255 99.043,-6.958 135.85,-6.935c11.234,0 21.575,0.246 30.877,0.715c22.491,1.139 45.574,-3.25 66.066,-12.552c44.546,-20.235 84.402,-35.613 112.555,-45.708c14.07,-5.059 25.227,-8.789 32.597,-11.189c3.685,-1.195 6.421,-2.055 8.096,-2.58l1.731,-0.536l0.234,-0.067l-18.559,-61.778l18.381,61.834l0.178,-0.056l-18.559,-61.778l18.381,61.834l3.439,-1.072c33.491,-10.933 78.618,-22.089 124.303,-31.559c45.786,-9.526 92.454,-17.611 131.36,-23.753c41.71,-6.589 78.026,-31.067 99.791,-67.249c21.765,-36.193 26.366,-79.745 12.642,-119.679l-103.052,35.433l108.713,-5.07c-0.681,-14.439 -3.864,-25.115 -5.661,-30.363l-103.052,35.433l108.713,-5.07l-0.056,-1.105l-0.044,-0.804l-142.17,7.739l142.304,-4.478c0,-0.112 -0.012,-0.682 -0.012,-1.754c0.101,-8.465 1.497,-14.439 4.925,-21.754l0.067,-0.111l-98.406,-47.506l64.57,88.132c13.97,-10.184 26.008,-24.344 33.836,-40.626l-98.406,-47.506l64.57,88.132l-64.413,-87.931l17.678,107.563c16.829,-2.78 32.731,-9.391 46.735,-19.632l-64.413,-87.931l17.678,107.563c38.594,-6.343 72.296,-27.795 94.397,-60.069c22.088,-32.273 29.894,-71.459 21.843,-109.74l-106.804,22.469l109.137,0c0,-7.516 -0.77,-15.032 -2.333,-22.469l-106.804,22.469l109.137,0l-109.204,0l101.845,39.409c4.936,-12.776 7.359,-26.132 7.359,-39.409l-109.204,0l101.845,39.409l-101.778,-39.387l79.779,74.486c9.548,-10.196 17.086,-22.357 21.999,-35.099l-101.778,-39.387l79.779,74.486l-0.067,0.066c5.461,-5.907 13.043,-10.798 20.224,-13.255l0.011,0l-36.003,-103.063l0,109.16c12.038,0.011 24.389,-2.032 36.003,-6.097l-36.003,-103.063l0,109.16l0,-109.07l-62.403,89.483c18.046,12.552 39.554,19.554 62.403,19.587l0,-109.07l-62.403,89.483l62.447,-89.55l-103.051,36.081c7.661,22.044 22.58,41.006 40.604,53.469l62.447,-89.55l-103.051,36.081l-0.168,-0.48l121.265,-41.978l-125.587,26.444c0.436,1.955 1.553,7.46 4.322,15.534l121.265,-41.978l-125.587,26.444l92.544,-19.487l-92.722,18.638l0.178,0.849l92.544,-19.487l-92.722,18.638l0.045,0.224c0.123,0.58 0.446,2.267 1.083,5.014c16.416,71.169 84.335,118.473 156.777,109.216c1.072,-0.134 1.575,-0.157 1.72,-0.157c76.864,-2.557 137.647,-65.406 137.647,-142.304l0,-0.022l-0.033,-2.904l-0.67,-33.211l-142.349,2.892l4.757,142.304l1.485,-0.022c8.454,0.101 14.417,1.497 21.72,4.914l0.056,0.033l47.45,-98.395l-88.054,64.625c10.207,13.971 24.345,25.964 40.604,33.77l47.45,-98.395l-88.054,64.625l87.965,-64.557l-107.675,17.655c2.792,16.963 9.459,32.91 19.71,46.902l87.965,-64.557l-107.675,17.655c6.242,38.069 28.186,72.587 60.002,94.397c31.826,21.81 71.917,29.827 109.684,21.921l-22.334,-106.636l0,108.948c7.471,0 14.942,-0.771 22.334,-2.312l-22.334,-106.636l0,108.948l0,-109.093l-39.231,101.789c12.765,4.914 26.054,7.304 39.231,7.304l0,-109.093l-39.231,101.789l39.264,-101.868l-74.452,79.858c10.252,9.581 22.447,17.119 35.188,22.01l39.264,-101.868l-74.452,79.858l-0.033,-0.034c5.863,5.394 10.798,13.021 13.244,20.191l0,-0.012l102.985,-36.047l-109.104,0c-0.012,12.093 2.054,24.467 6.119,36.047l102.985,-36.047l-109.104,0l109.115,0l-88.735,-63.52c-13.066,18.281 -20.347,40.225 -20.38,63.52l109.115,0l-88.735,-63.52c-22.457,31.369 -31.28,71.203 -24.166,109.126c7.114,37.914 29.772,71.85 62.068,92.946l59.644,-91.304l-94.81,53.893c8.677,15.244 20.682,27.941 35.166,37.411l59.644,-91.304l-94.81,53.893l94.921,-53.949l-109.16,2.613c0.391,18.158 5.573,36.171 14.239,51.336l94.921,-53.949l-109.16,2.613l0.045,1.675l0.011,0.302l-0.022,-0.614l0.034,1.753c-0.101,8.498 -1.508,14.462 -4.981,21.821l-0.045,0.089l98.272,47.707l-64.413,-88.211c-13.992,10.163 -26.03,24.289 -33.859,40.504l98.272,47.707l-64.413,-88.211l64.313,88.077l-17.466,-107.653c-16.874,2.748 -32.821,9.359 -46.847,19.576l64.313,88.077l-17.466,-107.653c-38.08,6.176 -72.565,28.008 -94.453,59.779c-21.887,31.77 -29.984,71.772 -22.189,109.55l106.67,-22.021l-108.915,0c0,7.426 0.76,14.785 2.245,22.021l106.67,-22.021l-108.915,0l109.138,0l-101.756,-39.432c-4.97,12.809 -7.382,26.176 -7.382,39.432l109.138,0l-101.756,-39.432l101.812,39.454l-79.645,-74.709c-9.637,10.252 -17.231,22.469 -22.167,35.255l101.812,39.454l-79.645,-74.709c-5.405,5.852 -13.066,10.777 -20.258,13.211l0.034,-0.011l35.78,103.096l0.011,-109.115c-12.016,-0.023 -24.311,2.021 -35.791,6.019l35.78,103.096l0.011,-109.115l0,109.093l63.743,-88.557c-18.236,-13.11 -40.28,-20.514 -63.743,-20.536l0,109.093l63.743,-88.557c-31.313,-22.547 -71.135,-31.469 -109.082,-24.456c-37.935,7.024 -71.928,29.604 -93.113,61.844l91.159,59.868l-53.871,-94.821c-15.109,8.598 -27.762,20.491 -37.288,34.953l91.159,59.868l-53.871,-94.821l53.971,94.988l-2.914,-109.215c-18.169,0.457 -36.004,5.639 -51.057,14.227l53.971,94.988l-2.914,-109.215l-1.039,0.033l-1.385,0.011c-8.442,-0.1 -14.439,-1.496 -21.798,-4.969l0.056,0.033l-47.696,98.239l88.144,-64.458c-10.14,-13.936 -24.222,-25.941 -40.448,-33.781l-47.696,98.239l88.144,-64.458l-87.965,64.335l107.541,-17.633c-2.77,-16.852 -9.381,-32.732 -19.576,-46.702l-87.965,64.335l107.541,-17.633c-6.243,-38.069 -28.175,-72.588 -59.991,-94.397c-31.815,-21.821 -71.917,-29.839 -109.685,-21.933l22.357,106.804l0,-109.115c-7.504,0 -14.986,0.77 -22.357,2.311l22.357,106.804l0,-109.115l0,109.26l39.521,-101.856c-12.797,-4.97 -26.198,-7.404 -39.521,-7.404l0,109.26l39.521,-101.856l-39.487,101.767l74.642,-79.667c-10.196,-9.582 -22.368,-17.164 -35.155,-22.1l-39.487,101.767l74.642,-79.667l-0.078,-0.078c-3.027,-2.826 -6.109,-6.556 -8.789,-11.022c-20.135,-33.536 -52.933,-57.166 -91.114,-65.664c-38.17,-8.498 -77.891,-1.016 -110.355,20.805c-52.597,35.388 -85.842,64.491 -89.136,67.349l93.983,106.96l-77.356,-119.545c-22.803,14.796 -43.451,31.101 -63.362,48.443c-34.697,30.33 -67.082,63.977 -97.435,97.971c-45.383,50.922 -85.798,102.582 -115.469,142.103c-29.627,39.476 -48.343,66.713 -49.192,67.953l117.368,80.594l-116.385,-82.012c-32.709,46.567 -59.254,96.965 -82.638,148.044c-23.284,51.045 -43.072,102.694 -59.722,150.49c-18.058,51.883 -4.423,110.031 34.797,148.491c39.23,38.449 97.646,50.911 149.161,31.815c80.56,-29.894 164.292,-47.963 239.191,-58.181c74.899,-10.263 140.897,-12.764 185.991,-12.753c20.86,0 37.254,0.525 48.008,1.016c5.383,0.246 9.347,0.48 11.77,0.648c1.206,0.078 2.033,0.134 2.446,0.167l0.011,0l11.949,-141.88l-23.116,140.495c191.619,31.593 327.435,94.967 414.718,148.648c43.586,26.846 74.921,51.291 94.453,68.042c9.76,8.375 16.572,14.819 20.491,18.672c1.955,1.92 3.183,3.194 3.697,3.729l0.257,0.268l57.534,-53.535l-58.416,52.575l0.882,0.96l57.534,-53.535l-58.416,52.575c3.975,4.411 7.258,7.661 11.714,11.581c125.654,110.511 203.378,232.736 241.838,304.989c34.596,64.814 113.337,92.699 181.01,64.111c1.765,-0.749 2.792,-1.117 2.859,-1.15l0.212,-0.068l-35.97,-103.062l0,109.149c12.016,0.011 24.367,-2.022 35.97,-6.087l-35.97,-103.062l0,109.149l0,-109.071l-62.402,89.483c18.057,12.563 39.566,19.554 62.402,19.588l0,-109.071l-62.402,89.483l62.47,-89.583l-103.108,36.036c7.65,22.078 22.591,41.085 40.638,53.547l62.47,-89.583l-103.108,36.036l121.288,-42.391l-125.699,26.701c0.402,1.776 1.496,7.292 4.411,15.69l121.288,-42.391l-125.699,26.701l0.57,-0.123l-0.57,0.123l0.57,-0.123l-0.57,0.123c0.179,0.905 0.559,2.714 1.195,5.405c16.974,70.6 84.503,117.178 156.532,107.954l1.194,-0.134l0.324,-0.022c76.864,-2.479 137.793,-65.407 137.793,-142.305l0,-0.033l-0.022,-2.848l-0.67,-33.222l-142.361,2.847l4.445,142.316l1.965,-0.034c4.49,0.011 7.862,0.447 11.145,1.195c3.272,0.76 6.5,1.843 10.486,3.752l-0.067,-0.022l47.495,-98.372l-88.077,64.591c10.163,13.937 24.3,25.953 40.582,33.781l47.495,-98.372l-88.077,64.591l87.887,-64.457l-107.541,17.744c2.792,16.852 9.425,32.732 19.654,46.713l87.887,-64.457l-107.541,17.744c6.287,38.07 28.209,72.498 60.035,94.297c31.838,21.787 71.851,29.783 109.618,21.876l-22.312,-106.58l0,108.892c7.471,0 14.93,-0.759 22.312,-2.312l-22.312,-106.58l0,108.892l0,-109.126l-39.264,101.811c12.775,4.925 26.098,7.315 39.264,7.315l0,-109.126l-39.264,101.811l39.286,-101.867l-74.463,79.868c10.218,9.548 22.424,17.097 35.177,21.999l39.286,-101.867l-74.463,79.868l-0.045,-0.033c5.897,5.416 10.821,13.021 13.267,20.19l-0.045,-0.134l102.985,-35.936l-109.071,0c-0.011,12.06 2.044,24.389 6.086,35.936l102.985,-35.936l-109.071,0l109.116,0l-88.713,-63.542c-13.088,18.292 -20.369,40.269 -20.403,63.542l109.116,0l-88.713,-63.542c-22.469,31.358 -31.302,71.18 -24.2,109.104c7.103,37.913 29.739,71.85 62.023,92.968l59.645,-91.215l-94.721,53.893c8.677,15.21 20.648,27.874 35.076,37.322l59.645,-91.215l-94.721,53.893l94.922,-54.004l-109.194,2.624c0.402,18.191 5.606,36.227 14.272,51.38l94.922,-54.004l-109.194,2.624l0.056,1.664l0.011,0.301l-0.022,-0.614l142.315,-4.467Z" style="fill:#fff;fill-rule:nonzero;"/><path d="M3145.37,1786.41c0,-417.823 -355.309,-756.537 -793.59,-756.537c-438.281,0 -793.579,338.714 -793.579,756.537l1587.17,0Z" style="fill:#8cc63f;fill-rule:nonzero;"/><path d="M2351.78,1040.76c0,0 -217.828,4.735 -271.219,192.769l146.537,151.305c0,0 -29.069,-138.82 124.682,-344.074Z" style="fill:#fff;fill-rule:nonzero;"/><path d="M2352.52,1040.76c0,0 265.535,4.143 331.857,185.678l-187.341,113.906c0,0 17.197,-146.537 -144.516,-299.584Z" style="fill:#fff;fill-rule:nonzero;"/><path d="M2381.72,755.792c0,-38.304 -13.078,-69.36 -29.214,-69.36c-16.126,0 -29.203,31.056 -29.203,69.36c0,1.719 0.056,3.406 0.101,5.092l-0.101,0l0,288.361l58.417,0l0,-288.361l-0.09,0c0.034,-1.686 0.09,-3.373 0.09,-5.092Z" style="fill:#414042;fill-rule:nonzero;"/><g><clipPath id="_clip1"><path d="M1570.78,2333.26c0,0 14.26,-399.598 -435.278,-506.625c0,0 -335.375,-92.766 -749.244,392.451c0,0 -42.804,107.038 -35.669,-21.408c0,0 -19.632,-249.755 189.085,-522.683c0,0 214.076,-283.637 668.974,-321.103c0,0 524.459,-32.117 883.028,305.044c0,0 338.96,460.248 -520.896,674.324Z"/></clipPath><g clip-path="url(#_clip1)"><rect x="-134.475" y="1306.78" width="2083.25" height="1537.78" style="fill:#fff;fill-rule:nonzero;"/><path d="M281.762,1963.43l140.808,3.417l-41.364,136.43l-141.925,-2.635l42.481,-137.212Z" style="fill:#9e1e63;fill-rule:nonzero;"/><path d="M381.709,2102.92l140.808,3.428l-41.364,136.42l-141.925,-2.625l42.481,-137.223Z" style="fill:#9e1e63;fill-rule:nonzero;"/><path d="M481.656,2242.41l140.807,3.429l-41.363,136.419l-141.936,-2.636l42.492,-137.212Z" style="fill:#9e1e63;fill-rule:nonzero;"/><path d="M363.863,1693.5l140.797,3.439l-41.363,136.42l-141.925,-2.625l42.491,-137.234Z" style="fill:#9e1e63;fill-rule:nonzero;"/><path d="M463.81,1833l140.808,3.429l-41.363,136.419l-141.936,-2.636l42.491,-137.212Z" style="fill:#9e1e63;fill-rule:nonzero;"/><path d="M563.746,1972.48l140.819,3.451l-41.375,136.419l-141.924,-2.635l42.48,-137.235Z" style="fill:#9e1e63;fill-rule:nonzero;"/><path d="M663.704,2111.98l140.808,3.428l-41.375,136.43l-141.924,-2.635l42.491,-137.223Z" style="fill:#9e1e63;fill-rule:nonzero;"/><path d="M763.651,2251.47l140.797,3.428l-41.364,136.419l-141.935,-2.613l42.502,-137.234Z" style="fill:#9e1e63;fill-rule:nonzero;"/><path d="M263.928,1554.01l140.796,3.439l-41.363,136.42l-141.925,-2.625l42.492,-137.234Z" style="fill:#9e1e63;fill-rule:nonzero;"/><path d="M545.912,1563.06l140.808,3.451l-41.364,136.419l-141.924,-2.635l42.48,-137.235Z" style="fill:#9e1e63;fill-rule:nonzero;"/><path d="M645.859,1702.56l140.797,3.428l-41.364,136.43l-141.925,-2.635l42.492,-137.223Z" style="fill:#9e1e63;fill-rule:nonzero;"/><path d="M745.806,1842.04l140.785,3.451l-41.352,136.408l-141.925,-2.614l42.492,-137.245Z" style="fill:#9e1e63;fill-rule:nonzero;"/><path d="M845.742,1981.55l140.808,3.417l-41.364,136.431l-141.925,-2.636l42.481,-137.212Z" style="fill:#9e1e63;fill-rule:nonzero;"/><path d="M945.7,2121.03l140.796,3.44l-41.374,136.408l-141.925,-2.636l42.503,-137.212Z" style="fill:#9e1e63;fill-rule:nonzero;"/><path d="M1045.63,2260.52l140.797,3.439l-41.363,136.431l-141.925,-2.636l42.491,-137.234Z" style="fill:#9e1e63;fill-rule:nonzero;"/><path d="M445.965,1423.57l140.808,3.44l-41.375,136.419l-141.924,-2.635l42.491,-137.224Z" style="fill:#9e1e63;fill-rule:nonzero;"/><path d="M727.949,1432.63l140.808,3.451l-41.363,136.419l-141.925,-2.636l42.48,-137.234Z" style="fill:#9e1e63;fill-rule:nonzero;"/><path d="M827.907,1572.14l140.797,3.418l-41.363,136.43l-141.925,-2.636l42.491,-137.212Z" style="fill:#9e1e63;fill-rule:nonzero;"/><path d="M927.843,1711.62l140.808,3.44l-41.374,136.408l-141.936,-2.613l42.502,-137.235Z" style="fill:#9e1e63;fill-rule:nonzero;"/><path d="M1027.79,1851.12l140.808,3.428l-41.375,136.419l-141.924,-2.624l42.491,-137.223Z" style="fill:#9e1e63;fill-rule:nonzero;"/><path d="M1127.74,1990.6l140.797,3.439l-41.364,136.419l-141.924,-2.635l42.491,-137.223Z" style="fill:#9e1e63;fill-rule:nonzero;"/><path d="M1227.67,2130.1l140.808,3.429l-41.375,136.43l-141.913,-2.636l42.48,-137.223Z" style="fill:#9e1e63;fill-rule:nonzero;"/><path d="M1327.62,2269.59l140.808,3.429l-41.364,136.419l-141.936,-2.613l42.492,-137.235Z" style="fill:#9e1e63;fill-rule:nonzero;"/><path d="M628.014,1293.15l140.808,3.428l-41.364,136.419l-141.925,-2.624l42.481,-137.223Z" style="fill:#9e1e63;fill-rule:nonzero;"/><path d="M909.987,1302.2l140.819,3.44l-41.364,136.419l-141.924,-2.624l42.469,-137.235Z" style="fill:#9e1e63;fill-rule:nonzero;"/><path d="M1009.95,1441.71l140.797,3.428l-41.364,136.419l-141.936,-2.635l42.503,-137.212Z" style="fill:#9e1e63;fill-rule:nonzero;"/><path d="M1109.89,1581.2l140.797,3.428l-41.364,136.42l-141.924,-2.625l42.491,-137.223Z" style="fill:#9e1e63;fill-rule:nonzero;"/><path d="M1209.82,1720.69l140.819,3.429l-41.363,136.43l-141.936,-2.647l42.48,-137.212Z" style="fill:#9e1e63;fill-rule:nonzero;"/><path d="M1309.78,1860.19l140.808,3.428l-41.375,136.408l-141.914,-2.613l42.481,-137.223Z" style="fill:#9e1e63;fill-rule:nonzero;"/><path d="M1409.71,1999.67l140.808,3.428l-41.352,136.43l-141.936,-2.624l42.48,-137.234Z" style="fill:#9e1e63;fill-rule:nonzero;"/><path d="M1509.67,2139.17l140.796,3.428l-41.374,136.408l-141.925,-2.613l42.503,-137.223Z" style="fill:#9e1e63;fill-rule:nonzero;"/><path d="M1609.59,2278.65l140.819,3.44l-41.363,136.43l-141.936,-2.647l42.48,-137.223Z" style="fill:#9e1e63;fill-rule:nonzero;"/><path d="M1195.24,1303.23l140.797,3.44l-41.364,136.419l-141.924,-2.636l42.491,-137.223Z" style="fill:#9e1e63;fill-rule:nonzero;"/><path d="M1295.18,1442.73l140.808,3.429l-41.364,136.419l-141.924,-2.625l42.48,-137.223Z" style="fill:#9e1e63;fill-rule:nonzero;"/><path d="M1395.13,1582.21l140.808,3.44l-41.375,136.408l-141.913,-2.613l42.48,-137.235Z" style="fill:#9e1e63;fill-rule:nonzero;"/><path d="M1495.07,1721.72l140.808,3.428l-41.364,136.43l-141.936,-2.646l42.492,-137.212Z" style="fill:#9e1e63;fill-rule:nonzero;"/><path d="M1595.01,1861.19l140.807,3.439l-41.363,136.431l-141.925,-2.636l42.481,-137.234Z" style="fill:#9e1e63;fill-rule:nonzero;"/><path d="M1694.96,2000.71l140.807,3.417l-41.363,136.431l-141.925,-2.625l42.481,-137.223Z" style="fill:#9e1e63;fill-rule:nonzero;"/><path d="M1794.89,2140.18l140.819,3.429l-41.374,136.419l-141.925,-2.624l42.48,-137.224Z" style="fill:#9e1e63;fill-rule:nonzero;"/><path d="M1477.23,1312.3l140.808,3.439l-41.374,136.408l-141.925,-2.624l42.491,-137.223Z" style="fill:#9e1e63;fill-rule:nonzero;"/><path d="M1577.17,1451.79l140.796,3.428l-41.363,136.431l-141.925,-2.636l42.492,-137.223Z" style="fill:#9e1e63;fill-rule:nonzero;"/><path d="M1677.12,1591.28l140.797,3.428l-41.374,136.431l-141.925,-2.624l42.502,-137.235Z" style="fill:#9e1e63;fill-rule:nonzero;"/><path d="M1777.06,1730.77l140.797,3.44l-41.352,136.408l-141.936,-2.613l42.491,-137.235Z" style="fill:#9e1e63;fill-rule:nonzero;"/><path d="M1877,1870.27l140.797,3.417l-41.364,136.43l-141.935,-2.624l42.502,-137.223Z" style="fill:#9e1e63;fill-rule:nonzero;"/><path d="M1976.95,2009.75l140.797,3.45l-41.364,136.397l-141.936,-2.613l42.503,-137.234Z" style="fill:#9e1e63;fill-rule:nonzero;"/><path d="M1759.21,1321.36l140.808,3.439l-41.375,136.419l-141.913,-2.635l42.48,-137.223Z" style="fill:#9e1e63;fill-rule:nonzero;"/><path d="M1859.16,1460.85l140.797,3.429l-41.364,136.43l-141.925,-2.635l42.492,-137.224Z" style="fill:#9e1e63;fill-rule:nonzero;"/><path d="M1959.11,1600.34l140.796,3.439l-41.363,136.42l-141.925,-2.625l42.492,-137.234Z" style="fill:#9e1e63;fill-rule:nonzero;"/><path d="M2059.04,1739.83l140.808,3.439l-41.375,136.431l-141.914,-2.647l42.481,-137.223Z" style="fill:#9e1e63;fill-rule:nonzero;"/><path d="M2158.99,1879.32l140.797,3.451l-41.363,136.408l-141.925,-2.636l42.491,-137.223Z" style="fill:#9e1e63;fill-rule:nonzero;"/><path d="M1941.25,1190.92l140.808,3.439l-41.363,136.42l-141.925,-2.625l42.48,-137.234Z" style="fill:#9e1e63;fill-rule:nonzero;"/><path d="M2041.2,1330.42l140.808,3.429l-41.375,136.419l-141.913,-2.636l42.48,-137.212Z" style="fill:#9e1e63;fill-rule:nonzero;"/><path d="M2141.14,1469.91l140.808,3.429l-41.375,136.419l-141.913,-2.624l42.48,-137.224Z" style="fill:#9e1e63;fill-rule:nonzero;"/><path d="M2241.09,1609.41l140.797,3.428l-41.364,136.43l-141.924,-2.635l42.491,-137.223Z" style="fill:#9e1e63;fill-rule:nonzero;"/><path d="M2341.03,1748.9l140.808,3.428l-41.364,136.419l-141.924,-2.624l42.48,-137.223Z" style="fill:#9e1e63;fill-rule:nonzero;"/><path d="M2223.23,1199.99l140.796,3.428l-41.352,136.419l-141.925,-2.624l42.481,-137.223Z" style="fill:#9e1e63;fill-rule:nonzero;"/><path d="M2323.18,1339.48l140.797,3.428l-41.353,136.431l-141.936,-2.625l42.492,-137.234Z" style="fill:#9e1e63;fill-rule:nonzero;"/><path d="M2423.13,1478.98l140.785,3.417l-41.352,136.431l-141.925,-2.636l42.492,-137.212Z" style="fill:#9e1e63;fill-rule:nonzero;"/></g></g><path d="M1570.78,2333.26l4.746,0.167c0,-0.056 0.056,-1.529 0.056,-4.288c-0.023,-21.731 -3.183,-122.895 -59.689,-231.653c-56.451,-108.758 -166.672,-224.92 -379.285,-275.474l-1.106,4.623l1.262,-4.579c-0.346,-0.1 -26.433,-7.269 -72.799,-7.269c-121.299,-0.068 -381.25,49.314 -681.314,401.217l-0.514,0.591l-0.29,0.726c0,0.012 -1.005,2.524 -2.714,6.377c-2.546,5.773 -6.656,14.461 -10.989,21.486c-2.144,3.506 -4.366,6.588 -6.287,8.576l-2.412,2.044l-0.648,0.324l-0.1,0.022l0.045,0.234l0,-0.234l-0.045,0l0.045,0.234l0,-0.234l0,0.759l0.346,-0.67l-0.346,-0.089l0,0.759l0.346,-0.67c-0.268,-0.044 -1.943,-2.546 -2.893,-8.007c-1.027,-5.427 -1.675,-13.601 -1.663,-24.936c0,-7.147 0.245,-15.545 0.792,-25.35l0.012,-0.324l-0.023,-0.312c0,0 -0.111,-1.452 -0.234,-4.411c-0.123,-2.948 -0.235,-7.36 -0.235,-13.1c0,-61.107 13.736,-273.262 188.604,-501.923l0.011,-0.033l0,0.011c0.011,-0.011 0.782,-1.039 2.435,-3.083c24.757,-30.754 238.487,-281.202 663.145,-316.156l-0.391,-4.723l0.29,4.735c0.011,0 3.272,-0.202 9.582,-0.402c6.309,-0.213 15.623,-0.414 27.583,-0.414c125.62,-0.056 542.762,22.759 842.324,304.587l3.249,-3.462l-3.83,2.814l0.692,0.961c6.991,9.838 64.324,94.743 64.268,204.037c-0.056,73.96 -25.919,159.122 -111.628,241.246c-85.72,82.079 -231.642,160.943 -471.537,220.654l1.139,4.612l4.746,0.167l-4.746,-0.167l1.15,4.601c240.889,-59.98 388.352,-139.312 475.814,-223.01c87.485,-83.676 114.599,-171.92 114.554,-248.103c-0.078,-120.149 -66.557,-210.213 -66.802,-210.626l-0.257,-0.346l-0.313,-0.301c-302.834,-284.598 -722.186,-307.1 -848.823,-307.156c-24.133,0 -37.656,0.826 -37.745,0.826l-0.045,0.012l-0.056,0c-456.852,37.656 -671.967,322.432 -672.369,322.979l0.022,-0.033c-176.487,230.793 -190.569,445.238 -190.558,507.696c0,11.76 0.491,18.136 0.503,18.248l4.734,-0.369l-4.746,-0.257c-0.547,9.939 -0.804,18.516 -0.804,25.875c0.012,14.272 0.927,23.931 2.714,30.576c0.905,3.328 2.01,5.952 3.73,8.096c1.641,2.133 4.433,3.73 7.259,3.674c2.925,-0.033 5.215,-1.295 7.169,-2.769c3.406,-2.658 6.287,-6.466 9.124,-10.821c8.386,-12.999 15.556,-31.068 15.634,-31.202l-4.411,-1.764l3.607,3.082c298.735,-350.116 555.414,-397.822 674.1,-397.889c22.692,0 40.347,1.753 52.285,3.495c5.975,0.882 10.508,1.742 13.535,2.39c1.519,0.324 2.646,0.592 3.395,0.77l1.061,0.268l0.078,0.023l0.089,0.022c210.09,50.085 317.53,163.913 373.064,270.616c55.491,106.703 58.629,206.472 58.617,227.276c0,2.636 -0.055,3.942 -0.055,3.953l-0.224,6.288l6.12,-1.519l-1.15,-4.601Z" style="fill:#9e1e63;fill-rule:nonzero;"/><path d="M1422.69,808.791c0,175.025 231.731,132.176 532.086,105.152c292.694,-26.322 397.744,-47.071 397.744,-105.152c0,-58.069 -104.894,-80.705 -397.744,-105.15c-319.83,-26.701 -532.086,-62.537 -532.086,105.15Z" style="fill:#414042;fill-rule:nonzero;"/><path d="M1544.25,2394.41c0,0 283.212,-522.416 108.043,-839.42c0,0 -70.756,-248.394 -494.33,-494.632c0,0 -312.661,-140.718 -683.782,-119.054c0,0 -102.281,-25.517 -12.954,-73.804c0,0 402.914,-211.977 880.281,-154.488c0,0 358.357,29.47 689.243,243.078c0,0 473.994,378.659 552.511,609.374c0,0 462.972,532.734 -1039.01,828.946Z" style="fill:#2e3092;fill-rule:nonzero;"/><path d="M3135.25,2352.73c0,0 58.863,-369.268 267.59,-535.18c0,0 165.901,-181.948 519.11,-128.423c0,0 353.22,53.502 626.148,267.578c0,0 133.784,101.689 32.094,-53.513c0,0 -85.608,-224.775 -310.371,-422.793c0,0 -192.669,-214.065 -615.461,-283.637c0,0 -444.189,-37.466 -759.92,187.309c0,0 -476.317,326.452 -594.054,968.659l834.864,0Z" style="fill:#00a650;fill-rule:nonzero;"/><g><clipPath id="_clip2"><path d="M2880.16,2377.4c0,0 68.734,-111.963 96.34,-396.024c0,0 27.773,-287.055 71.325,-513.761c0,0 71.359,-299.718 181.959,-456.696c0,0 164.125,-239.035 285.446,-317.519c0,0 89.204,-78.494 199.783,-124.883c0,0 117.758,-39.242 -49.94,-28.544c0,0 -235.473,28.544 -378.179,74.933c0,0 -324.688,96.328 -499.501,285.423c0,0 -178.408,156.99 -403.171,510.199c0,0 -146.28,267.567 -267.568,445.975c0,0 -210.514,281.862 -281.872,328.24c0,0 -196.231,156.989 -221.201,192.657l1266.58,0Z"/></clipPath><g clip-path="url(#_clip2)"><rect x="1704.08" y="179.092" width="2087.27" height="2198.31" style="fill:#fff;fill-rule:nonzero;"/><path d="M4654.48,1095.37l-2939.4,-1285.26l48.276,-110.4l2939.4,1285.25l-48.276,110.411Z" style="fill:#d7df22;fill-rule:nonzero;"/><path d="M4560.95,1309.26l-2939.4,-1285.25l48.265,-110.411l2939.41,1285.26l-48.276,110.399Z" style="fill:#d7df22;fill-rule:nonzero;"/><path d="M4467.4,1523.16l-2939.38,-1285.25l48.276,-110.41l2939.4,1285.25l-48.299,110.411Z" style="fill:#d7df22;fill-rule:nonzero;"/><path d="M4373.9,1737.06l-2939.39,-1285.25l48.265,-110.411l2939.4,1285.25l-48.276,110.41Z" style="fill:#d7df22;fill-rule:nonzero;"/><path d="M4280.38,1950.96l-2939.4,-1285.25l48.265,-110.411l2939.41,1285.25l-48.276,110.411Z" style="fill:#d7df22;fill-rule:nonzero;"/><path d="M4186.85,2164.85l-2939.4,-1285.26l48.265,-110.399l2939.4,1285.26l-48.265,110.4Z" style="fill:#d7df22;fill-rule:nonzero;"/><path d="M4093.31,2378.75l-2939.4,-1285.25l48.287,-110.411l2939.39,1285.26l-48.276,110.399Z" style="fill:#d7df22;fill-rule:nonzero;"/><path d="M3999.78,2592.64l-2939.38,-1285.25l48.276,-110.399l2939.4,1285.26l-48.298,110.389Z" style="fill:#d7df22;fill-rule:nonzero;"/><path d="M3906.26,2806.55l-2939.39,-1285.26l48.265,-110.389l2939.4,1285.25l-48.276,110.4Z" style="fill:#d7df22;fill-rule:nonzero;"/><path d="M3812.72,3020.45l-2939.39,-1285.27l48.265,-110.399l2939.4,1285.25l-48.276,110.422Z" style="fill:#d7df22;fill-rule:nonzero;"/></g></g><path d="M2880.16,2377.4l4.042,2.479c0.402,-0.636 69.36,-113.359 97.021,-398.045c0,-0.045 1.731,-17.913 5.015,-48.344c9.838,-91.292 33.635,-295.206 66.255,-464.982l-4.668,-0.893l4.623,1.094c0,-0.011 1.094,-4.634 3.261,-13.11c7.56,-29.66 28.008,-106.078 58.606,-192.144c30.587,-86.055 71.403,-181.792 119.355,-249.8l0.011,-0.022l0.023,-0.023c0,-0.011 2.535,-3.707 7.247,-10.374c16.494,-23.351 59.432,-82.873 111.438,-145.052c51.961,-62.168 113.169,-127.038 165.421,-160.808l0.29,-0.19l0.268,-0.234c0,0 1.34,-1.184 3.965,-3.395c18.381,-15.489 98.539,-80.427 194.522,-120.663l-1.842,-4.377l1.507,4.511c0.078,-0.033 10.207,-3.406 20.514,-7.995c5.16,-2.301 10.352,-4.88 14.518,-7.661c2.088,-1.407 3.931,-2.848 5.449,-4.534c1.463,-1.675 2.881,-3.741 2.937,-6.711c0.045,-3.083 -2.01,-5.763 -4.221,-7.125c-3.395,-2.178 -7.828,-3.317 -14.54,-4.255c-6.689,-0.882 -15.589,-1.362 -27.37,-1.362c-12.742,0 -28.845,0.569 -49.036,1.853l-0.134,0.012l-0.134,0.011c-0.156,0.045 -235.584,28.521 -379.084,75.133l1.475,4.512l-1.352,-4.557c-0.324,0.202 -325.358,96.296 -501.633,286.753l3.484,3.227l-3.138,-3.562c-0.29,0.257 -179,157.581 -404.031,511.215l-0.089,0.134l-0.079,0.145c0,0.011 -2.278,4.165 -6.51,11.815c-29.615,53.592 -154.879,277.931 -260.822,433.77l3.93,2.657l-3.808,-2.836c-0.011,0.011 -3.283,4.389 -9.168,12.183c-20.603,27.26 -73.145,96.083 -128.278,163.109c-27.561,33.513 -55.781,66.579 -80.952,93.727c-25.115,27.148 -47.382,48.444 -62.246,58.081l-0.201,0.123l-0.179,0.145c-0.022,0.011 -49.091,39.275 -101.32,83.017c-26.12,21.877 -53.022,44.87 -74.999,64.67c-10.989,9.905 -20.76,18.995 -28.6,26.79c-7.85,7.817 -13.735,14.227 -17.208,19.163l-5.238,7.471l1278.35,0l1.396,-2.267l-4.042,-2.479l0,-4.746l-1266.58,0l0,4.746l3.886,2.725c2.769,-3.976 8.476,-10.285 16.126,-17.879c26.89,-26.712 78.025,-70.264 122.314,-107.016c22.156,-18.381 42.626,-35.076 57.545,-47.181c14.92,-12.095 24.278,-19.577 24.3,-19.599l-2.97,-3.707l2.591,3.975c18.66,-12.172 45.16,-38.572 75.077,-71.649c89.561,-99.121 207.957,-257.662 208.001,-257.718l0.067,-0.089l0.056,-0.09c121.5,-178.732 267.78,-446.299 267.813,-446.366l-4.165,-2.278l4.009,2.546c112.242,-176.387 212.892,-303.749 285.446,-386.979c36.272,-41.62 65.518,-72.196 85.686,-92.364c10.085,-10.084 17.89,-17.555 23.173,-22.502c2.635,-2.48 4.645,-4.322 5.985,-5.539c1.351,-1.218 2.01,-1.798 2.01,-1.798l0.179,-0.168l0.167,-0.178c86.681,-93.783 211.095,-164.985 313.812,-212.536c51.358,-23.786 97.289,-41.687 130.355,-53.636c16.527,-5.974 29.85,-10.463 39.018,-13.445c9.18,-2.993 14.16,-4.467 14.172,-4.478l0.066,-0.011l0.056,-0.023c70.912,-23.06 165.343,-41.788 241.928,-54.697c38.292,-6.455 72.151,-11.469 96.418,-14.864c24.278,-3.394 38.895,-5.159 38.94,-5.17l-0.569,-4.713l0.301,4.735c20.045,-1.273 35.97,-1.831 48.433,-1.831c15.343,-0.011 25.483,0.871 31.312,2.177c2.915,0.626 4.713,1.408 5.35,1.854l0.279,0.212l0.111,-0.122l-0.123,0.1l0.012,0.022l0.111,-0.122l-0.123,0.1l1.307,-0.971l-1.597,0l0.29,0.971l1.307,-0.971l-1.597,0l1.374,0l-1.34,-0.347l-0.034,0.347l1.374,0l-1.34,-0.347l0.525,0.134l-0.503,-0.19l-0.022,0.056l0.525,0.134l-0.503,-0.19l-0.313,0.47c-0.871,1.194 -3.819,3.439 -7.526,5.483c-5.606,3.149 -12.966,6.287 -18.851,8.576c-2.948,1.15 -5.539,2.1 -7.381,2.747c-1.843,0.659 -2.915,1.016 -2.915,1.016l-0.167,0.056l-0.168,0.067c-111.46,46.791 -200.876,125.531 -201.089,125.688l3.138,3.573l-2.579,-3.987c-61.576,39.89 -132.958,119.457 -189.33,189.196c-56.316,69.729 -97.401,129.563 -97.446,129.63l3.909,2.68l-3.875,-2.736c-55.803,79.243 -101.32,193.673 -133.08,288.439c-31.726,94.754 -49.594,169.798 -49.616,169.887l-0.022,0.112l-0.023,0.1c-43.619,227.031 -71.392,514.119 -71.392,514.197c-13.781,141.712 -37.79,240.375 -58.315,303.526c-10.263,31.57 -19.644,54.273 -26.445,69.036c-3.394,7.381 -6.153,12.786 -8.04,16.315c-0.938,1.765 -1.675,3.071 -2.155,3.92l-0.715,1.206l4.054,2.479l0,-4.746l0,4.746Z" style="fill:#d7df22;fill-rule:nonzero;"/><path d="M3282.35,808.791c0,175.025 -231.731,132.176 -532.086,105.152c-292.671,-26.322 -397.744,-47.071 -397.744,-105.152c0,-58.069 104.883,-80.694 397.744,-105.15c319.83,-26.701 532.086,-62.548 532.086,105.15Z" style="fill:#414042;fill-rule:nonzero;"/><path d="M3145.37,2275.41c0,0 -234.97,-61.599 -790.675,-61.599c-555.694,0 -790.653,61.599 -790.653,61.599c-82.046,125.854 26.109,195.449 26.109,195.449l1529.11,0c0,0 108.143,-69.595 26.109,-195.449Z" style="fill:#9e1e63;fill-rule:nonzero;"/><path d="M3170.21,2315.38c0,0 -259.806,-67.796 -815.511,-67.796c-555.694,0 -817.075,63.273 -817.075,63.273c-55.937,123.633 20.581,188.448 20.581,188.448l796.494,5.327l790.675,0c0,0 62.671,-74.665 24.836,-189.252Z" style="fill:#8cc63f;fill-rule:nonzero;"/><path d="M3914.78,533.072c2.792,88.143 -66.389,161.858 -154.543,164.65c-88.132,2.792 -161.847,-66.401 -164.639,-154.544c-2.792,-88.143 66.389,-161.858 154.533,-164.65c88.154,-2.791 161.858,66.401 164.649,154.544Z" style="fill:#9e1e63;fill-rule:nonzero;"/><path d="M3847.43,624.632c-13.859,14.763 -31.19,26.21 -50.711,32.977c-17.331,6.019 -26.511,24.948 -20.491,42.28c6.019,17.331 24.947,26.511 42.279,20.491c29.906,-10.385 56.327,-27.851 77.389,-50.297c12.552,-13.389 11.871,-34.406 -1.508,-46.958c-13.389,-12.552 -34.406,-11.882 -46.958,1.507ZM3759.31,664.511l-0.123,0.011c-1.373,0.044 -2.736,0.067 -4.098,0.067c-19.721,-0.011 -38.282,-4.512 -54.943,-12.575c-16.505,-8.007 -36.383,-1.105 -44.379,15.4c-8.007,16.516 -1.105,36.383 15.4,44.39c25.416,12.317 54.005,19.23 83.922,19.219c2.066,0 4.132,-0.034 6.198,-0.101l0.189,0c18.337,-0.603 32.72,-15.947 32.129,-34.295c-0.603,-18.325 -15.958,-32.708 -34.295,-32.116ZM3668.78,630.45c-14.774,-13.836 -26.232,-31.167 -33.033,-50.677c-6.03,-17.331 -24.97,-26.488 -42.29,-20.447c-17.332,6.03 -26.489,24.97 -20.458,42.291c10.408,29.894 27.895,56.305 50.375,77.344c13.39,12.541 34.417,11.837 46.958,-1.552c12.541,-13.401 11.849,-34.418 -1.552,-46.959ZM3628.81,542.374l0,-0.245l0,-0.012c-0.044,-1.373 -0.066,-2.736 -0.066,-4.087c0,-19.676 4.478,-38.203 12.518,-54.842c7.985,-16.516 1.061,-36.383 -15.455,-44.368c-16.517,-7.984 -36.383,-1.072 -44.368,15.456c-12.273,25.372 -19.152,53.893 -19.141,83.754c0,2.066 0.034,4.132 0.101,6.209l0,-0.011l0.011,0.369c0.614,18.336 15.98,32.708 34.317,32.094c18.337,-0.625 32.698,-15.98 32.083,-34.317ZM3662.79,451.797c13.825,-14.797 31.146,-26.266 50.644,-33.078c17.32,-6.052 26.455,-24.992 20.402,-42.312c-6.041,-17.332 -24.992,-26.467 -42.312,-20.414c-29.873,10.43 -56.272,27.951 -77.289,50.442c-12.53,13.412 -11.815,34.44 1.597,46.958c13.401,12.53 34.429,11.816 46.958,-1.596ZM3750.83,411.751l0.357,-0.011c1.374,-0.045 2.736,-0.067 4.099,-0.067c19.643,0 38.136,4.467 54.742,12.474c16.516,7.962 36.383,1.027 44.356,-15.501c7.962,-16.527 1.027,-36.382 -15.5,-44.356c-25.328,-12.228 -53.804,-19.074 -83.598,-19.062c-2.066,0 -4.132,0.033 -6.198,0.1l-0.536,0.011c-18.337,0.637 -32.698,16.014 -32.061,34.351c0.625,18.336 16.002,32.686 34.339,32.061ZM3841.43,445.643c14.808,13.814 26.299,31.124 33.133,50.611c6.064,17.32 25.015,26.444 42.335,20.38c17.321,-6.075 26.433,-25.026 20.369,-42.347c-10.463,-29.861 -27.996,-56.238 -50.52,-77.232c-13.412,-12.519 -34.44,-11.782 -46.948,1.63c-12.518,13.423 -11.781,34.44 1.631,46.958ZM3881.56,533.641l0.022,0.481c0.034,1.373 0.056,2.736 0.056,4.098c0,19.766 -4.523,38.371 -12.619,55.055c-8.018,16.505 -1.139,36.383 15.366,44.401c16.506,8.018 36.383,1.139 44.401,-15.367c12.374,-25.461 19.308,-54.105 19.297,-84.089c0,-2.055 -0.033,-4.121 -0.089,-6.198l-0.034,-0.726c-0.647,-18.336 -16.036,-32.675 -34.372,-32.027c-18.337,0.647 -32.676,16.036 -32.028,34.372Z" style="fill:#9e1e63;fill-rule:nonzero;"/><path d="M564.048,912.759c2.791,88.143 -66.401,161.858 -154.555,164.65c-88.132,2.792 -161.847,-66.401 -164.628,-154.555c-2.792,-88.132 66.401,-161.847 154.533,-164.639c88.143,-2.792 161.858,66.4 164.65,154.544Z" style="fill:#d7df22;fill-rule:nonzero;"/><path d="M496.687,1004.31c-13.848,14.774 -31.19,26.209 -50.7,32.988c-17.342,6.019 -26.511,24.948 -20.492,42.279c6.02,17.332 24.948,26.5 42.28,20.492c29.894,-10.385 56.327,-27.851 77.378,-50.308c12.552,-13.379 11.882,-34.407 -1.508,-46.959c-13.378,-12.552 -34.406,-11.871 -46.958,1.508ZM408.577,1044.2l-0.134,0c-1.362,0.045 -2.736,0.067 -4.087,0.067c-19.722,0 -38.293,-4.5 -54.943,-12.574c-16.516,-7.996 -36.383,-1.106 -44.39,15.411c-7.996,16.516 -1.106,36.383 15.411,44.39c25.417,12.317 53.994,19.23 83.922,19.219c2.055,0 4.121,-0.034 6.198,-0.101l0.189,0c18.337,-0.603 32.721,-15.958 32.117,-34.295c-0.603,-18.336 -15.946,-32.72 -34.283,-32.117ZM318.044,1010.14c-14.785,-13.836 -26.243,-31.168 -33.033,-50.677c-6.03,-17.331 -24.97,-26.489 -42.301,-20.458c-17.321,6.03 -26.478,24.97 -20.447,42.301c10.407,29.884 27.895,56.305 50.364,77.334c13.401,12.54 34.429,11.848 46.958,-1.541c12.541,-13.401 11.849,-34.429 -1.541,-46.959ZM278.077,922.05l-0.012,-0.246c-0.044,-1.373 -0.067,-2.736 -0.067,-4.098c0.011,-19.677 4.49,-38.203 12.53,-54.831c7.985,-16.517 1.061,-36.384 -15.456,-44.368c-16.516,-7.985 -36.382,-1.072 -44.367,15.444c-12.284,25.383 -19.152,53.905 -19.152,83.755c0,2.066 0.034,4.132 0.101,6.209l0.011,0.357c0.614,18.348 15.98,32.709 34.317,32.095c18.336,-0.614 32.709,-15.981 32.095,-34.317ZM312.058,831.483c13.814,-14.796 31.146,-26.276 50.644,-33.077c17.32,-6.053 26.455,-25.004 20.403,-42.324c-6.053,-17.32 -24.993,-26.455 -42.313,-20.403c-29.873,10.431 -56.272,27.952 -77.289,50.443c-12.529,13.412 -11.815,34.429 1.597,46.958c13.401,12.53 34.429,11.815 46.958,-1.597ZM400.09,791.426l0.357,-0.011c1.374,-0.044 2.736,-0.067 4.099,-0.067c19.643,0.011 38.125,4.478 54.73,12.474c16.528,7.974 36.394,1.039 44.357,-15.489c7.973,-16.528 1.038,-36.383 -15.489,-44.356c-25.339,-12.228 -53.804,-19.074 -83.598,-19.074c-2.066,0 -4.132,0.034 -6.209,0.101l-0.536,0.022c-18.337,0.625 -32.687,16.003 -32.05,34.339c0.625,18.337 16.002,32.698 34.339,32.061ZM490.69,825.33c14.808,13.803 26.299,31.112 33.122,50.61c6.075,17.321 25.026,26.433 42.346,20.369c17.321,-6.063 26.433,-25.025 20.369,-42.335c-10.463,-29.861 -28.007,-56.249 -50.52,-77.244c-13.412,-12.507 -34.44,-11.781 -46.959,1.642c-12.507,13.412 -11.77,34.44 1.642,46.958ZM530.825,913.328l0.011,0.48c0.045,1.363 0.067,2.737 0.067,4.099c0,19.766 -4.523,38.359 -12.619,55.054c-8.018,16.506 -1.139,36.383 15.366,44.401c16.506,8.018 36.383,1.139 44.401,-15.366c12.374,-25.461 19.309,-54.105 19.309,-84.089c0,-2.066 -0.034,-4.132 -0.101,-6.209l-0.022,-0.715c-0.648,-18.337 -16.048,-32.675 -34.384,-32.028c-18.337,0.648 -32.676,16.036 -32.028,34.373Z" style="fill:#d7df22;fill-rule:nonzero;"/><path d="M509.373,2208.77c2.791,88.144 -66.401,161.859 -154.544,164.65c-88.143,2.792 -161.847,-66.411 -164.639,-154.543c-2.792,-88.143 66.401,-161.87 154.533,-164.661c88.143,-2.792 161.858,66.411 164.65,154.554Z" style="fill:#00a650;fill-rule:nonzero;"/><path d="M442.012,2300.34c-13.848,14.763 -31.19,26.209 -50.7,32.977c-17.342,6.019 -26.511,24.947 -20.503,42.279c6.02,17.332 24.948,26.511 42.291,20.492c29.895,-10.374 56.327,-27.84 77.378,-50.298c12.552,-13.389 11.882,-34.406 -1.508,-46.958c-13.378,-12.552 -34.406,-11.882 -46.958,1.508ZM353.902,2340.21l-0.123,0c-1.373,0.045 -2.736,0.067 -4.098,0.067c-19.721,-0.011 -38.293,-4.511 -54.943,-12.574c-16.516,-8.007 -36.383,-1.106 -44.39,15.399c-8.007,16.517 -1.105,36.383 15.4,44.39c25.428,12.329 54.005,19.23 83.933,19.23c2.055,0 4.121,-0.033 6.198,-0.1l0.178,0c18.337,-0.603 32.721,-15.947 32.129,-34.284c-0.603,-18.348 -15.947,-32.731 -34.284,-32.128ZM263.369,2306.14c-14.785,-13.836 -26.243,-31.168 -33.033,-50.677c-6.03,-17.332 -24.969,-26.489 -42.301,-20.459c-17.32,6.031 -26.478,24.97 -20.447,42.302c10.408,29.884 27.895,56.294 50.364,77.333c13.401,12.541 34.417,11.849 46.958,-1.541c12.541,-13.401 11.849,-34.417 -1.541,-46.958ZM223.402,2218.05l-0.012,-0.235c-0.044,-1.362 -0.055,-2.736 -0.055,-4.087c0,-19.688 4.478,-38.215 12.518,-54.854c7.985,-16.516 1.072,-36.383 -15.444,-44.367c-16.528,-7.985 -36.383,-1.072 -44.379,15.444c-12.273,25.383 -19.152,53.916 -19.141,83.777c0,2.055 0.023,4.12 0.09,6.198l0.011,0.346c0.614,18.336 15.98,32.709 34.317,32.094c18.337,-0.614 32.709,-15.98 32.095,-34.316ZM257.384,2127.49c13.825,-14.797 31.145,-26.265 50.643,-33.077c17.332,-6.053 26.467,-24.993 20.414,-42.313c-6.053,-17.332 -24.993,-26.466 -42.313,-20.414c-29.872,10.43 -56.272,27.952 -77.289,50.443c-12.529,13.411 -11.814,34.428 1.586,46.958c13.412,12.53 34.429,11.815 46.959,-1.597ZM345.426,2087.44l0.346,-0.011l0.012,0c1.362,-0.045 2.736,-0.067 4.087,-0.067c19.643,0.011 38.136,4.467 54.742,12.474c16.527,7.973 36.383,1.038 44.356,-15.489c7.973,-16.528 1.039,-36.383 -15.489,-44.356c-25.339,-12.229 -53.804,-19.074 -83.609,-19.074c-2.066,0 -4.132,0.033 -6.198,0.1l-0.536,0.023c-18.337,0.625 -32.687,16.003 -32.061,34.339c0.636,18.337 16.014,32.687 34.35,32.061ZM436.026,2121.35c14.808,13.814 26.288,31.123 33.122,50.61c6.064,17.32 25.015,26.444 42.335,20.38c17.31,-6.064 26.433,-25.026 20.369,-42.335c-10.463,-29.861 -27.996,-56.249 -50.509,-77.244c-13.423,-12.518 -34.44,-11.792 -46.958,1.631c-12.508,13.423 -11.782,34.44 1.641,46.958ZM476.15,2209.34l0.011,0.48c0.045,1.374 0.067,2.736 0.067,4.099c0,19.766 -4.522,38.37 -12.619,55.054c-8.018,16.505 -1.139,36.383 15.355,44.401c16.506,8.018 36.383,1.139 44.401,-15.366c12.385,-25.461 19.32,-54.105 19.308,-84.089c0,-2.055 -0.033,-4.121 -0.1,-6.198l-0.022,-0.715c-0.648,-18.348 -16.037,-32.686 -34.373,-32.039c-18.337,0.648 -32.676,16.036 -32.028,34.373Z" style="fill:#00a650;fill-rule:nonzero;"/><path d="M4777.94,1997.78c2.781,88.144 -66.4,161.859 -154.543,164.65c-88.132,2.792 -161.859,-66.389 -164.65,-154.543c-2.781,-88.132 66.412,-161.859 154.543,-164.639c88.144,-2.792 161.859,66.389 164.65,154.532Z" style="fill:#2e3092;fill-rule:nonzero;"/><path d="M4710.58,2094.69c-13.848,14.774 -31.19,26.209 -50.7,32.988c-17.343,6.019 -26.511,24.948 -20.492,42.279c6.02,17.332 24.948,26.511 42.279,20.492c29.895,-10.386 56.328,-27.851 77.378,-50.308c12.552,-13.379 11.882,-34.407 -1.507,-46.959c-13.379,-12.552 -34.406,-11.871 -46.958,1.508ZM4622.47,2134.58l-0.123,0c-1.374,0.045 -2.736,0.067 -4.098,0.067c-19.722,0 -38.282,-4.5 -54.943,-12.574c-16.517,-7.996 -36.383,-1.094 -44.39,15.411c-7.996,16.516 -1.106,36.383 15.411,44.39c25.416,12.328 54.004,19.23 83.922,19.218c2.054,0 4.132,-0.033 6.197,-0.1l0.19,0c18.337,-0.603 32.72,-15.947 32.117,-34.284c-0.592,-18.347 -15.947,-32.72 -34.283,-32.128ZM4531.94,2100.52c-14.786,-13.836 -26.243,-31.168 -33.033,-50.677c-6.041,-17.331 -24.981,-26.477 -42.301,-20.447c-17.332,6.03 -26.489,24.97 -20.448,42.302c10.408,29.883 27.896,56.294 50.376,77.333c13.389,12.54 34.417,11.837 46.958,-1.553c12.53,-13.4 11.838,-34.417 -1.552,-46.958ZM4491.96,2012.44l0,-0.246c-0.045,-1.373 -0.067,-2.736 -0.067,-4.076c0,-19.688 4.49,-38.214 12.519,-54.853c7.984,-16.517 1.072,-36.383 -15.445,-44.368c-16.516,-7.984 -36.383,-1.072 -44.378,15.444c-12.273,25.384 -19.152,53.916 -19.141,83.777c0,2.066 0.034,4.121 0.089,6.176l0.023,0.368c0.614,18.348 15.98,32.709 34.317,32.095c18.336,-0.614 32.697,-15.98 32.083,-34.317ZM4525.94,1921.88c13.825,-14.796 31.145,-26.276 50.643,-33.077c17.321,-6.053 26.467,-25.003 20.414,-42.324c-6.052,-17.32 -25.003,-26.455 -42.323,-20.402c-29.873,10.43 -56.272,27.951 -77.289,50.442c-12.519,13.412 -11.804,34.429 1.597,46.958c13.412,12.53 34.44,11.815 46.958,-1.597ZM4613.98,1881.82l0.368,-0.012c1.374,-0.033 2.736,-0.055 4.099,-0.055c19.643,0 38.125,4.466 54.73,12.462c16.528,7.974 36.383,1.028 44.356,-15.5c7.974,-16.516 1.039,-36.383 -15.488,-44.345c-25.339,-12.228 -53.804,-19.074 -83.598,-19.063c-2.066,0 -4.132,0.034 -6.209,0.09l-0.537,0.022c-18.336,0.625 -32.686,16.003 -32.061,34.339c0.626,18.337 16.003,32.698 34.34,32.062ZM4704.59,1915.71c14.808,13.814 26.299,31.123 33.133,50.61c6.064,17.321 25.015,26.444 42.335,20.369c17.321,-6.064 26.433,-25.026 20.369,-42.335c-10.463,-29.861 -28.007,-56.238 -50.52,-77.244c-13.423,-12.507 -34.44,-11.77 -46.959,1.642c-12.507,13.423 -11.781,34.451 1.642,46.958ZM4744.72,2003.71l0.022,0.48l0,-0.011c0.034,1.374 0.056,2.736 0.056,4.087c0,19.778 -4.523,38.382 -12.63,55.077c-8.018,16.506 -1.128,36.383 15.366,44.401c16.505,8.018 36.383,1.139 44.401,-15.366c12.384,-25.472 19.319,-54.116 19.308,-84.112c0,-2.054 -0.033,-4.109 -0.089,-6.175l-0.034,-0.726c-0.648,-18.337 -16.036,-32.675 -34.373,-32.028c-18.336,0.648 -32.675,16.037 -32.027,34.373Z" style="fill:#2e3092;fill-rule:nonzero;"/></g><g id="CoderFaire Text"><path d="M6429.64,2174.82c-59.666,30.824 -184.785,61.584 -342.647,61.584c-365.764,0 -639.12,-230.989 -639.12,-658.306c0,-408.131 275.306,-681.456 677.618,-681.456c159.781,0 263.732,34.629 307.986,57.716l-42.335,136.694c-61.585,-30.793 -152.074,-53.91 -259.895,-53.91c-304.116,0 -506.295,194.441 -506.295,535.169c0,319.528 182.93,521.675 496.702,521.675c103.92,0 207.903,-21.199 275.275,-53.91l32.711,134.744Z" style="fill:#fff;fill-rule:nonzero;"/><path d="M6676.17,1572.31c0,279.112 150.156,527.463 415.775,527.463c265.682,0 415.837,-244.514 415.837,-539.007c0,-259.894 -134.775,-529.381 -413.887,-529.381c-279.143,0 -417.725,257.944 -417.725,540.925ZM7684.86,1553.06c0,444.647 -271.406,683.342 -602.509,683.342c-344.597,0 -583.292,-267.568 -583.292,-660.256c0,-411.969 254.107,-681.456 600.622,-681.456c356.108,0 585.179,271.437 585.179,658.37Z" style="fill:#fff;fill-rule:nonzero;"/><path d="M8005.49,2084.33c42.367,5.788 103.983,7.706 169.404,7.706c359.978,0 552.469,-200.197 552.469,-550.518c1.949,-306.098 -171.324,-500.539 -525.514,-500.539c-86.621,0 -152.074,7.737 -196.359,17.33l0,1026.02ZM7838.03,937.058c102.002,-17.331 223.284,-28.874 356.109,-28.874c240.645,0 411.968,57.748 525.544,161.668c117.413,105.901 184.785,256.057 184.785,465.878c0,211.74 -67.372,384.982 -186.735,504.345c-123.201,121.282 -323.397,186.735 -575.554,186.735c-121.282,0 -219.478,-5.787 -304.149,-15.411l0,-1274.34Z" style="fill:#fff;fill-rule:nonzero;"/><path d="M9730.39,1606.97l-502.396,0l0,467.766l562.062,0l0,140.5l-731.466,0l0,-1297.46l702.592,0l0,140.531l-533.188,0l0,410.019l502.396,0l0,138.643Z" style="fill:#fff;fill-rule:nonzero;"/><path d="M10128,1526.07l171.323,0c179.03,0 292.606,-98.164 292.606,-246.401c0,-167.455 -121.283,-240.614 -298.393,-240.614c-80.834,0 -136.662,5.787 -165.536,13.493l0,473.522ZM9960.56,935.108c84.733,-15.381 207.903,-26.924 321.479,-26.924c179.029,0 296.473,34.63 375.42,105.87c63.503,57.748 102.002,146.287 102.002,248.32c0,169.405 -107.789,282.98 -242.564,329.153l0,5.787c98.164,34.63 157.893,127.07 188.653,261.813c42.368,180.948 73.16,306.099 100.115,356.109l-173.274,0c-21.167,-38.467 -50.041,-148.237 -84.671,-309.905c-38.498,-179.06 -109.77,-246.401 -261.813,-252.188l-157.861,0l0,562.093l-167.486,0l0,-1280.13Z" style="fill:#fff;fill-rule:nonzero;"/><path d="M10934.9,917.777l698.787,0l0,140.531l-529.351,0l0,431.218l488.934,0l0,138.581l-488.934,0l0,587.129l-169.436,0l0,-1297.46Z" style="fill:#fff;fill-rule:nonzero;"/><path d="M12361.3,1676.26l-128.957,-373.439c-28.873,-84.734 -48.091,-161.73 -67.403,-236.808l-3.806,0c-19.28,75.078 -38.498,155.912 -65.484,234.858l-127.038,375.389l392.688,0ZM11934,1807.17l-134.807,408.068l-173.21,0l442.728,-1297.46l200.198,0l442.792,1297.46l-179.061,0l-138.58,-408.068l-460.06,0Z" style="fill:#fff;fill-rule:nonzero;"/><rect x="12888.7" y="917.777" width="169.436" height="1297.46" style="fill:#fff;fill-rule:nonzero;"/><path d="M13473.3,1526.07l171.323,0c179.03,0 292.606,-98.164 292.606,-246.401c0,-167.455 -121.251,-240.614 -298.361,-240.614c-80.834,0 -136.694,5.787 -165.568,13.493l0,473.522ZM13305.9,935.108c84.702,-15.381 207.872,-26.924 321.479,-26.924c178.997,0 296.442,34.63 375.326,105.87c63.535,57.748 102.033,146.287 102.033,248.32c0,169.405 -107.788,282.98 -242.532,329.153l0,5.787c98.163,34.63 157.829,127.07 188.653,261.813c42.336,180.948 73.191,306.099 100.083,356.109l-173.242,0c-21.199,-38.467 -50.073,-148.237 -84.703,-309.905c-38.466,-179.06 -109.706,-246.401 -261.749,-252.188l-157.893,0l0,562.093l-167.455,0l0,-1280.13Z" style="fill:#fff;fill-rule:nonzero;"/><path d="M14952.1,1606.97l-502.396,0l0,467.766l562.093,0l0,140.5l-731.529,0l0,-1297.46l702.655,0l0,140.531l-533.219,0l0,410.019l502.396,0l0,138.643Z" style="fill:#fff;fill-rule:nonzero;"/></g></svg>