<?xml version="1.0" standalone="no"?><!DOCTYPE svg PUBLIC "-//W3C//DTD SVG 1.1//EN" "http://www.w3.org/Graphics/SVG/1.1/DTD/svg11.dtd"><svg width="100%" height="100%" viewBox="0 0 5759 2850" version="1.1" xmlns="http://www.w3.org/2000/svg" xmlns:xlink="http://www.w3.org/1999/xlink" xml:space="preserve" style="fill-rule:evenodd;clip-rule:evenodd;stroke-linejoin:round;stroke-miterlimit:1.41421;"><g id="CoderFaire Jester Hat Without Shadows"><path d="M2692.02,756.068l-166.015,0l0,209.037l166.015,0l-5.586,-165.925c-82.174,2.761 -162.435,14.18 -239.609,33.685l40.677,160.964l109.622,-124.675c-82.604,-72.643 -141.08,-119.375 -142.578,-120.586c-5.403,-4.323 -7.786,-6.028 -13.607,-9.792c-30.481,-19.674 -60.807,-37.799 -90.716,-54.713l-81.718,144.506l14.947,165.338c120.3,-10.912 214.753,-21.003 291.667,-33.594c38.555,-6.354 72.799,-13.294 105.104,-22.292c32.305,-9.179 62.891,-19.843 95.208,-38.411l-83.411,-143.542l-166.015,0l166.015,0l-83.424,-143.528l13.815,23.75l-12.735,-24.362l-1.08,0.612l13.815,23.75l-12.735,-24.362l4.388,8.385l-4.218,-8.463l-0.17,0.078l4.388,8.385l-4.218,-8.463l-0.339,0.156c-2.018,1.002 -12.825,5.091 -30.403,9.297c-26.472,6.51 -67.93,13.737 -122.318,20.664c-54.479,7.005 -122.123,13.932 -203.242,21.263c-72.409,6.549 -132.019,59.297 -147.331,130.377c-15.313,71.068 17.278,143.685 80.573,179.48c25.13,14.205 49.844,29.01 74.101,44.661l90.026,-139.479l-103.632,129.687l42.604,-53.32l-42.643,53.294l0.039,0.026l42.604,-53.32l-42.643,53.294c0.247,0.196 54.544,43.659 130.637,110.573c41.264,36.276 97.032,49.74 150.313,36.276c54.01,-13.658 110.664,-21.784 169.401,-23.763c89.622,-3.008 160.443,-76.25 160.443,-165.911l0,-209.037c0,-59.31 -31.81,-114.31 -83.216,-143.893c-51.407,-29.583 -114.935,-29.44 -166.224,0.365l83.424,143.528ZM3189.83,829.128l-14.909,165.352c7.76,0.69 15.547,1.419 23.411,2.148l15.456,-165.299l-115.208,-119.518c-33.36,32.135 -97.943,97.877 -182.67,200.664l128.099,105.599l54.831,-156.706c-104.818,-36.68 -216.862,-58.034 -332.839,-62.136l-5.885,165.912l166.029,0l0,-209.076l-166.029,0l-83.385,143.542c32.578,18.711 63.398,29.414 96.015,38.646c24.48,6.784 50.026,12.37 77.774,17.461c41.588,7.617 88.138,14.115 141.693,20.364c53.541,6.25 114.023,12.214 182.747,18.399l-0.039,0l14.909,-165.352l14.87,-165.351c-119.037,-10.664 -209.766,-20.599 -272.266,-30.847c-31.159,-5.052 -55.196,-10.221 -70.755,-14.583c-7.774,-2.149 -13.386,-4.075 -16.511,-5.299c-1.575,-0.612 -2.513,-1.042 -2.786,-1.173l-0.091,-0.039l-9.493,19.141l10.73,-18.463l-1.237,-0.678l-9.493,19.141l10.73,-18.463c-51.276,-29.792 -114.805,-29.922 -166.211,-0.339c-51.407,29.583 -83.203,84.583 -83.203,143.893l0,209.076c0,89.166 71.028,162.747 160.143,165.911c82.877,2.943 161.745,18.112 234.922,43.711c65.768,23.021 138.606,2.67 182.929,-51.093c76.25,-92.5 132.149,-148.972 156.888,-172.813c46.862,-45.169 62.982,-112.982 41.472,-174.401c-21.511,-61.432 -76.433,-104.362 -141.237,-110.417c-8.047,-0.755 -16.185,-1.51 -24.492,-2.252l-0.039,-0.013l-14.87,165.351ZM5592.8,2091.62l165.911,-5.924l-0.013,-0.352l-165.912,5.925l165.964,-3.985c-0.781,-34.466 -10.469,-67.89 -26.706,-96.315c-16.237,-28.515 -38.828,-52.409 -65.976,-70.182l-90.86,138.945l134.974,96.667c24.584,-34.362 38.281,-75.768 38.308,-119.245c0.013,-22.552 -3.776,-45.56 -11.446,-67.5l-0.052,-0.156c-21.054,-59.922 -56.055,-113.333 -102.344,-156.602l-0.039,-0.039c-19.388,-18.112 -42.083,-32.122 -65.937,-41.289c-23.867,-9.205 -48.867,-13.711 -73.685,-13.711c-14.076,0 -28.138,1.446 -42.005,4.349l34.01,162.5l163.803,-27.044c-5.248,-31.667 -17.761,-61.641 -36.941,-87.813c-19.101,-26.145 -45.299,-48.463 -76.081,-63.268l-0.065,-0.039c-25.911,-12.513 -53.554,-22.37 -82.135,-28.919c-28.568,-6.563 -58.008,-9.818 -87.292,-9.805c-4.192,0 -8.411,0.065 -12.643,0.209c-91.146,2.838 -162.63,78.085 -160.807,169.257l0.781,38.724l165.976,-3.32l-166.015,0l0,0.039l166.015,0l-5.351,-165.924c-11.901,0.377 -23.008,1.38 -33.242,2.682l21.08,164.674l161.42,-38.802l-131.185,31.537l132.148,-27.214c-0.078,-0.39 -0.364,-1.849 -0.963,-4.323l-131.185,31.537l132.148,-27.214l0,-0.013c-0.299,-0.989 -1.601,-9.635 -6.614,-24.258c-14.493,-41.705 -42.214,-76.849 -76.133,-100.377c-33.945,-23.646 -74.531,-36.797 -117.162,-36.836c-22.499,-0.013 -45.507,3.763 -67.486,11.458l0.247,-0.091c-8.998,3.125 -16.797,6.25 -23.594,9.128l64.597,152.929l146.445,-78.19c-58.399,-109.153 -169.492,-284.414 -355.404,-448.385l-109.739,124.57l123.398,-111.055c-8.581,-9.505 -76.328,-82.708 -210.273,-165.234c-133.802,-82.5 -334.245,-173.958 -603.776,-218.242l-13.021,-1.615c-3.88,-0.325 -40.69,-3.307 -100.43,-3.307c-64.596,0.013 -155.977,3.45 -261.875,17.93c-105.898,14.531 -226.419,39.987 -349.284,85.481l57.695,155.664l156.797,54.584c16.849,-48.451 36.654,-99.779 58.112,-146.758c21.328,-46.914 44.701,-89.57 65.716,-119.232l1.146,-1.653l-3.32,-2.279l3.32,2.291l0,-0.012l-3.32,-2.279l3.32,2.291c1.328,-1.978 47.8,-69.179 108.529,-144.01c30.287,-37.357 64.167,-76.615 96.458,-109.727c16.107,-16.549 31.784,-31.536 45.899,-43.801c14.049,-12.253 26.64,-21.759 35.273,-27.292c5.808,-3.763 14.193,-10.104 19.388,-14.675l-50.169,-57.096l49.844,57.383l0.325,-0.287l-50.169,-57.096l49.844,57.383c0.169,-0.182 28.372,-24.519 70.299,-52.656l-92.604,-137.787l-142.318,85.482c18.334,30.521 41.003,59.049 68.034,84.349l-0.091,-0.078c19.362,18.164 42.031,32.239 65.911,41.484c23.92,9.271 49.024,13.841 74.037,13.854c14.075,-0.013 28.125,-1.458 41.953,-4.349l-34.01,-162.487l-163.829,26.849c5.209,31.667 17.696,61.654 36.81,87.826c19.063,26.146 45.17,48.463 75.86,63.32l0.065,0.026c52.799,25.729 111.68,39.18 170.286,39.063c3.88,0 8.191,-0.052 12.904,-0.209l-1.224,0.026c34.297,-0.872 67.383,-10.521 95.638,-26.627c28.32,-16.107 52.187,-38.529 70.039,-65.665l-138.776,-91.132l-96.979,134.739c34.323,24.688 75.872,38.581 119.648,38.607c22.422,0.013 45.339,-3.75 67.162,-11.341l0.026,0c59.922,-20.885 113.411,-55.703 156.823,-101.888c18.242,-19.427 32.344,-42.175 41.588,-66.081c9.271,-23.945 13.828,-49.023 13.828,-73.997c0,-13.946 -1.419,-27.813 -4.231,-41.446l-162.591,33.555l26.588,163.868c31.706,-5.157 61.771,-17.618 88.008,-36.758c26.211,-19.076 48.568,-45.235 63.411,-75.925l-0.052,0.117c25.859,-52.916 39.362,-111.94 39.245,-170.664c0,-4.167 -0.065,-8.32 -0.195,-12.461l-0.026,-0.716l-0.013,-0.365l-165.912,5.938l165.964,-3.984c-0.782,-34.414 -10.43,-67.813 -26.667,-96.263c-16.237,-28.529 -38.854,-52.474 -66.055,-70.274l-90.807,138.985l135,96.627c24.557,-34.349 38.242,-75.716 38.281,-119.192c0.013,-22.605 -3.802,-45.678 -11.51,-67.657l0,-0.013c-21.055,-59.922 -56.042,-113.333 -102.331,-156.601l-0.039,-0.039c-19.427,-18.139 -42.136,-32.136 -65.977,-41.303c-23.854,-9.192 -48.828,-13.697 -73.671,-13.697c-14.063,0 -28.125,1.445 -42.006,4.349l34.024,162.499l163.828,-26.874c-5.235,-31.797 -17.8,-61.849 -37.005,-88.047c-19.141,-26.159 -45.339,-48.438 -76.107,-63.229l0.065,0.026c-52.643,-25.534 -111.302,-38.867 -169.674,-38.75c-3.868,0 -8.178,0.052 -12.852,0.208c-90.625,3.034 -162.265,78.646 -160.416,169.31l0.794,38.724l165.976,-3.373l-166.015,0l0,0.027l166.015,0l-5.52,-165.925c-11.68,0.39 -22.748,1.367 -33.035,2.682l21.029,164.675l161.771,-37.331l-126.732,29.245l127.513,-25.651c-0.039,-0.196 -0.286,-1.407 -0.781,-3.594l-126.732,29.245l127.513,-25.651l-1.588,0.312l1.588,-0.312l-1.588,0.312l1.588,-0.312c-0.195,-0.43 -1.458,-9.388 -6.601,-24.544l-0.196,-0.56c-14.518,-41.667 -42.213,-76.771 -76.119,-100.287c-33.933,-23.633 -74.519,-36.797 -117.162,-36.836c-22.513,-0.013 -45.534,3.776 -67.526,11.459l0.013,0c-59.935,21.002 -113.372,55.963 -156.654,102.174l-0.065,0.078c-18.112,19.362 -32.122,42.005 -41.315,65.847c-9.231,23.867 -13.789,48.919 -13.789,73.867c0,14.114 1.458,28.229 4.388,42.148l162.461,-34.167l-26.927,-163.815c-31.667,5.209 -61.667,17.722 -87.877,36.902c-26.186,19.101 -48.516,45.325 -63.334,76.106l0.065,-0.13c-25.651,52.747 -39.023,111.523 -38.906,169.987c0,3.581 0.039,7.747 0.182,12.474l0.156,3.802l0.052,0.937l-0.064,-1.289c1.158,24.466 6.614,44.102 11.08,57.097l156.992,-53.985l-25.898,-163.971c-49.206,7.773 -108.359,17.982 -168.997,30.599c-60.756,12.682 -122.618,27.513 -179.935,46.081l51.328,157.89l-47.318,-159.14c-4.987,1.536 -99.375,29.661 -223.424,85.937l68.632,151.159l8.386,-165.807c-17.396,-0.873 -34.961,-1.25 -52.774,-1.25c-58.255,0.026 -119.466,3.932 -184.882,9.141c-65.365,5.234 -134.818,11.874 -208.151,17.994c-122.644,10.274 -218.855,20.209 -297.123,32.956c-39.232,6.432 -74.063,13.529 -106.836,22.76c-32.812,9.427 -63.789,20.417 -96.328,39.401l84.388,142.956l166.029,0l0,-5.898c0,-43.711 -17.709,-86.472 -48.62,-117.383c-30.925,-30.911 -73.672,-48.62 -117.409,-48.62l-0.104,0l0,166.003l165.937,4.804c0.04,-1.575 0.196,-5.221 0.196,-10.742c-0.013,-20.625 -1.719,-40.651 -5.248,-60.599c-2.682,-14.974 -6.38,-29.895 -11.732,-45.351c-4.049,-11.589 -9.01,-23.49 -15.742,-36.094c-5.078,-9.44 -11.146,-19.297 -19.036,-29.636c-11.849,-15.364 -27.8,-32.421 -52.344,-47.76c-12.239,-7.578 -26.693,-14.531 -43.06,-19.531c-16.341,-5.013 -34.557,-7.943 -52.929,-7.917c-14.493,-0.013 -28.946,1.784 -42.409,5.052c-25.378,6.107 -46.706,17.096 -63.112,28.737c-14.466,10.235 -25.547,20.99 -34.505,31.263c-15.612,18.086 -25.17,34.766 -32.631,50.352c-10.963,23.372 -17.057,44.778 -21.302,66.302c-4.127,21.471 -6.081,42.969 -6.093,65.182c0,5.169 0.13,9.167 0.221,11.81l165.911,-5.872l0,-166.003l-0.117,0c-43.724,0 -86.484,17.709 -117.396,48.62c-30.911,30.911 -48.619,73.672 -48.619,117.383l0,5.898l166.015,0l84.375,-142.956c-32.526,-18.997 -63.529,-29.986 -96.315,-39.401c-24.596,-6.94 -50.299,-12.63 -78.203,-17.786c-41.81,-7.708 -88.581,-14.206 -142.357,-20.352c-53.75,-6.119 -114.453,-11.822 -183.385,-17.578c-73.269,-6.12 -142.683,-12.747 -208.008,-17.981c-65.391,-5.209 -126.576,-9.115 -184.805,-9.141c-57.474,0.169 -112.044,3.398 -168.047,16.992c-27.968,6.914 -56.484,16.68 -84.961,31.68c-28.372,14.921 -56.758,35.56 -80.885,62.408l123.359,111.094l30.899,-163.099c-84.675,-16.041 -137.93,-20.638 -142.708,-21.041l-13.712,165.442l19.844,-164.817c-73.515,-8.855 -145.377,-12.722 -214.87,-12.722c-164.804,0.026 -316.25,21.667 -446.224,50.717c-129.987,29.075 -238.58,65.624 -317.89,96.38l60.065,154.765l142.812,-84.661c-18.737,-31.589 -41.979,-60.886 -69.687,-86.745l0.013,0.013c-19.492,-18.216 -42.266,-32.226 -66.12,-41.367c-23.88,-9.193 -48.815,-13.659 -73.581,-13.659c-13.997,0 -27.968,1.419 -41.757,4.284l33.789,162.539l163.802,-27.031c-5.248,-31.706 -17.787,-61.706 -36.992,-87.891c-19.128,-26.146 -45.352,-48.438 -76.133,-63.229l0.065,0.026c-25.925,-12.513 -53.568,-22.383 -82.136,-28.932c-28.567,-6.576 -58.007,-9.818 -87.278,-9.805c-4.232,0 -8.464,0.065 -12.709,0.195c-91.132,2.865 -162.617,78.125 -160.781,169.284l0.781,38.737l165.977,-3.359l-166.016,0l0,0.026l166.016,0l-5.521,-165.912c-11.666,0.391 -22.721,1.354 -33.073,2.682l21.081,164.675l161.589,-38.073l-126.849,29.883l127.656,-26.25c-0.052,-0.234 -0.287,-1.445 -0.807,-3.633l-126.849,29.883l127.656,-26.25l-16.172,3.32l16.172,-3.307l0,-0.013l-16.172,3.32l16.172,-3.307c-0.169,-0.325 -1.432,-9.023 -6.472,-23.867l-0.143,-0.417c-14.479,-41.68 -42.148,-76.81 -76.067,-100.364c-33.933,-23.673 -74.545,-36.863 -117.227,-36.888c-22.539,-0.014 -45.586,3.776 -67.578,11.484l0.065,-0.026c-59.922,20.99 -113.372,55.937 -156.706,102.226l0.052,-0.052c-18.151,19.375 -32.2,42.083 -41.406,65.951c-9.245,23.893 -13.776,48.945 -13.776,73.854c0,14.05 1.445,28.099 4.336,41.94l162.5,-33.984l-26.94,-163.802c-31.667,5.221 -61.68,17.734 -87.865,36.901c-26.159,19.101 -48.463,45.273 -63.268,75.976l-0.026,0.039c-25.599,52.683 -38.997,111.433 -38.88,169.948c0,3.867 0.052,8.177 0.208,12.904l0.039,0.924l0.091,2.305c1.563,33.516 11.524,65.847 27.657,93.386c16.132,27.617 38.255,50.781 64.7,68.111l90.951,-138.88l-134.844,-96.849c-24.649,34.362 -38.451,75.82 -38.49,119.506c-0.026,22.434 3.737,45.39 11.38,67.304l0.013,0.013c20.925,59.922 55.821,113.412 102.084,156.797l-0.065,-0.065c19.401,18.203 42.096,32.266 65.976,41.498c23.907,9.257 48.985,13.827 73.985,13.827c14.036,0 28.06,-1.445 41.875,-4.323l-33.946,-162.512l-163.841,26.784c5.183,31.666 17.669,61.692 36.823,87.903c19.076,26.185 45.235,48.516 75.964,63.36l-0.052,-0.013c52.786,25.728 111.692,39.179 170.312,39.062c3.867,0 8.164,-0.052 12.904,-0.221l-1.25,0.039c34.271,-0.873 67.383,-10.521 95.651,-26.628c28.333,-16.12 52.174,-38.542 69.987,-65.599l-138.724,-91.198l-96.992,134.74c34.31,24.687 75.872,38.58 119.648,38.607c22.435,0.012 45.326,-3.751 67.135,-11.329l0.04,-0.012c59.947,-20.886 113.45,-55.717 156.849,-101.902l-0.013,0.013c18.255,-19.427 32.356,-42.174 41.601,-66.081c9.271,-23.945 13.828,-49.036 13.828,-73.997c0,-13.919 -1.419,-27.812 -4.245,-41.497l-162.591,33.607l26.589,163.867c31.705,-5.156 61.758,-17.617 87.995,-36.745c26.197,-19.049 48.554,-45.182 63.411,-75.873l0.026,-0.038c19.284,-39.623 31.823,-82.643 36.719,-126.472l-164.974,-18.58l-5.078,165.937c165.599,4.987 316.705,37.175 424.739,68.177c54.024,15.469 97.292,30.547 126.329,41.471c14.518,5.469 25.481,9.883 32.46,12.774c3.49,1.445 5.99,2.513 7.435,3.138l1.381,0.599l0.091,0.039l40.82,-91.654l-41.146,91.511l0.326,0.143l40.82,-91.654l-41.146,91.511l68.073,-151.42l-83.437,143.529c219.83,127.904 344.804,251.641 415.559,341.341l130.417,-102.708l36.068,-162.057c-175.677,-39.024 -321.315,-44.766 -396.042,-44.818c-31.68,0 -50.599,1.068 -53.607,1.25l-3.502,0.26c-148.646,12.214 -279.284,44.818 -390.873,87.149c-167.513,63.515 -291.94,148.476 -375.442,218.711c-83.555,70.338 -126.589,126.08 -132.578,133.984l0.625,-0.833c-65.157,85.195 -114.102,169.557 -150.508,248.711c-36.433,79.179 -60.378,153.125 -75.99,217.838l161.38,38.972l17.487,-165.092c-13.372,-1.419 -27.382,-2.239 -41.888,-2.239c-4.166,0 -8.424,0.065 -12.734,0.208c-90.625,3.021 -162.292,78.646 -160.443,169.297l0.781,38.737l165.99,-3.385l-166.016,0l0,0.026l166.016,0l-5.703,-165.912c-11.432,0.391 -22.305,1.341 -32.539,2.63l20.729,164.714l161.406,-38.802l-129.739,31.185l130.664,-27.123c-0.078,-0.325 -0.352,-1.705 -0.925,-4.062l-129.739,31.185l130.664,-27.123l-45.547,9.453l45.56,-9.387l-0.013,-0.066l-45.547,9.453l45.56,-9.387c-0.13,-0.066 -1.42,-9.063 -6.667,-24.271l0.091,0.247c-14.479,-41.706 -42.174,-76.849 -76.107,-100.391c-33.945,-23.671 -74.544,-36.836 -117.2,-36.875c-22.487,-0.013 -45.495,3.763 -67.448,11.433l-0.065,0.026c-59.935,21.002 -113.359,55.95 -156.68,102.213l-0.078,0.078c-18.086,19.362 -32.096,42.019 -41.289,65.873c-9.232,23.867 -13.776,48.919 -13.776,73.841c0,14.049 1.445,28.086 4.336,41.927l162.5,-33.971l-26.706,-163.855c-31.797,5.196 -61.862,17.735 -88.086,36.928c-26.185,19.114 -48.489,45.299 -63.307,76.054l0.013,-0.039c-25.612,52.696 -38.997,111.459 -38.88,169.961c0,3.867 0.039,8.034 0.182,12.487l0.052,1.484l0.039,0.938l0.052,1.12c1.55,33.568 11.524,65.95 27.657,93.489c16.132,27.618 38.216,50.73 64.531,68.021l91.12,-138.789l-134.792,-96.927c-24.714,34.414 -38.503,75.885 -38.542,119.57c-0.013,22.461 3.75,45.443 11.407,67.37l-0.014,-0.052c20.938,59.948 55.834,113.425 102.045,156.771l0.052,0.065c19.349,18.112 41.979,32.162 65.846,41.406c23.893,9.258 48.985,13.828 74.024,13.828c14.101,0 28.19,-1.458 42.031,-4.349l-34.089,-162.486l-163.854,26.679c5.183,31.719 17.669,61.784 36.823,87.995c19.076,26.185 45.195,48.489 75.873,63.333l0.078,0.039c52.786,25.717 111.666,39.167 170.286,39.05c4.154,0 8.307,-0.065 12.461,-0.196l-0.729,0.014c34.271,-0.886 67.344,-10.547 95.573,-26.641c28.307,-16.107 52.148,-38.49 69.974,-65.56l-138.711,-91.224l-96.875,134.831c34.297,24.609 75.729,38.463 119.531,38.515c22.461,0.014 45.43,-3.763 67.344,-11.406l-0.208,0.078c60.013,-20.898 113.489,-55.742 156.861,-101.888l0.013,0c18.269,-19.453 32.37,-42.213 41.615,-66.133c9.271,-23.958 13.815,-49.036 13.815,-73.971c0,-13.893 -1.406,-27.76 -4.232,-41.419l-162.591,33.528l26.524,163.894c31.666,-5.144 61.744,-17.578 88.021,-36.732c26.224,-19.076 48.606,-45.248 63.476,-75.964l-0.013,0.026c25.781,-52.825 39.31,-111.822 39.193,-170.585c0,-3.868 -0.052,-8.165 -0.209,-12.891l-0.013,-0.274l-0.013,-0.364l-165.911,5.924l165.963,-3.971c-0.768,-34.453 -10.455,-67.891 -26.705,-96.354c-16.263,-28.529 -38.88,-52.435 -66.042,-70.196l-90.781,138.998l135.026,96.602c24.531,-34.337 38.216,-75.665 38.255,-119.18c0.013,-22.591 -3.789,-45.69 -11.523,-67.709l0.013,0.039c-14.18,-40.455 -34.74,-77.473 -60.183,-110.273l-131.171,101.745l115.052,119.687c131.731,-126.51 246.809,-194.322 338.346,-231.549c91.601,-37.083 160.378,-43.958 201.732,-44.05c18.177,0 30.976,1.407 37.747,2.383c3.386,0.495 5.26,0.886 5.521,0.951l0.026,0l17.838,-80.703l-22.005,79.635c2.67,0.742 4.037,1.042 4.167,1.068l17.838,-80.703l-22.005,79.635l5.782,1.484c82.513,19.701 143.645,48.086 190.963,79.545c35.482,23.672 63.334,49.257 86.172,75.807c34.141,39.766 57.07,82.174 72.617,122.435c15.534,40.143 23.36,77.929 27.005,105.286l164.532,-22.083l-38.998,-161.38c-3.138,0.768 -5.234,1.302 -6.224,1.562c-39.765,10.417 -74.596,35.534 -97.044,69.974c-13.685,21.003 -25.325,42.539 -34.726,64.518l152.643,65.287l-35.013,-162.279c-7.539,1.628 -12.005,2.67 -13.112,2.943c-50.156,11.953 -91.485,46.068 -112.748,93.047c-26.211,57.63 -38.724,115.859 -38.606,169.323c-0.026,36.51 5.677,70.39 14.596,99.739c13.398,44.167 33.477,77.878 51.146,101.537c17.773,23.724 33.307,37.838 40.82,44.245c29.805,25.247 67.123,39.075 106.185,39.336l928.698,6.197l923.021,0c49.232,0 95.482,-21.549 127.135,-59.257c7.136,-8.581 26.394,-32.865 45.196,-73.477c9.348,-20.299 18.515,-44.714 25.403,-73.099c6.875,-28.346 11.406,-60.651 11.406,-95.911c0.039,-42.539 -6.731,-89.258 -22.538,-136.979c-17.748,-53.751 -61.55,-94.675 -116.381,-108.751c-0.625,-0.156 -3.255,-0.833 -7.5,-1.861l-39.154,161.341l154.61,-60.495c-8.203,-20.977 -18.451,-41.55 -30.56,-61.641l-142.2,85.664l161.289,39.323c14.492,-59.791 41.34,-150.781 82.148,-237.669c20.325,-43.451 44.062,-85.781 70.325,-122.695c26.251,-36.993 54.922,-68.334 84.337,-91.654c7.669,-6.094 12.773,-10.859 19.375,-18.099l-68.23,-62.214l66.094,64.493c0.195,-0.209 0.911,-0.938 2.136,-2.279l-68.23,-62.214l66.094,64.493l-7.266,-7.084l7.201,7.149l0.065,-0.065l-7.266,-7.084l7.201,7.149c0.312,-0.352 28.177,-28.138 83.229,-55.117c27.565,-13.542 61.992,-27.006 103.959,-37.188c41.966,-10.169 91.51,-17.096 149.895,-17.109c37.227,0 78.06,2.825 122.826,9.609l24.258,-160.052l-24.388,160.039l0.143,0.013l24.245,-160.052l-24.388,160.039l9.375,-61.523l-9.558,61.484l0.183,0.039l9.375,-61.523l-9.558,61.484c0.013,0.013 4.831,0.755 13.881,2.435c31.692,5.846 114.765,23.099 218.294,57.943c103.541,34.739 227.331,87.317 340.56,161.028l90.481,-139.193l-165.442,13.79l0.026,0.299l165.443,-13.776l-27.045,-163.802c-31.679,5.234 -61.666,17.773 -87.812,36.94c-26.12,19.089 -48.36,45.195 -63.165,75.807l-0.077,0.157c-25.599,52.695 -38.998,111.445 -38.88,169.961c0,4.166 0.064,8.32 0.195,12.46l0.052,1.602l0.039,0.938l0.052,1.041c1.549,33.594 11.536,65.951 27.669,93.477c16.133,27.604 38.203,50.729 64.597,68.047l91.028,-138.828l-134.792,-96.914c-24.7,34.401 -38.489,75.885 -38.528,119.544c-0.013,22.5 3.763,45.521 11.458,67.5l-0.078,-0.235c20.938,60.026 55.86,113.516 102.07,156.862l-0.091,-0.078c19.349,18.164 42.045,32.253 65.938,41.511c23.919,9.284 49.036,13.854 74.036,13.854c14.115,0 28.19,-1.458 42.006,-4.349l-34.037,-162.487l-163.828,26.836c5.195,31.601 17.643,61.601 36.784,87.825c19.075,26.172 45.26,48.542 76.015,63.386l-0.039,-0.013c52.734,25.69 111.589,39.166 170.248,39.049c3.58,0 8.046,-0.026 13.359,-0.221l-6.107,-165.899l4.349,165.951c34.336,-0.859 67.461,-10.521 95.729,-26.641c28.334,-16.119 52.188,-38.528 70.013,-65.651l-138.763,-91.132l-96.862,134.817c34.271,24.609 75.743,38.477 119.545,38.529c22.409,0.013 45.312,-3.75 67.135,-11.341c59.974,-20.886 113.477,-55.73 156.875,-101.888l0.117,-0.131c18.191,-19.401 32.253,-42.122 41.472,-66.015c9.258,-23.907 13.815,-48.985 13.815,-73.932c0,-13.946 -1.42,-27.826 -4.232,-41.459l-162.591,33.568l26.68,163.854c31.666,-5.169 61.705,-17.63 87.916,-36.758c26.185,-19.049 48.503,-45.156 63.359,-75.794l0.027,-0.052c25.833,-52.878 39.336,-111.862 39.231,-170.625c0,-4.167 -0.065,-8.32 -0.195,-12.461l-0.026,-0.716l-165.911,5.924l-165.938,5.209l0.039,2.044c-0.117,9.857 -1.771,16.875 -5.82,25.469l0.026,-0.053l114.466,55.691l-75.052,-102.787c-16.289,11.823 -30.287,28.255 -39.414,47.096l114.466,55.691l-75.052,-102.787l74.948,102.643l-20.43,-125.455c-19.635,3.216 -38.203,10.911 -54.518,22.812l74.948,102.643l-20.43,-125.455c-44.388,7.226 -84.557,32.669 -110.065,69.726c-25.508,37.045 -34.935,83.646 -25.846,127.695l124.362,-25.663l-126.979,0c0,8.645 0.885,17.226 2.617,25.663l124.362,-25.663l-126.979,0l127.239,0l-118.659,-45.938c-5.768,14.909 -8.58,30.482 -8.58,45.938l127.239,0l-118.659,-45.938l118.672,45.938l-92.903,-86.967c-11.199,11.927 -20.027,26.146 -25.769,41.029l118.672,45.938l-92.903,-86.967l0.116,-0.13c-6.328,6.836 -15.208,12.552 -23.593,15.391l41.732,120.247l0.013,-127.266c-13.998,-0.026 -28.334,2.357 -41.745,7.019l41.732,120.247l0.013,-127.266l0,127.123l74.192,-103.268c-21.197,-15.209 -46.823,-23.815 -74.192,-23.855l0,127.123l74.192,-103.268c-36.536,-26.237 -82.903,-36.602 -127.135,-28.412c-44.232,8.203 -83.802,34.505 -108.503,72.11l106.289,69.791l-62.825,-110.547c-17.63,10.04 -32.37,23.894 -43.464,40.756l106.289,69.791l-62.825,-110.547l62.969,110.795l-3.347,-127.396c-21.237,0.521 -42.07,6.575 -59.622,16.601l62.969,110.795l-3.347,-127.396l-1.758,0.052l0.625,16.927l-0.429,-16.927l-0.196,0l0.625,16.927l-0.429,-16.927l-1.341,0c-9.792,-0.117 -16.771,-1.732 -25.43,-5.807l-0.039,-0.013l-55.547,114.661l102.852,-75.169c-11.837,-16.302 -28.334,-30.352 -47.305,-39.492l-55.547,114.661l102.852,-75.169l-102.566,74.974l125.378,-20.547c-3.216,-19.583 -10.898,-38.099 -22.812,-54.427l-102.566,74.974l125.378,-20.547c-7.37,-45.013 -32.344,-84.297 -69.948,-110.078c-37.617,-25.794 -83.268,-34.922 -127.904,-25.573l26.055,124.427l0,-127.122c-8.776,0 -17.5,0.911 -26.055,2.695l26.055,124.427l0,-127.122l0,127.408l46.094,-118.776c-14.948,-5.794 -30.573,-8.632 -46.094,-8.632l0,127.408l46.094,-118.776l-46.068,118.698l87.097,-92.89c-11.901,-11.185 -26.107,-20.039 -41.029,-25.808l-46.068,118.698l87.097,-92.89l-0.092,-0.079c-6.836,-6.328 -12.552,-15.195 -15.364,-23.502l-0.078,-0.234l-120.209,41.992l127.318,0c0.013,-14.037 -2.37,-28.464 -7.109,-41.992l-120.209,41.992l127.318,0l-127.226,0l103.32,74.271c15.312,-21.329 23.867,-46.993 23.906,-74.271l-127.226,0l103.32,74.271c26.25,-36.524 36.64,-82.982 28.424,-127.214c-8.216,-44.219 -34.583,-83.867 -72.2,-108.529l-69.714,106.329l109.805,-64.102c-10.052,-17.175 -23.698,-31.458 -40.091,-42.227l-69.714,106.329l109.805,-64.102l-110.013,64.232l127.252,-6.029c-0.937,-20.729 -7.2,-41.094 -17.239,-58.203l-110.013,64.232l127.252,-6.029l0.052,1.042l-0.038,-0.938l0.052,1.602l-0.026,-2.031c0.117,-9.844 1.745,-16.823 5.768,-25.404l-0.078,0.156l-114.466,-55.508l75.221,102.578c16.237,-11.849 30.169,-28.255 39.245,-47.07l-114.466,-55.508l75.221,102.578l-75.156,-102.487l20.69,125.391c19.661,-3.255 38.203,-11.002 54.466,-22.904l-75.156,-102.487l20.69,125.391c85.507,-14.114 145.599,-91.224 138.411,-177.578l-0.026,-0.312c-4.284,-51.381 -31.731,-97.292 -74.961,-125.404c-168.463,-109.31 -341.406,-175.469 -473.646,-215.925c-132.239,-40.286 -224.049,-54.401 -229.987,-55.325c-60.846,-9.219 -118.45,-13.359 -172.578,-13.359c-92.005,-0.027 -173.958,12.005 -244.752,30.65c-106.276,27.943 -187.11,70.56 -242.448,107.735c-55.43,37.239 -85.69,68.971 -93.034,77.005l122.669,111.849l-103.294,-129.961c-59.362,47.24 -107.813,102.227 -148.373,159.232c-60.742,85.638 -104.218,176.25 -136.862,259.336c-32.513,83.112 -53.919,158.867 -67.551,214.726c-10.365,42.474 -3.477,87.54 19.075,124.987c3.151,5.235 4.87,8.998 5.768,11.289c19.818,50.665 62.591,88.021 115.456,100.847c1.328,0.338 2.305,0.573 2.878,0.703l0.533,0.143l0.013,0l25.573,-100.299l-25.716,100.26l0.143,0.039l25.573,-100.299l-25.716,100.26l41.25,-160.807l-157.63,52.057c4.648,14.245 5.729,24.466 5.781,32.865c-0.013,6.927 -0.859,12.669 -2.07,17.695c-1.784,7.461 -4.596,13.333 -6.094,15.951l-0.755,1.275l0.352,0.222l-0.339,-0.234l-0.013,0.012l0.352,0.222l-0.339,-0.234l65.052,44.778l-60.404,-50.703c-3.033,3.62 -4.336,5.469 -4.648,5.925l65.052,44.778l-60.404,-50.703l127.149,106.758l0,-166.029l-921.901,0l1.107,0.013l-928.699,-6.211l-1.119,166.016l107.304,-126.68l-30.742,36.289l41.849,-25.13c-0.56,-0.651 -1.172,-2.604 -11.107,-11.159l-30.742,36.289l41.849,-25.13l-2.33,1.406l2.473,-1.12l-0.143,-0.286l-2.33,1.406l2.473,-1.12l-0.104,-0.403c-0.091,-0.417 -0.26,-1.198 -0.273,-3.203c0.117,-3.789 0.377,-12.904 9.088,-32.448l-151.25,-68.438l38.503,161.485l-24.258,-101.745l23.998,101.823l0.26,-0.078l-24.258,-101.745l23.998,101.823l0.26,-0.078c0.716,-0.144 2.787,-0.638 6.12,-1.354c52.617,-11.355 96.458,-47.5 117.63,-96.993c1.276,-2.994 3.568,-7.578 7.63,-13.828l-139.088,-90.638l42.057,160.599l-19.909,-76.028l19.193,76.21l0.716,-0.182l-19.909,-76.028l19.193,76.21l0.833,-0.195c82.774,-20.013 136.862,-99.049 125.534,-183.45c-5.755,-42.748 -16.641,-97.136 -37.852,-157.696c-15.924,-45.39 -37.695,-94.283 -67.643,-143.724c-44.791,-74.127 -108.542,-149.518 -195.469,-213.385c-86.796,-63.985 -196.067,-115.807 -327.968,-147.109l-38.451,161.51l44.245,-160.013c-12.214,-3.373 -56.979,-14.271 -127.604,-14.271c-80.117,-0.091 -193.646,14.375 -326.615,68.425c-133.034,53.932 -284.778,147.096 -443.568,299.843c-61.041,58.659 -68.02,154.545 -16.132,221.433c4.257,5.468 7.356,11.315 9.153,16.497l0.013,0.052l120.144,-42.109l-127.292,0c-0.013,14.088 2.383,28.542 7.148,42.109l120.144,-42.109l-127.292,0l127.174,0l-103.45,-74.011c-15.196,21.289 -23.685,46.823 -23.724,74.011l127.174,0l-103.45,-74.011c-26.172,36.589 -36.446,83.021 -28.138,127.24c8.294,44.206 34.713,83.75 72.383,108.346l69.518,-106.445l-110.495,62.891c10.13,17.773 24.128,32.539 40.977,43.554l69.518,-106.445l-110.495,62.891l110.664,-62.982l-127.318,3.047c0.469,21.185 6.524,42.239 16.654,59.935l110.664,-62.982l-127.318,3.047l0.065,1.94l0.013,0.364l-0.013,-0.286l0.013,1.602c-0.117,9.882 -1.744,16.848 -5.82,25.52l-0.013,0.026l114.597,55.638l-75.066,-102.903c-16.341,11.849 -30.403,28.359 -39.531,47.265l114.597,55.638l-75.066,-102.903l74.935,102.734l-20.312,-125.534c-19.662,3.19 -38.255,10.886 -54.623,22.8l74.935,102.734l-20.312,-125.534c-44.401,7.188 -84.636,32.63 -110.17,69.662c-25.533,37.044 -34.986,83.698 -25.898,127.747l124.362,-25.638l-126.979,0c0,8.607 0.872,17.175 2.617,25.638l124.362,-25.638l-126.979,0l127.213,0l-118.632,-45.937c-5.782,14.935 -8.581,30.494 -8.594,45.937l127.226,0l-118.632,-45.937l118.724,45.963l-92.852,-87.109c-11.25,11.966 -20.117,26.237 -25.872,41.146l118.724,45.963l-92.852,-87.109c-6.328,6.836 -15.247,12.565 -23.555,15.377l-0.208,0.079l41.901,120.26l0,-127.344c-14.023,-0.013 -28.411,2.37 -41.901,7.084l41.901,120.26l0,-127.344l0,127.149l74.206,-103.282c-21.224,-15.221 -46.81,-23.828 -74.206,-23.867l0,127.149l74.206,-103.282c-36.524,-26.25 -82.852,-36.614 -127.084,-28.424c-44.231,8.19 -83.776,34.453 -108.502,72.031l106.224,69.844l-62.813,-110.521c-17.591,10.026 -32.317,23.854 -43.411,40.677l106.224,69.844l-62.813,-110.521l62.917,110.716l-3.451,-127.305c-21.158,0.534 -41.94,6.576 -59.466,16.589l62.917,110.716l-3.451,-127.305l-0.742,0.014l-1.979,0.039c-9.87,-0.118 -16.849,-1.758 -25.443,-5.795l0.079,0.039l-55.599,114.545l102.773,-75.131c-11.849,-16.289 -28.294,-30.286 -47.174,-39.414l-55.599,114.545l102.773,-75.131l-102.643,75.026l125.495,-20.416c-3.23,-19.714 -10.938,-38.294 -22.852,-54.61l-102.643,75.026l125.495,-20.416c-7.331,-45.026 -32.331,-84.427 -69.948,-110.221c-37.605,-25.808 -83.373,-34.961 -127.995,-25.587l26.133,124.571l0,-127.292c-8.776,0 -17.526,0.912 -26.133,2.721l26.133,124.571l0,-127.292l0,127.383l46.054,-118.75c-14.896,-5.781 -30.507,-8.62 -46.054,-8.633l0,127.383l46.054,-118.75l-46.002,118.594l86.914,-92.904c-11.875,-11.133 -26.029,-19.948 -40.912,-25.69l-46.002,118.594l86.914,-92.904l0.065,0.065c-6.862,-6.341 -12.591,-15.234 -15.43,-23.594l-0.013,-0.052l-120.234,41.901l127.318,0c0.013,-14.01 -2.37,-28.411 -7.084,-41.901l-120.234,41.901l127.318,0l-127.214,0l103.294,74.284c15.326,-21.354 23.867,-46.979 23.92,-74.284l-127.214,0l103.294,74.284c26.263,-36.51 36.654,-82.942 28.451,-127.174c-8.19,-44.219 -34.518,-83.841 -72.123,-108.529l-69.752,106.237l109.765,-64.049c-10.065,-17.201 -23.711,-31.472 -40.013,-42.188l-69.752,106.237l109.765,-64.049l-110.013,64.192l127.253,-6.015c-0.937,-20.677 -7.188,-41.055 -17.24,-58.177l-110.013,64.192l127.253,-6.015l0.039,1.119l-0.039,-0.937l0.065,1.484l-0.026,-2.005c0.117,-9.87 1.732,-16.81 5.768,-25.404l0.013,-0.039l-114.674,-55.429l75.26,102.734c16.302,-11.875 30.3,-28.359 39.414,-47.305l-114.674,-55.429l75.26,102.734l-75.195,-102.63l20.469,125.573c19.778,-3.242 38.385,-10.99 54.726,-22.943l-75.195,-102.63l20.469,125.573c45.013,-7.331 84.349,-32.292 110.169,-69.896c25.807,-37.604 34.961,-83.281 25.625,-127.93l-124.401,26.016l127.096,0c0,-8.724 -0.898,-17.422 -2.695,-26.016l-124.401,26.016l127.096,0l-127.278,0l118.711,45.885c5.755,-14.882 8.567,-30.442 8.567,-45.885l-127.278,0l118.711,45.885l-118.646,-45.859l93.021,86.784c11.106,-11.875 19.895,-26.055 25.625,-40.925l-118.646,-45.859l93.021,86.784l-0.079,0.078c6.302,-6.836 15.183,-12.578 23.555,-15.43l-0.065,0.026l-41.914,-120.156l0,127.24c14.01,0.013 28.398,-2.357 41.914,-7.084l-41.914,-120.156l0,127.24l0,-127.201l-72.8,104.336c21.055,14.662 46.159,22.826 72.8,22.865l0,-127.201l-72.8,104.336l72.865,-104.427l-120.221,41.979c8.906,25.729 26.315,47.891 47.356,62.448l72.865,-104.427l-120.221,41.979l0.078,0.248l141.198,-49.545l-146.315,31.472c0.494,2.161 1.823,8.646 5.117,18.073l141.198,-49.545l-146.315,31.472l103.45,-22.253l-103.633,21.38l0.183,0.873l103.45,-22.253l-103.633,21.38l0.339,1.628c0.247,1.133 0.612,2.851 1.159,5.117c19.778,82.318 98.138,136.484 182.135,125.911c1.289,-0.156 2.096,-0.208 2.5,-0.221c89.61,-3.086 160.313,-76.25 160.313,-165.924l0,-0.026l-0.039,-3.373l-0.782,-38.737l-165.989,3.386l5.534,165.924l1.666,-0.026c2.019,0 4.258,0.104 6.914,0.391c82.696,8.75 159.349,-45.287 178.855,-126.133c11.028,-45.651 28.177,-98.945 54.869,-156.979c26.719,-58.034 62.956,-120.834 112.644,-185.821l0.638,-0.833l-69.714,-52.604l68.906,53.659l0.808,-1.055l-69.714,-52.604l68.906,53.659l0.534,-0.664c6.094,-7.696 64.102,-77.474 173.516,-148.125c54.739,-35.391 122.279,-71.146 203.203,-100.326c80.95,-29.179 175.273,-51.862 284.674,-60.885l-13.632,-165.456l10.117,165.703l-6.875,-112.63l6.484,112.656l0.391,-0.026l-6.875,-112.63l6.484,112.656l-0.729,-12.708l0.69,12.708l0.039,0l-0.729,-12.708l0.69,12.708c0.56,-0.039 12.591,-0.677 33.802,-0.664c56.901,-0.065 179.922,4.779 323.92,36.888c68.515,15.248 139.244,-14.258 176.601,-73.672c37.357,-59.427 33.307,-135.95 -10.117,-191.093c-97.11,-123.451 -256.172,-275.769 -509.531,-422.956c-5.99,-3.49 -9.05,-5.052 -15.365,-7.891c-5.638,-2.513 -84.505,-37.695 -212.135,-74.258c-127.644,-36.471 -304.102,-74.583 -505.951,-80.846c-86.628,-2.656 -160.365,61.25 -170.065,147.357c-0.781,6.536 -2.357,12.122 -5.456,18.581l0.026,-0.04l114.531,55.664l-75.065,-102.851c-16.302,11.836 -30.325,28.294 -39.466,47.187l114.531,55.664l-75.065,-102.851l74.948,102.682l-20.364,-125.482c-19.675,3.203 -38.243,10.899 -54.584,22.8l74.948,102.682l-20.364,-125.482c-44.401,7.201 -84.636,32.67 -110.144,69.714c-25.507,37.044 -34.947,83.711 -25.846,127.761l124.414,-25.717l-127.044,0c0,8.633 0.885,17.227 2.63,25.717l124.414,-25.717l-127.044,0l127.266,0l-118.659,-45.976c-5.782,14.935 -8.607,30.508 -8.607,45.976l127.266,0l-118.659,-45.976l118.711,46.002l-92.865,-87.122c-11.237,11.953 -20.091,26.211 -25.846,41.12l118.711,46.002l-92.865,-87.122l-0.013,0.026c-6.302,6.81 -15.195,12.539 -23.581,15.377l0.039,-0.012l41.706,120.182l0,-127.201c-14.01,-0.013 -28.333,2.37 -41.706,7.019l41.706,120.182l0,-127.201l0,127.214l74.323,-103.268c-21.237,-15.274 -46.966,-23.907 -74.323,-23.946l0,127.214l74.323,-103.268c-36.51,-26.276 -82.917,-36.68 -127.148,-28.516c-44.232,8.177 -83.855,34.479 -108.568,72.057l106.237,69.831l-62.8,-110.521c-17.63,10.039 -32.369,23.893 -43.437,40.69l106.237,69.831l-62.8,-110.521l62.93,110.755l-3.398,-127.343c-21.159,0.52 -41.98,6.562 -59.532,16.588l62.93,110.755l-3.398,-127.343l-1.25,0.026l-1.55,0.026c-9.883,-0.117 -16.823,-1.745 -25.417,-5.781l-0.039,-0.027l-55.546,114.61l102.786,-75.169c-11.849,-16.289 -28.32,-30.313 -47.24,-39.441l-55.546,114.61l102.786,-75.169l-102.604,75.039l125.455,-20.508c-3.229,-19.649 -10.924,-38.203 -22.851,-54.531l-102.604,75.039l125.455,-20.508c-7.252,-44.388 -32.812,-84.649 -69.895,-110.104c-37.097,-25.456 -83.854,-34.831 -127.891,-25.626l26.016,124.519l0,-127.214c-8.724,0 -17.435,0.899 -26.016,2.695l26.016,124.519l0,-127.214l0,127.318l46.002,-118.711c-14.922,-5.768 -30.495,-8.607 -46.002,-8.607l0,127.318l46.002,-118.711l-46.002,118.711l87.044,-92.917c-11.94,-11.211 -26.159,-20.039 -41.042,-25.794l-46.002,118.711l87.044,-92.917l-0.065,-0.065c-6.81,-6.276 -12.539,-15.156 -15.404,-23.555l0.013,0.014l-120.234,41.862l127.304,0c0.014,-13.998 -2.356,-28.373 -7.07,-41.862l-120.234,41.862l127.304,0l-127.161,0l103.294,74.192c15.261,-21.289 23.815,-46.901 23.867,-74.192l-127.161,0l103.294,74.192c26.25,-36.536 36.615,-83.021 28.373,-127.239c-8.229,-44.232 -34.636,-83.855 -72.266,-108.503l-69.674,106.406l109.843,-64.101c-10.052,-17.201 -23.737,-31.537 -40.169,-42.305l-69.674,106.406l109.843,-64.101l-109.974,64.179l127.214,-6.093c-0.951,-20.639 -7.188,-40.964 -17.24,-58.086l-109.974,64.179l127.214,-6.093l-165.833,7.942l165.924,-5.651l-0.026,-0.924l-0.026,-1.615c0.117,-9.831 1.745,-16.823 5.781,-25.416l-0.026,0.039l-114.609,-55.456l75.247,102.695c16.263,-11.862 30.261,-28.333 39.362,-47.239l-114.609,-55.456l75.247,102.695l-75.13,-102.526l20.625,125.417c19.649,-3.242 38.19,-10.964 54.505,-22.891l-75.13,-102.526l20.625,125.417c44.388,-7.292 84.57,-32.852 110,-69.961c25.43,-37.097 34.766,-83.802 25.56,-127.826l-124.401,26.016l127.096,0c0,-8.724 -0.898,-17.422 -2.695,-26.016l-124.401,26.016l127.096,0l-127.304,0l118.724,45.911c5.768,-14.921 8.58,-30.481 8.58,-45.911l-127.304,0l118.724,45.911l-118.737,-45.924l93.007,86.953c11.172,-11.914 20,-26.133 25.73,-41.029l-118.737,-45.924l93.007,86.953l0.052,-0.052c6.277,-6.81 15.144,-12.539 23.529,-15.403l0.065,-0.027l-42.018,-120.143l0,127.266c14.062,0.013 28.49,-2.37 42.018,-7.123l-42.018,-120.143l0,127.266l0,-127.227l-72.839,104.336c21.055,14.675 46.172,22.865 72.839,22.891l0,-127.227l-72.839,104.336l72.891,-104.401l-120.221,41.979c8.893,25.716 26.289,47.865 47.33,62.422l72.891,-104.401l-120.221,41.979l-0.157,-0.416l140.951,-48.803l-145.872,31.238c0.481,2.161 1.77,8.372 4.921,17.565l140.951,-48.803l-145.872,31.238l104.518,-22.383l-104.701,21.484l0.183,0.899l104.518,-22.383l-104.701,21.484l0.052,0.299c0.157,0.717 0.547,2.709 1.302,5.899c19.532,82.89 98.204,137.422 182.67,126.602l1.966,-0.183c89.609,-2.981 160.482,-76.25 160.482,-165.924l0,-0.026l-0.026,-3.347l-0.782,-38.737l-165.989,3.36l5.195,165.924l2.318,-0.026c5.195,0.013 9.14,0.508 12.942,1.38c3.816,0.886 7.566,2.149 12.201,4.362l0.052,0.026l55.3,-114.739l-102.657,75.377c11.875,16.263 28.386,30.274 47.357,39.362l55.3,-114.739l-102.657,75.377l102.474,-75.247l-125.442,20.716c3.268,19.675 11.015,38.23 22.968,54.531l102.474,-75.247l-125.442,20.716c7.33,44.375 32.812,84.427 69.908,109.87c37.097,25.443 83.646,34.779 127.683,25.625l-25.821,-124.219l0,126.875c8.646,0 17.279,-0.872 25.821,-2.656l-25.821,-124.219l0,126.875l0,-127.109l-45.638,118.633c14.896,5.716 30.339,8.476 45.638,8.476l0,-127.109l-45.638,118.633l45.743,-118.907l-86.914,93.165c12.018,11.237 26.302,20.052 41.171,25.742l45.743,-118.907l-86.914,93.165l0.013,0c3.724,3.476 7.447,8.033 10.559,13.281c41.394,69.83 127.188,99.479 202.878,70.117c66.497,-25.82 159.727,-57.214 270.221,-81.901c110.495,-24.74 238.191,-42.734 373.75,-42.709c57.188,0 115.769,3.178 175.17,10.339l6.132,0.612l5.3,-63.867l-5.651,63.841l0.351,0.026l5.3,-63.867l-5.651,63.841c0.963,0.078 42.135,3.789 108.685,16.406c57.213,10.834 115.286,-8.737 154.258,-52.005l-29.701,-26.758l18.88,35.756c0.873,-0.404 5.834,-3.399 10.821,-8.998l-29.701,-26.758l18.88,35.756l-3.099,-5.86l2.93,5.951l0.169,-0.091l-3.099,-5.86l2.93,5.951l0.287,-0.118c1.601,-0.807 11.445,-4.179 28.437,-6.432c16.953,-2.37 40.716,-3.841 69.453,-3.815c42.891,-0.026 96.719,3.125 158.308,8.086c61.653,4.922 131.171,11.563 206.875,17.891c118.75,9.869 209.101,19.57 271.197,29.765c30.951,5.026 54.753,10.235 70.131,14.596c7.669,2.162 13.19,4.089 16.263,5.313c1.523,0.612 2.435,1.029 2.708,1.159l0.065,0.039l9.675,-19.193l-10.912,18.49l1.237,0.703l9.675,-19.193l-10.912,18.49c51.537,30.417 114.714,30.872 166.693,1.211c51.979,-29.675 83.711,-84.336 83.711,-144.18l0,-5.898l-166.016,0l0,166.028l0.117,0c44.974,0 88.217,-18.359 119.453,-50.729c31.237,-32.356 48.06,-76.211 46.459,-121.159l-0.026,-0.963l-38.06,0.885l38.073,0l-0.013,-0.885l-38.06,0.885l38.073,0l0.078,-2.044l0.039,-0.417l0,-0.013l-30.742,-5.026l29.453,9.792c1.067,-3.242 1.237,-4.505 1.289,-4.766l-30.742,-5.026l29.453,9.792l-74.245,-24.675l69.401,35.951c2.708,-5.261 4.024,-8.828 4.844,-11.276l-74.245,-24.675l69.401,35.951l-97.969,-50.742l88.568,65.703c4.492,-6.081 7.344,-11.003 9.401,-14.961l-97.969,-50.742l88.568,65.703l-108.958,-80.834l72.617,114.284c19.101,-12.291 29.557,-24.479 36.341,-33.45l-108.958,-80.834l72.617,114.284l-79.232,-124.7l44.193,140.95c13.776,-4.31 25.534,-10.195 35.039,-16.25l-79.232,-124.7l44.193,140.95l-45.182,-144.062l0,150.976c15.794,0.027 31.484,-2.578 45.182,-6.914l-45.182,-144.062l0,150.976l0,-151.159l-35.43,146.941c11.172,2.708 23.294,4.231 35.43,4.218l0,-151.159l-35.43,146.941l34.609,-143.516l-85.221,120.664c12.396,8.789 29.544,17.787 50.612,22.852l34.609,-143.516l-85.221,120.664l79.062,-111.94l-103.398,90.026c5.703,6.536 13.398,14.154 24.336,21.914l79.062,-111.94l-103.398,90.026l84.661,-73.711l-101.679,48.151c2.786,5.703 7.096,14.037 17.018,25.56l84.661,-73.711l-101.679,48.151l48.802,-23.112l-53.412,10.326c0.274,1.015 0.651,4.218 4.61,12.786l48.802,-23.112l-53.412,10.326l6.407,-1.237l-6.472,0.911l0.065,0.326l6.407,-1.237l-6.472,0.911c0.013,0.065 0.131,1.133 0.131,2.513l57.369,0l-57.369,-0.794l0,0.794l57.369,0l-57.369,-0.794l18.567,0.26l-18.555,-0.39l-0.012,0.13l18.567,0.26l-18.555,-0.39c0,0.052 -0.026,0.729 -0.065,2.07c-1.302,44.961 15.521,88.216 46.875,120.482c31.341,32.265 74.089,50.338 119.076,50.338l0.104,0l0,-166.028l-166.002,0l0,5.898c0,59.844 31.731,114.505 83.711,144.18c51.965,29.674 115.169,29.206 166.705,-1.224l-13.854,-23.477l12.773,24.089l1.081,-0.612l-13.854,-23.477l12.773,24.089l-4.414,-8.308l4.245,8.399l0.169,-0.091l-4.414,-8.308l4.245,8.399l0.339,-0.156c2.018,-1.016 12.838,-5.169 30.533,-9.453c26.641,-6.602 68.477,-13.906 123.503,-20.755c55.117,-6.928 123.659,-13.633 205.99,-20.495c75.755,-6.328 145.325,-12.969 207.005,-17.904c61.628,-4.961 115.482,-8.112 158.398,-8.086c13.1,0 25.157,0.287 36.003,0.833c26.224,1.328 53.138,-3.789 77.031,-14.635c51.941,-23.594 98.412,-41.523 131.237,-53.294c16.406,-5.899 29.415,-10.248 38.008,-13.047c4.297,-1.393 7.487,-2.396 9.44,-3.008l2.018,-0.625l0.274,-0.078l-21.641,-72.032l21.432,72.097l0.209,-0.065l-21.641,-72.032l21.432,72.097l4.011,-1.25c39.049,-12.748 91.666,-25.755 144.935,-36.797c53.385,-11.107 107.799,-20.534 153.164,-27.695c48.633,-7.683 90.976,-36.224 116.354,-78.412c25.378,-42.2 30.742,-92.981 14.74,-139.544l-120.157,41.315l126.758,-5.911c-0.794,-16.836 -4.505,-29.284 -6.601,-35.404l-120.157,41.315l126.758,-5.911l-0.065,-1.289l-0.052,-0.938l-165.768,9.024l165.924,-5.222c0,-0.13 -0.013,-0.794 -0.013,-2.044c0.117,-9.87 1.745,-16.836 5.742,-25.365l0.079,-0.13l-114.74,-55.391l75.287,102.761c16.289,-11.875 30.325,-28.386 39.453,-47.37l-114.74,-55.391l75.287,102.761l-75.105,-102.526l20.612,125.417c19.623,-3.243 38.164,-10.951 54.493,-22.891l-75.105,-102.526l20.612,125.417c45,-7.396 84.297,-32.409 110.066,-70.04c25.755,-37.63 34.856,-83.32 25.468,-127.955l-124.531,26.198l127.252,0c0,-8.763 -0.898,-17.526 -2.721,-26.198l-124.531,26.198l127.252,0l-127.33,0l118.75,45.95c5.755,-14.896 8.58,-30.468 8.58,-45.95l-127.33,0l118.75,45.95l-118.672,-45.924l93.021,86.849c11.133,-11.889 19.921,-26.068 25.651,-40.925l-118.672,-45.924l93.021,86.849l-0.078,0.078c6.367,-6.888 15.208,-12.591 23.58,-15.456l0.013,0l-41.979,-120.169l0,127.278c14.037,0.014 28.437,-2.369 41.979,-7.109l-41.979,-120.169l0,127.278l0,-127.174l-72.76,104.336c21.042,14.635 46.12,22.8 72.76,22.838l0,-127.174l-72.76,104.336l72.812,-104.414l-120.156,42.07c8.932,25.703 26.328,47.813 47.344,62.344l72.812,-104.414l-120.156,42.07l-0.195,-0.56l141.393,-48.945l-146.433,30.833c0.508,2.279 1.81,8.698 5.04,18.112l141.393,-48.945l-146.433,30.833l107.904,-22.721l-108.112,21.732l0.208,0.989l107.904,-22.721l-108.112,21.732l0.052,0.26c0.144,0.677 0.521,2.643 1.264,5.846c19.14,82.982 98.333,138.139 182.799,127.344c1.25,-0.156 1.836,-0.182 2.005,-0.182c89.622,-2.982 160.495,-76.263 160.495,-165.924l0,-0.027l-0.039,-3.385l-0.781,-38.724l-165.977,3.373l5.547,165.924l1.732,-0.026c9.856,0.117 16.81,1.745 25.325,5.729l0.065,0.039l55.326,-114.726l-102.669,75.351c11.901,16.289 28.385,30.274 47.343,39.375l55.326,-114.726l-102.669,75.351l102.565,-75.273l-125.547,20.586c3.255,19.778 11.029,38.372 22.982,54.687l102.565,-75.273l-125.547,20.586c7.278,44.388 32.865,84.635 69.961,110.065c37.109,25.43 83.854,34.778 127.89,25.559l-26.041,-124.335l0,127.031c8.711,0 17.422,-0.899 26.041,-2.696l-26.041,-124.335l0,127.031l0,-127.2l-45.743,118.684c14.883,5.729 30.378,8.516 45.743,8.516l0,-127.2l-45.743,118.684l45.782,-118.776l-86.81,93.112c11.953,11.172 26.172,19.961 41.028,25.664l45.782,-118.776l-86.81,93.112l-0.039,-0.039c6.836,6.289 12.591,15.182 15.443,23.542l0,-0.013l120.078,-42.031l-127.214,0c-0.013,14.101 2.396,28.528 7.136,42.031l120.078,-42.031l-127.214,0l127.227,0l-103.464,-74.063c-15.234,21.315 -23.724,46.901 -23.763,74.063l127.227,0l-103.464,-74.063c-26.185,36.576 -36.471,83.021 -28.177,127.24c8.294,44.206 34.714,83.775 72.37,108.372l69.544,-106.458l-110.547,62.838c10.117,17.774 24.115,32.578 41.003,43.62l69.544,-106.458l-110.547,62.838l110.677,-62.903l-127.278,3.046c0.455,21.172 6.497,42.175 16.601,59.857l110.677,-62.903l-127.278,3.046l0.052,1.954l0.013,0.351l-0.026,-0.716l0.039,2.044c-0.117,9.909 -1.758,16.862 -5.808,25.443l-0.052,0.104l114.584,55.625l-75.104,-102.852c-16.316,11.849 -30.352,28.321 -39.48,47.227l114.584,55.625l-75.104,-102.852l74.987,102.696l-20.365,-125.521c-19.675,3.203 -38.268,10.912 -54.622,22.825l74.987,102.696l-20.365,-125.521c-44.401,7.201 -84.609,32.656 -110.13,69.7c-25.521,37.045 -34.961,83.685 -25.873,127.735l124.375,-25.677l-126.992,0c0,8.659 0.886,17.24 2.617,25.677l124.375,-25.677l-126.992,0l127.253,0l-118.646,-45.977c-5.794,14.935 -8.607,30.521 -8.607,45.977l127.253,0l-118.646,-45.977l118.711,46.003l-92.865,-87.11c-11.237,11.954 -20.091,26.199 -25.846,41.107l118.711,46.003l-92.865,-87.11c-6.302,6.824 -15.234,12.566 -23.62,15.404l0.04,-0.013l41.718,120.208l0.013,-127.226c-14.01,-0.026 -28.346,2.357 -41.731,7.018l41.718,120.208l0.013,-127.226l0,127.201l74.323,-103.256c-21.263,-15.286 -46.966,-23.919 -74.323,-23.945l0,127.201l74.323,-103.256c-36.51,-26.289 -82.942,-36.693 -127.187,-28.515c-44.232,8.19 -83.868,34.518 -108.568,72.109l106.289,69.805l-62.812,-110.56c-17.618,10.026 -32.37,23.893 -43.477,40.755l106.289,69.805l-62.812,-110.56l62.929,110.755l-3.398,-127.344c-21.185,0.534 -41.979,6.576 -59.531,16.589l62.929,110.755l-3.398,-127.344l-1.211,0.039l-1.615,0.013c-9.843,-0.117 -16.836,-1.744 -25.416,-5.794l0.065,0.039l-55.612,114.544l102.773,-75.156c-11.823,-16.25 -28.242,-30.247 -47.161,-39.388l-55.612,114.544l102.773,-75.156l-102.565,75.013l125.391,-20.56c-3.229,-19.648 -10.938,-38.164 -22.826,-54.453l-102.565,75.013l125.391,-20.56c-7.279,-44.388 -32.852,-84.635 -69.948,-110.065c-37.097,-25.442 -83.854,-34.792 -127.891,-25.573l26.068,124.531l0,-127.226c-8.75,0 -17.474,0.898 -26.068,2.695l26.068,124.531l0,-127.226l0,127.396l46.081,-118.763c-14.922,-5.795 -30.547,-8.633 -46.081,-8.633l0,127.396l46.081,-118.763l-46.042,118.659l87.031,-92.891c-11.888,-11.172 -26.081,-20.013 -40.989,-25.768l-46.042,118.659l87.031,-92.891l-0.091,-0.091c-3.529,-3.295 -7.122,-7.643 -10.247,-12.852c-23.477,-39.101 -61.719,-66.653 -106.237,-76.562c-44.506,-9.909 -90.82,-1.185 -128.672,24.258c-61.328,41.262 -100.092,75.195 -103.932,78.528l109.583,124.714l-90.196,-139.388c-26.588,17.252 -50.664,36.263 -73.88,56.484c-40.455,35.365 -78.216,74.596 -113.606,114.232c-52.917,59.375 -100.04,119.609 -134.636,165.69c-34.544,46.029 -56.367,77.786 -57.357,79.232l136.849,93.971l-135.703,-95.625c-38.138,54.297 -69.089,113.06 -96.354,172.617c-27.148,59.519 -50.221,119.74 -69.635,175.469c-21.055,60.495 -5.157,128.294 40.573,173.138c45.742,44.831 113.854,59.362 173.919,37.097c93.932,-34.857 191.562,-55.925 278.893,-67.839c87.331,-11.966 164.284,-14.883 216.862,-14.87c24.323,0 43.437,0.612 55.977,1.185c6.276,0.286 10.898,0.56 13.723,0.755c1.407,0.091 2.37,0.156 2.852,0.195l0.013,0l13.932,-165.429l-26.953,163.815c223.425,36.836 381.784,110.729 483.555,173.32c50.82,31.302 87.357,59.805 110.13,79.336c11.38,9.766 19.323,17.279 23.893,21.771c2.279,2.24 3.711,3.724 4.31,4.349l0.3,0.313l67.083,-62.422l-68.112,61.302l1.029,1.12l67.083,-62.422l-68.112,61.302c4.636,5.143 8.464,8.932 13.659,13.502c146.511,128.854 237.135,271.368 281.979,355.612c40.339,75.573 132.149,108.086 211.055,74.753c2.057,-0.872 3.255,-1.302 3.333,-1.341l0.248,-0.078l-41.941,-120.17l0,127.266c14.011,0.013 28.412,-2.357 41.941,-7.096l-41.941,-120.17l0,127.266l0,-127.175l-72.76,104.336c21.055,14.649 46.133,22.8 72.76,22.839l0,-127.175l-72.76,104.336l72.839,-104.453l-120.222,42.019c8.92,25.742 26.341,47.903 47.383,62.434l72.839,-104.453l-120.222,42.019l141.42,-49.427l-146.563,31.132c0.469,2.071 1.745,8.503 5.143,18.295l141.42,-49.427l-146.563,31.132l0.664,-0.143l-0.664,0.143l0.664,-0.143l-0.664,0.143c0.209,1.055 0.651,3.164 1.393,6.302c19.792,82.318 98.529,136.628 182.513,125.873l1.394,-0.156l0.377,-0.026c89.622,-2.891 160.664,-76.264 160.664,-165.925l0,-0.039l-0.026,-3.32l-0.781,-38.737l-165.99,3.32l5.183,165.938l2.291,-0.04c5.235,0.013 9.167,0.521 12.995,1.394c3.815,0.885 7.578,2.148 12.227,4.375l-0.079,-0.026l55.378,-114.701l-102.695,75.313c11.849,16.25 28.333,30.26 47.317,39.388l55.378,-114.701l-102.695,75.313l102.474,-75.157l-125.391,20.69c3.256,19.649 10.99,38.164 22.917,54.467l102.474,-75.157l-125.391,20.69c7.331,44.388 32.891,84.532 70,109.948c37.123,25.404 83.776,34.727 127.813,25.508l-26.016,-124.271l0,126.966c8.711,0 17.409,-0.885 26.016,-2.695l-26.016,-124.271l0,126.966l0,-127.239l-45.781,118.711c14.896,5.742 30.429,8.528 45.781,8.528l0,-127.239l-45.781,118.711l45.807,-118.776l-86.823,93.125c11.914,11.133 26.146,19.935 41.016,25.651l45.807,-118.776l-86.823,93.125l-0.052,-0.039c6.875,6.315 12.617,15.182 15.469,23.541l-0.052,-0.156l120.078,-41.901l-127.175,0c-0.013,14.063 2.383,28.438 7.097,41.901l120.078,-41.901l-127.175,0l127.227,0l-103.438,-74.088c-15.26,21.328 -23.75,46.953 -23.789,74.088l127.227,0l-103.438,-74.088c-26.197,36.562 -36.497,82.994 -28.216,127.213c8.281,44.206 34.675,83.776 72.318,108.399l69.544,-106.355l-110.442,62.839c10.117,17.734 24.075,32.5 40.898,43.516l69.544,-106.355l-110.442,62.839l110.677,-62.969l-127.318,3.06c0.469,21.211 6.536,42.24 16.641,59.909l110.677,-62.969l-127.318,3.06l0.065,1.94l0.013,0.352l-0.026,-0.716l165.938,-5.209Z" style="fill:#fff;fill-rule:nonzero;"/><path d="M3667.45,1846.41c0,-487.175 -414.284,-882.11 -925.313,-882.11c-511.028,0 -925.299,394.935 -925.299,882.11l1850.61,0Z" style="fill:#8cc63f;fill-rule:nonzero;"/><path d="M2742.14,976.993c0,0 -253.984,5.521 -316.237,224.765l170.86,176.42c0,0 -33.894,-161.862 145.377,-401.185Z" style="fill:#fff;fill-rule:nonzero;"/><path d="M2743,976.993c0,0 309.609,4.831 386.94,216.497l-218.438,132.813c0,0 20.053,-170.86 -168.502,-349.31Z" style="fill:#fff;fill-rule:nonzero;"/><path d="M2777.05,644.727c0,-44.661 -15.247,-80.872 -34.062,-80.872c-18.803,0 -34.05,36.211 -34.05,80.872c0,2.005 0.065,3.971 0.117,5.938l-0.117,0l0,336.224l68.112,0l0,-336.224l-0.104,0c0.039,-1.967 0.104,-3.933 0.104,-5.938Z" style="fill:#414042;fill-rule:nonzero;"/><g><clipPath id="_clip1"><path d="M1831.5,2484.02c0,0 16.628,-465.924 -507.526,-590.716c0,0 -391.041,-108.164 -873.607,457.591c0,0 -49.908,124.805 -41.588,-24.961c0,0 -22.891,-291.211 220.469,-609.44c0,0 249.609,-330.716 780.013,-374.401c0,0 611.51,-37.448 1029.6,355.677c0,0 395.221,536.641 -607.357,786.25Z"/></clipPath><g clip-path="url(#_clip1)"><rect x="-156.796" y="1287.17" width="2429.04" height="1793.02" style="fill:#fff;fill-rule:nonzero;"/><path d="M328.529,2052.81l164.18,3.985l-48.229,159.075l-165.482,-3.073l49.531,-159.987Z" style="fill:#9e1e63;fill-rule:nonzero;"/><path d="M445.066,2215.46l164.18,3.998l-48.23,159.062l-165.481,-3.06l49.531,-160Z" style="fill:#9e1e63;fill-rule:nonzero;"/><path d="M561.602,2378.1l164.18,3.997l-48.229,159.063l-165.495,-3.073l49.544,-159.987Z" style="fill:#9e1e63;fill-rule:nonzero;"/><path d="M424.259,1738.07l164.166,4.01l-48.229,159.063l-165.482,-3.06l49.545,-160.013Z" style="fill:#9e1e63;fill-rule:nonzero;"/><path d="M540.795,1900.73l164.18,3.997l-48.229,159.063l-165.495,-3.073l49.544,-159.987Z" style="fill:#9e1e63;fill-rule:nonzero;"/><path d="M657.319,2063.36l164.192,4.023l-48.242,159.063l-165.482,-3.073l49.532,-160.013Z" style="fill:#9e1e63;fill-rule:nonzero;"/><path d="M773.868,2226.02l164.18,3.998l-48.243,159.075l-165.481,-3.073l49.544,-160Z" style="fill:#9e1e63;fill-rule:nonzero;"/><path d="M890.405,2388.66l164.166,3.998l-48.229,159.063l-165.495,-3.047l49.558,-160.014Z" style="fill:#9e1e63;fill-rule:nonzero;"/><path d="M307.735,1575.43l164.167,4.011l-48.229,159.062l-165.482,-3.06l49.544,-160.013Z" style="fill:#9e1e63;fill-rule:nonzero;"/><path d="M636.524,1585.99l164.18,4.024l-48.229,159.062l-165.482,-3.073l49.531,-160.013Z" style="fill:#9e1e63;fill-rule:nonzero;"/><path d="M753.061,1748.65l164.166,3.998l-48.229,159.075l-165.482,-3.072l49.545,-160.001Z" style="fill:#9e1e63;fill-rule:nonzero;"/><path d="M869.597,1911.28l164.154,4.023l-48.216,159.05l-165.482,-3.047l49.544,-160.026Z" style="fill:#9e1e63;fill-rule:nonzero;"/><path d="M986.121,2073.95l164.179,3.984l-48.229,159.076l-165.482,-3.073l49.532,-159.987Z" style="fill:#9e1e63;fill-rule:nonzero;"/><path d="M1102.67,2236.58l164.167,4.011l-48.242,159.049l-165.482,-3.073l49.557,-159.987Z" style="fill:#9e1e63;fill-rule:nonzero;"/><path d="M1219.19,2399.22l164.166,4.011l-48.229,159.076l-165.482,-3.074l49.545,-160.013Z" style="fill:#9e1e63;fill-rule:nonzero;"/><path d="M519.988,1423.35l164.179,4.01l-48.242,159.063l-165.482,-3.073l49.545,-160Z" style="fill:#9e1e63;fill-rule:nonzero;"/><path d="M848.777,1433.91l164.18,4.023l-48.23,159.063l-165.481,-3.073l49.531,-160.013Z" style="fill:#9e1e63;fill-rule:nonzero;"/><path d="M965.326,1596.58l164.167,3.985l-48.229,159.075l-165.482,-3.073l49.544,-159.987Z" style="fill:#9e1e63;fill-rule:nonzero;"/><path d="M1081.85,1759.21l164.18,4.011l-48.243,159.049l-165.495,-3.047l49.558,-160.013Z" style="fill:#9e1e63;fill-rule:nonzero;"/><path d="M1198.39,1921.86l164.18,3.997l-48.242,159.063l-165.482,-3.06l49.544,-160Z" style="fill:#9e1e63;fill-rule:nonzero;"/><path d="M1314.92,2084.49l164.166,4.01l-48.229,159.063l-165.482,-3.073l49.545,-160Z" style="fill:#9e1e63;fill-rule:nonzero;"/><path d="M1431.45,2247.15l164.18,3.998l-48.242,159.075l-165.469,-3.073l49.531,-160Z" style="fill:#9e1e63;fill-rule:nonzero;"/><path d="M1547.98,2409.79l164.179,3.998l-48.229,159.062l-165.495,-3.047l49.545,-160.013Z" style="fill:#9e1e63;fill-rule:nonzero;"/><path d="M732.253,1271.28l164.18,3.997l-48.229,159.063l-165.482,-3.06l49.531,-160Z" style="fill:#9e1e63;fill-rule:nonzero;"/><path d="M1061.03,1281.84l164.193,4.011l-48.229,159.063l-165.482,-3.06l49.518,-160.014Z" style="fill:#9e1e63;fill-rule:nonzero;"/><path d="M1177.58,1444.49l164.167,3.997l-48.23,159.063l-165.494,-3.073l49.557,-159.987Z" style="fill:#9e1e63;fill-rule:nonzero;"/><path d="M1294.12,1607.14l164.167,3.997l-48.229,159.063l-165.482,-3.06l49.544,-160Z" style="fill:#9e1e63;fill-rule:nonzero;"/><path d="M1410.63,1769.78l164.193,3.998l-48.23,159.075l-165.494,-3.086l49.531,-159.987Z" style="fill:#9e1e63;fill-rule:nonzero;"/><path d="M1527.17,1932.44l164.18,3.997l-48.242,159.05l-165.469,-3.047l49.531,-160Z" style="fill:#9e1e63;fill-rule:nonzero;"/><path d="M1643.7,2095.07l164.179,3.997l-48.216,159.076l-165.494,-3.06l49.531,-160.013Z" style="fill:#9e1e63;fill-rule:nonzero;"/><path d="M1760.25,2257.72l164.167,3.997l-48.242,159.05l-165.482,-3.047l49.557,-160Z" style="fill:#9e1e63;fill-rule:nonzero;"/><path d="M1876.76,2420.35l164.192,4.011l-48.229,159.075l-165.495,-3.086l49.532,-160Z" style="fill:#9e1e63;fill-rule:nonzero;"/><path d="M1393.63,1283.03l164.166,4.011l-48.229,159.062l-165.482,-3.072l49.545,-160.001Z" style="fill:#9e1e63;fill-rule:nonzero;"/><path d="M1510.16,1445.69l164.18,3.997l-48.229,159.063l-165.482,-3.06l49.531,-160Z" style="fill:#9e1e63;fill-rule:nonzero;"/><path d="M1626.69,1608.32l164.179,4.01l-48.242,159.05l-165.469,-3.047l49.532,-160.013Z" style="fill:#9e1e63;fill-rule:nonzero;"/><path d="M1743.23,1770.98l164.18,3.998l-48.229,159.075l-165.495,-3.086l49.544,-159.987Z" style="fill:#9e1e63;fill-rule:nonzero;"/><path d="M1859.75,1933.61l164.179,4.011l-48.229,159.075l-165.482,-3.073l49.532,-160.013Z" style="fill:#9e1e63;fill-rule:nonzero;"/><path d="M1976.29,2096.28l164.18,3.984l-48.23,159.076l-165.481,-3.06l49.531,-160Z" style="fill:#9e1e63;fill-rule:nonzero;"/><path d="M2092.81,2258.91l164.193,3.997l-48.242,159.063l-165.482,-3.06l49.531,-160Z" style="fill:#9e1e63;fill-rule:nonzero;"/><path d="M1722.42,1293.61l164.179,4.01l-48.242,159.049l-165.482,-3.06l49.545,-159.999Z" style="fill:#9e1e63;fill-rule:nonzero;"/><path d="M1838.96,1456.25l164.167,3.997l-48.229,159.076l-165.482,-3.073l49.544,-160Z" style="fill:#9e1e63;fill-rule:nonzero;"/><path d="M1955.5,1618.89l164.166,3.997l-48.242,159.076l-165.482,-3.06l49.558,-160.013Z" style="fill:#9e1e63;fill-rule:nonzero;"/><path d="M2072.02,1781.54l164.167,4.011l-48.216,159.049l-165.495,-3.047l49.544,-160.013Z" style="fill:#9e1e63;fill-rule:nonzero;"/><path d="M2188.56,1944.19l164.166,3.985l-48.229,159.075l-165.495,-3.06l49.558,-160Z" style="fill:#9e1e63;fill-rule:nonzero;"/><path d="M2305.09,2106.82l164.167,4.023l-48.229,159.037l-165.495,-3.047l49.557,-160.013Z" style="fill:#9e1e63;fill-rule:nonzero;"/><path d="M2051.21,1304.17l164.18,4.011l-48.243,159.062l-165.468,-3.073l49.531,-160Z" style="fill:#9e1e63;fill-rule:nonzero;"/><path d="M2167.75,1466.81l164.167,3.998l-48.229,159.075l-165.482,-3.072l49.544,-160.001Z" style="fill:#9e1e63;fill-rule:nonzero;"/><path d="M2284.28,1629.45l164.166,4.01l-48.229,159.063l-165.482,-3.06l49.545,-160.013Z" style="fill:#9e1e63;fill-rule:nonzero;"/><path d="M2400.81,1792.1l164.18,4.01l-48.242,159.076l-165.469,-3.086l49.531,-160Z" style="fill:#9e1e63;fill-rule:nonzero;"/><path d="M2517.35,1954.74l164.166,4.024l-48.229,159.049l-165.482,-3.073l49.545,-160Z" style="fill:#9e1e63;fill-rule:nonzero;"/><path d="M2263.46,1152.08l164.18,4.01l-48.229,159.063l-165.482,-3.06l49.531,-160.013Z" style="fill:#9e1e63;fill-rule:nonzero;"/><path d="M2380,1314.74l164.18,3.998l-48.243,159.062l-165.468,-3.073l49.531,-159.987Z" style="fill:#9e1e63;fill-rule:nonzero;"/><path d="M2496.54,1477.38l164.18,3.997l-48.242,159.062l-165.469,-3.06l49.531,-159.999Z" style="fill:#9e1e63;fill-rule:nonzero;"/><path d="M2613.07,1640.03l164.166,3.997l-48.229,159.076l-165.481,-3.073l49.544,-160Z" style="fill:#9e1e63;fill-rule:nonzero;"/><path d="M2729.6,1802.67l164.18,3.997l-48.229,159.063l-165.482,-3.06l49.531,-160Z" style="fill:#9e1e63;fill-rule:nonzero;"/><path d="M2592.25,1162.66l164.166,3.997l-48.216,159.063l-165.482,-3.06l49.532,-160Z" style="fill:#9e1e63;fill-rule:nonzero;"/><path d="M2708.79,1325.3l164.167,3.998l-48.216,159.075l-165.495,-3.06l49.544,-160.013Z" style="fill:#9e1e63;fill-rule:nonzero;"/><path d="M2825.33,1487.96l164.154,3.985l-48.216,159.075l-165.482,-3.073l49.544,-159.987Z" style="fill:#9e1e63;fill-rule:nonzero;"/></g></g><path d="M1831.5,2484.02l5.534,0.195c0,-0.065 0.065,-1.783 0.065,-5c-0.026,-25.338 -3.711,-143.294 -69.596,-270.104c-65.82,-126.81 -194.336,-262.252 -442.24,-321.198l-1.289,5.391l1.472,-5.339c-0.404,-0.117 -30.821,-8.476 -84.883,-8.476c-141.432,-0.078 -444.532,57.5 -794.401,467.812l-0.599,0.69l-0.339,0.847c0,0.013 -1.172,2.942 -3.164,7.435c-2.969,6.731 -7.76,16.862 -12.812,25.052c-2.5,4.088 -5.092,7.682 -7.331,10l-2.813,2.383l-0.755,0.377l-0.117,0.026l0.052,0.274l0,-0.274l-0.052,0l0.052,0.274l0,-0.274l0,0.886l0.404,-0.782l-0.404,-0.104l0,0.886l0.404,-0.782c-0.313,-0.052 -2.266,-2.968 -3.373,-9.335c-1.198,-6.329 -1.953,-15.86 -1.94,-29.076c0,-8.333 0.287,-18.125 0.925,-29.557l0.013,-0.378l-0.026,-0.364c0,0 -0.131,-1.693 -0.274,-5.144c-0.143,-3.437 -0.273,-8.58 -0.273,-15.273c0,-71.25 16.015,-318.62 219.909,-585.235l0.013,-0.039l0,0.013c0.013,-0.013 0.911,-1.211 2.838,-3.593c28.867,-35.86 278.073,-327.878 773.216,-368.633l-0.455,-5.508l0.338,5.521c0.013,0 3.815,-0.235 11.172,-0.469c7.357,-0.247 18.216,-0.482 32.162,-0.482c146.471,-0.065 632.851,26.537 982.135,355.144l3.789,-4.037l-4.466,3.281l0.807,1.12c8.151,11.471 75,110.469 74.935,237.904c-0.065,86.237 -30.221,185.534 -130.156,281.289c-99.948,95.703 -270.091,187.656 -549.805,257.279l1.328,5.377l5.534,0.195l-5.534,-0.195l1.341,5.365c280.873,-69.935 452.813,-162.435 554.792,-260.026c102.005,-97.565 133.62,-200.456 133.568,-289.284c-0.091,-140.091 -77.604,-245.104 -77.891,-245.586l-0.299,-0.404l-0.365,-0.351c-353.099,-331.836 -842.057,-358.073 -989.713,-358.138c-28.139,0 -43.907,0.963 -44.011,0.963l-0.052,0.013l-0.065,0c-532.682,43.906 -783.503,375.951 -783.971,376.589l0.026,-0.039c-205.782,269.101 -222.201,519.14 -222.188,591.966c0,13.711 0.573,21.146 0.586,21.276l5.521,-0.43l-5.534,-0.299c-0.638,11.588 -0.937,21.588 -0.937,30.169c0.013,16.641 1.08,27.904 3.164,35.651c1.054,3.88 2.343,6.94 4.349,9.44c1.914,2.487 5.169,4.349 8.463,4.284c3.412,-0.039 6.081,-1.51 8.359,-3.229c3.972,-3.099 7.331,-7.539 10.638,-12.617c9.779,-15.157 18.138,-36.224 18.23,-36.38l-5.144,-2.058l4.206,3.594c348.32,-408.229 647.604,-463.854 785.99,-463.932c26.458,0 47.044,2.044 60.963,4.075c6.966,1.029 12.253,2.031 15.782,2.787c1.77,0.377 3.086,0.69 3.958,0.898l1.237,0.312l0.091,0.027l0.104,0.026c244.961,58.398 370.234,191.119 434.987,315.534c64.701,124.414 68.36,240.742 68.346,264.999c0,3.073 -0.065,4.597 -0.065,4.61l-0.26,7.331l7.135,-1.771l-1.341,-5.365Z" style="fill:#9e1e63;fill-rule:nonzero;"/><path d="M1658.83,706.524c0,204.076 270.195,154.115 620.404,122.604c341.276,-30.69 463.763,-54.883 463.763,-122.604c0,-67.708 -122.305,-94.101 -463.763,-122.604c-372.917,-31.133 -620.404,-72.917 -620.404,122.604Z" style="fill:#414042;fill-rule:nonzero;"/><path d="M1800.57,2555.33c0,0 330.221,-609.127 125.976,-978.75c0,0 -82.5,-289.622 -576.38,-576.732c0,0 -364.557,-164.075 -797.279,-138.815c0,0 -119.257,-29.752 -15.104,-86.055c0,0 469.792,-247.161 1026.39,-180.13c0,0 417.839,34.362 803.647,283.425c0,0 552.669,441.51 644.218,710.521c0,0 539.818,621.159 -1211.47,966.536Z" style="fill:#2e3092;fill-rule:nonzero;"/><path d="M3655.65,2506.73c0,0 68.633,-430.56 312.005,-624.011c0,0 193.438,-212.148 605.274,-149.74c0,0 411.849,62.383 730.078,311.993c0,0 155.989,118.567 37.422,-62.396c0,0 -99.818,-262.084 -361.888,-492.969c0,0 -224.649,-249.596 -717.618,-330.716c0,0 -517.916,-43.685 -886.054,218.398c0,0 -555.378,380.638 -692.657,1129.44l973.438,0Z" style="fill:#00a650;fill-rule:nonzero;"/><g><clipPath id="_clip2"><path d="M3358.22,2535.5c0,0 80.144,-130.547 112.331,-461.758c0,0 32.383,-334.701 83.164,-599.037c0,0 83.203,-349.466 212.161,-532.5c0,0 191.367,-278.711 332.826,-370.221c0,0 104.01,-91.524 232.943,-145.612c0,0 137.304,-45.755 -58.23,-33.281c0,0 -274.557,33.281 -440.95,87.369c0,0 -378.581,112.318 -582.409,332.8c0,0 -208.021,183.047 -470.091,594.883c0,0 -170.56,311.979 -311.979,520c0,0 -245.456,328.646 -328.659,382.721c0,0 -228.802,183.047 -257.917,224.636l1476.81,0Z"/></clipPath><g clip-path="url(#_clip2)"><rect x="1986.93" y="-27.695" width="2433.72" height="2563.19" style="fill:#fff;fill-rule:nonzero;"/><path d="M5427.05,1040.66l-3427.29,-1498.59l56.289,-128.724l3427.29,1498.58l-56.289,128.737Z" style="fill:#d7df22;fill-rule:nonzero;"/><path d="M5318,1290.07l-3427.29,-1498.58l56.276,-128.737l3427.31,1498.59l-56.289,128.724Z" style="fill:#d7df22;fill-rule:nonzero;"/><path d="M5208.92,1539.47l-3427.26,-1498.58l56.289,-128.737l3427.29,1498.58l-56.315,128.737Z" style="fill:#d7df22;fill-rule:nonzero;"/><path d="M5099.9,1788.87l-3427.28,-1498.58l56.276,-128.737l3427.29,1498.58l-56.289,128.737Z" style="fill:#d7df22;fill-rule:nonzero;"/><path d="M4990.85,2038.27l-3427.29,-1498.58l56.276,-128.737l3427.3,1498.58l-56.289,128.737Z" style="fill:#d7df22;fill-rule:nonzero;"/><path d="M4881.8,2287.67l-3427.29,-1498.59l56.276,-128.724l3427.29,1498.59l-56.276,128.724Z" style="fill:#d7df22;fill-rule:nonzero;"/><path d="M4772.73,2537.07l-3427.29,-1498.58l56.302,-128.737l3427.28,1498.59l-56.289,128.724Z" style="fill:#d7df22;fill-rule:nonzero;"/><path d="M4663.67,2786.46l-3427.27,-1498.58l56.289,-128.724l3427.29,1498.59l-56.315,128.711Z" style="fill:#d7df22;fill-rule:nonzero;"/><path d="M4554.64,3035.87l-3427.28,-1498.59l56.276,-128.711l3427.29,1498.58l-56.289,128.724Z" style="fill:#d7df22;fill-rule:nonzero;"/><path d="M4445.57,3285.29l-3427.28,-1498.61l56.276,-128.724l3427.29,1498.58l-56.289,128.75Z" style="fill:#d7df22;fill-rule:nonzero;"/></g></g><path d="M3358.22,2535.5l4.714,2.89c0.468,-0.742 80.872,-132.174 113.125,-464.114c0,-0.053 2.018,-20.886 5.846,-56.368c11.471,-106.445 39.219,-344.205 77.252,-542.161l-5.442,-1.042l5.39,1.276c0,-0.013 1.276,-5.403 3.802,-15.286c8.816,-34.584 32.657,-123.685 68.334,-224.037c35.664,-100.338 83.255,-211.966 139.166,-291.263l0.014,-0.026l0.026,-0.026c0,-0.013 2.955,-4.323 8.45,-12.096c19.232,-27.227 69.297,-96.628 129.935,-169.128c60.586,-72.487 131.953,-148.125 192.878,-187.5l0.338,-0.221l0.313,-0.273c0,0 1.562,-1.381 4.622,-3.959c21.433,-18.06 114.896,-93.776 226.81,-140.69l-2.148,-5.104l1.757,5.26c0.092,-0.039 11.901,-3.971 23.92,-9.323c6.015,-2.682 12.07,-5.69 16.927,-8.932c2.435,-1.64 4.583,-3.32 6.354,-5.286c1.706,-1.954 3.359,-4.363 3.424,-7.826c0.052,-3.594 -2.343,-6.719 -4.921,-8.307c-3.959,-2.539 -9.128,-3.867 -16.954,-4.961c-7.799,-1.029 -18.177,-1.589 -31.913,-1.589c-14.858,0 -33.633,0.664 -57.175,2.162l-0.156,0.013l-0.157,0.013c-0.182,0.052 -274.687,33.255 -442.005,87.604l1.719,5.26l-1.575,-5.312c-0.378,0.234 -379.363,112.278 -584.897,334.349l4.063,3.763l-3.659,-4.154c-0.338,0.3 -208.711,183.737 -471.093,596.068l-0.105,0.156l-0.091,0.169c0,0.013 -2.656,4.857 -7.591,13.776c-34.531,62.488 -180.586,324.063 -304.115,505.769l4.584,3.099l-4.44,-3.308c-0.013,0.013 -3.829,5.118 -10.69,14.206c-24.024,31.784 -85.287,112.031 -149.571,190.183c-32.135,39.075 -65.039,77.63 -94.388,109.283c-29.284,31.654 -55.247,56.485 -72.578,67.722l-0.234,0.143l-0.209,0.169c-0.026,0.013 -57.239,45.794 -118.138,96.797c-30.456,25.508 -61.823,52.318 -87.448,75.404c-12.812,11.549 -24.205,22.148 -33.346,31.237c-9.154,9.114 -16.016,16.588 -20.065,22.343l-6.107,8.711l1490.53,0l1.628,-2.643l-4.714,-2.89l0,-5.534l-1476.81,0l0,5.534l4.531,3.177c3.229,-4.636 9.883,-11.993 18.803,-20.847c31.354,-31.146 90.976,-81.927 142.617,-124.778c25.833,-21.433 49.7,-40.899 67.096,-55.014c17.396,-14.101 28.307,-22.825 28.333,-22.851l-3.463,-4.323l3.021,4.636c21.757,-14.193 52.656,-44.975 87.539,-83.542c104.427,-115.573 242.474,-300.43 242.526,-300.495l0.078,-0.104l0.065,-0.104c141.667,-208.399 312.227,-520.378 312.266,-520.456l-4.857,-2.656l4.674,2.968c130.873,-205.663 248.229,-354.166 332.826,-451.21c42.292,-48.529 76.393,-84.18 99.909,-107.696c11.758,-11.758 20.859,-20.469 27.018,-26.237c3.073,-2.891 5.417,-5.039 6.979,-6.458c1.576,-1.42 2.344,-2.097 2.344,-2.097l0.208,-0.195l0.195,-0.208c101.068,-109.349 246.133,-192.37 365.899,-247.813c59.883,-27.734 113.438,-48.606 151.992,-62.539c19.271,-6.966 34.805,-12.2 45.495,-15.677c10.703,-3.489 16.51,-5.208 16.523,-5.221l0.078,-0.013l0.066,-0.026c82.682,-26.888 192.786,-48.724 282.083,-63.776c44.649,-7.526 84.127,-13.373 112.422,-17.331c28.307,-3.958 45.351,-6.015 45.403,-6.029l-0.664,-5.494l0.352,5.52c23.372,-1.484 41.94,-2.135 56.472,-2.135c17.89,-0.013 29.713,1.015 36.51,2.539c3.398,0.729 5.495,1.641 6.237,2.162l0.325,0.247l0.131,-0.143l-0.144,0.117l0.013,0.026l0.131,-0.143l-0.144,0.117l1.524,-1.133l-1.862,0l0.338,1.133l1.524,-1.133l-1.862,0l1.601,0l-1.562,-0.404l-0.039,0.404l1.601,0l-1.562,-0.404l0.612,0.156l-0.586,-0.221l-0.026,0.065l0.612,0.156l-0.586,-0.221l-0.365,0.547c-1.015,1.393 -4.453,4.011 -8.776,6.394c-6.536,3.671 -15.117,7.33 -21.979,9.999c-3.437,1.342 -6.458,2.448 -8.607,3.203c-2.148,0.769 -3.398,1.185 -3.398,1.185l-0.196,0.065l-0.195,0.079c-129.961,54.557 -234.218,146.367 -234.466,146.549l3.659,4.167l-3.008,-4.649c-71.797,46.511 -155.026,139.284 -220.755,220.599c-65.664,81.302 -113.568,151.068 -113.62,151.146l4.557,3.125l-4.518,-3.19c-65.065,92.396 -118.138,225.82 -155.169,336.315c-36.992,110.482 -57.826,197.982 -57.852,198.086l-0.026,0.13l-0.026,0.117c-50.859,264.714 -83.242,599.454 -83.242,599.545c-16.068,165.234 -44.063,280.273 -67.995,353.906c-11.966,36.81 -22.903,63.281 -30.833,80.495c-3.958,8.607 -7.175,14.909 -9.375,19.023c-1.094,2.058 -1.953,3.581 -2.513,4.571l-0.833,1.406l4.726,2.891l0,-5.534l0,5.534Z" style="fill:#d7df22;fill-rule:nonzero;"/><path d="M3827.16,706.524c0,204.076 -270.195,154.115 -620.403,122.604c-341.25,-30.69 -463.763,-54.883 -463.763,-122.604c0,-67.708 122.291,-94.088 463.763,-122.604c372.917,-31.133 620.403,-72.93 620.403,122.604Z" style="fill:#414042;fill-rule:nonzero;"/><path d="M3667.45,2416.58c0,0 -273.972,-71.823 -921.914,-71.823c-647.93,0 -921.888,71.823 -921.888,71.823c-95.664,146.745 30.442,227.891 30.442,227.891l1782.92,0c0,0 126.094,-81.146 30.443,-227.891Z" style="fill:#9e1e63;fill-rule:nonzero;"/><path d="M3696.41,2463.18c0,0 -302.93,-79.05 -950.872,-79.05c-647.93,0 -952.696,73.776 -952.696,73.776c-65.221,144.154 23.998,219.727 23.998,219.727l928.698,6.211l921.914,0c0,0 73.073,-87.057 28.958,-220.664Z" style="fill:#8cc63f;fill-rule:nonzero;"/><path d="M4564.57,385.04c3.255,102.773 -77.408,188.724 -180.195,191.979c-102.76,3.255 -188.711,-77.422 -191.966,-180.196c-3.255,-102.773 77.409,-188.723 180.182,-191.979c102.786,-3.255 188.724,77.422 191.979,180.196Z" style="fill:#9e1e63;fill-rule:nonzero;"/><path d="M4486.04,491.797c-16.158,17.214 -36.367,30.56 -59.127,38.451c-20.208,7.018 -30.911,29.089 -23.893,49.297c7.018,20.208 29.088,30.911 49.297,23.893c34.869,-12.109 65.677,-32.474 90.234,-58.646c14.636,-15.612 13.841,-40.117 -1.758,-54.752c-15.612,-14.636 -40.117,-13.855 -54.753,1.757ZM4383.3,538.295l-0.143,0.013c-1.602,0.052 -3.19,0.078 -4.779,0.078c-22.994,-0.013 -44.635,-5.26 -64.062,-14.661c-19.245,-9.337 -42.422,-1.29 -51.745,17.955c-9.336,19.258 -1.289,42.422 17.956,51.758c29.635,14.362 62.968,22.422 97.851,22.409c2.409,0 4.818,-0.039 7.227,-0.117l0.221,0c21.38,-0.703 38.151,-18.594 37.461,-39.987c-0.703,-21.367 -18.607,-38.138 -39.987,-37.448ZM4277.73,498.581c-17.226,-16.132 -30.586,-36.341 -38.515,-59.088c-7.031,-20.209 -29.115,-30.886 -49.31,-23.841c-20.208,7.031 -30.886,29.114 -23.854,49.31c12.135,34.856 32.526,65.65 58.737,90.182c15.612,14.622 40.13,13.802 54.752,-1.81c14.623,-15.625 13.816,-40.13 -1.81,-54.753ZM4231.13,395.886l0,-0.286l0,-0.014c-0.052,-1.601 -0.078,-3.19 -0.078,-4.765c0,-22.943 5.221,-44.544 14.596,-63.946c9.31,-19.257 1.237,-42.421 -18.021,-51.731c-19.258,-9.31 -42.422,-1.25 -51.732,18.021c-14.31,29.583 -22.33,62.838 -22.317,97.656c0,2.409 0.039,4.818 0.117,7.239l0,-0.013l0.013,0.43c0.716,21.38 18.633,38.138 40.013,37.422c21.38,-0.729 38.125,-18.633 37.409,-40.013ZM4270.76,290.274c16.12,-17.253 36.315,-30.625 59.05,-38.568c20.195,-7.057 30.846,-29.14 23.789,-49.336c-7.044,-20.208 -29.141,-30.859 -49.336,-23.802c-34.831,12.162 -65.612,32.591 -90.117,58.815c-14.61,15.638 -13.776,40.157 1.862,54.753c15.624,14.609 40.143,13.776 54.752,-1.862ZM4373.4,243.582l0.417,-0.014c1.602,-0.052 3.19,-0.078 4.779,-0.078c22.903,0 44.466,5.208 63.828,14.544c19.258,9.284 42.422,1.198 51.719,-18.072c9.284,-19.271 1.198,-42.422 -18.073,-51.719c-29.532,-14.258 -62.735,-22.24 -97.474,-22.227c-2.409,0 -4.818,0.039 -7.227,0.118l-0.625,0.012c-21.38,0.743 -38.125,18.672 -37.383,40.053c0.73,21.38 18.659,38.112 40.039,37.383ZM4479.04,283.099c17.266,16.107 30.665,36.29 38.633,59.011c7.071,20.195 29.167,30.833 49.362,23.763c20.196,-7.083 30.82,-29.18 23.75,-49.375c-12.2,-34.818 -32.643,-65.573 -58.906,-90.052c-15.638,-14.596 -40.156,-13.737 -54.74,1.901c-14.596,15.651 -13.737,40.156 1.901,54.752ZM4525.83,385.704l0.026,0.56c0.039,1.601 0.066,3.19 0.066,4.778c0,23.047 -5.274,44.74 -14.714,64.193c-9.349,19.245 -1.328,42.422 17.917,51.771c19.244,9.349 42.422,1.328 51.77,-17.917c14.427,-29.687 22.513,-63.086 22.5,-98.047c0,-2.396 -0.039,-4.804 -0.104,-7.226l-0.039,-0.847c-0.755,-21.38 -18.698,-38.099 -40.078,-37.344c-21.38,0.756 -38.099,18.698 -37.344,40.079Z" style="fill:#9e1e63;fill-rule:nonzero;"/><path d="M657.67,827.748c3.255,102.773 -77.422,188.724 -180.208,191.979c-102.761,3.256 -188.711,-77.422 -191.953,-180.208c-3.256,-102.761 77.422,-188.711 180.182,-191.966c102.773,-3.255 188.724,77.421 191.979,180.195Z" style="fill:#d7df22;fill-rule:nonzero;"/><path d="M579.128,934.493c-16.145,17.226 -36.367,30.56 -59.114,38.463c-20.221,7.019 -30.912,29.089 -23.893,49.297c7.018,20.209 29.088,30.899 49.296,23.894c34.857,-12.11 65.678,-32.475 90.222,-58.659c14.635,-15.599 13.854,-40.117 -1.758,-54.753c-15.599,-14.636 -40.117,-13.841 -54.753,1.758ZM476.394,981.003l-0.156,0c-1.589,0.052 -3.19,0.078 -4.766,0.078c-22.995,0 -44.648,-5.247 -64.062,-14.661c-19.258,-9.323 -42.422,-1.289 -51.758,17.969c-9.323,19.257 -1.289,42.421 17.969,51.757c29.635,14.362 62.955,22.423 97.851,22.409c2.396,0 4.805,-0.039 7.227,-0.117l0.221,0c21.38,-0.703 38.151,-18.607 37.448,-39.987c-0.703,-21.38 -18.594,-38.151 -39.974,-37.448ZM370.834,941.29c-17.239,-16.133 -30.599,-36.341 -38.516,-59.089c-7.031,-20.208 -29.114,-30.885 -49.322,-23.854c-20.196,7.031 -30.873,29.114 -23.842,49.323c12.136,34.844 32.527,65.651 58.724,90.169c15.625,14.623 40.144,13.815 54.753,-1.797c14.622,-15.625 13.815,-40.143 -1.797,-54.752ZM324.233,838.581l-0.013,-0.286c-0.053,-1.602 -0.079,-3.19 -0.079,-4.779c0.013,-22.943 5.235,-44.544 14.61,-63.932c9.31,-19.258 1.237,-42.422 -18.021,-51.732c-19.258,-9.31 -42.422,-1.25 -51.732,18.008c-14.323,29.596 -22.331,62.852 -22.331,97.656c0,2.409 0.04,4.818 0.118,7.24l0.013,0.417c0.716,21.393 18.633,38.137 40.013,37.421c21.38,-0.716 38.138,-18.633 37.422,-40.013ZM363.855,732.983c16.107,-17.253 36.315,-30.638 59.049,-38.568c20.196,-7.057 30.847,-29.154 23.79,-49.349c-7.058,-20.196 -29.141,-30.847 -49.336,-23.789c-34.831,12.161 -65.612,32.591 -90.118,58.815c-14.609,15.638 -13.776,40.143 1.862,54.753c15.625,14.609 40.144,13.775 54.753,-1.862ZM466.498,686.277l0.417,-0.013c1.601,-0.052 3.19,-0.079 4.778,-0.079c22.904,0.013 44.454,5.222 63.816,14.545c19.27,9.297 42.435,1.211 51.718,-18.06c9.297,-19.271 1.211,-42.422 -18.06,-51.719c-29.544,-14.258 -62.734,-22.239 -97.474,-22.239c-2.408,0 -4.817,0.039 -7.239,0.117l-0.625,0.026c-21.38,0.729 -38.112,18.659 -37.37,40.039c0.729,21.38 18.659,38.125 40.039,37.383ZM572.136,725.808c17.266,16.094 30.664,36.276 38.62,59.01c7.083,20.196 29.18,30.821 49.375,23.75c20.195,-7.07 30.82,-29.179 23.75,-49.362c-12.201,-34.817 -32.656,-65.586 -58.906,-90.065c-15.638,-14.583 -40.156,-13.737 -54.753,1.914c-14.583,15.638 -13.724,40.157 1.914,54.753ZM618.933,828.412l0.013,0.56c0.052,1.588 0.078,3.19 0.078,4.779c0,23.047 -5.273,44.726 -14.713,64.192c-9.349,19.245 -1.328,42.422 17.916,51.771c19.245,9.349 42.422,1.328 51.771,-17.917c14.427,-29.687 22.513,-63.086 22.513,-98.046c0,-2.409 -0.039,-4.818 -0.117,-7.24l-0.026,-0.833c-0.755,-21.381 -18.711,-38.099 -40.091,-37.344c-21.38,0.755 -38.099,18.698 -37.344,40.078Z" style="fill:#d7df22;fill-rule:nonzero;"/><path d="M593.92,2338.88c3.255,102.773 -77.422,188.724 -180.195,191.979c-102.774,3.255 -188.711,-77.435 -191.966,-180.195c-3.256,-102.774 77.421,-188.737 180.182,-191.992c102.773,-3.256 188.724,77.435 191.979,180.208Z" style="fill:#00a650;fill-rule:nonzero;"/><path d="M515.378,2445.64c-16.145,17.213 -36.367,30.56 -59.114,38.45c-20.222,7.019 -30.912,29.089 -23.906,49.297c7.018,20.208 29.088,30.912 49.309,23.893c34.857,-12.096 65.678,-32.461 90.222,-58.646c14.635,-15.611 13.854,-40.117 -1.758,-54.752c-15.599,-14.636 -40.117,-13.854 -54.753,1.758ZM412.644,2492.14l-0.143,0c-1.602,0.052 -3.19,0.078 -4.779,0.078c-22.995,-0.013 -44.648,-5.26 -64.062,-14.661c-19.258,-9.336 -42.422,-1.289 -51.758,17.956c-9.336,19.257 -1.289,42.421 17.956,51.757c29.648,14.375 62.968,22.422 97.864,22.422c2.396,0 4.805,-0.039 7.227,-0.117l0.208,0c21.38,-0.703 38.151,-18.594 37.461,-39.974c-0.703,-21.393 -18.594,-38.164 -39.974,-37.461ZM307.084,2452.41c-17.239,-16.133 -30.599,-36.342 -38.515,-59.089c-7.032,-20.208 -29.115,-30.885 -49.323,-23.854c-20.196,7.031 -30.873,29.114 -23.842,49.323c12.136,34.844 32.526,65.638 58.724,90.169c15.625,14.622 40.131,13.815 54.753,-1.797c14.622,-15.625 13.815,-40.13 -1.797,-54.752ZM260.483,2349.7l-0.013,-0.273c-0.053,-1.589 -0.066,-3.19 -0.066,-4.766c0,-22.956 5.222,-44.557 14.597,-63.958c9.31,-19.258 1.25,-42.422 -18.008,-51.732c-19.271,-9.31 -42.422,-1.25 -51.745,18.008c-14.31,29.596 -22.331,62.864 -22.318,97.682c0,2.396 0.027,4.805 0.105,7.227l0.013,0.403c0.716,21.38 18.632,38.138 40.013,37.422c21.38,-0.716 38.138,-18.633 37.422,-40.013ZM300.105,2244.1c16.12,-17.252 36.315,-30.625 59.049,-38.567c20.209,-7.058 30.86,-29.141 23.803,-49.336c-7.058,-20.209 -29.141,-30.86 -49.336,-23.803c-34.831,12.162 -65.612,32.592 -90.118,58.816c-14.609,15.638 -13.776,40.143 1.849,54.752c15.638,14.61 40.144,13.776 54.753,-1.862ZM402.761,2197.41l0.404,-0.013l0.013,0c1.588,-0.053 3.19,-0.079 4.766,-0.079c22.903,0.013 44.466,5.209 63.828,14.545c19.27,9.297 42.421,1.211 51.718,-18.06c9.297,-19.271 1.211,-42.422 -18.059,-51.719c-29.545,-14.258 -62.735,-22.239 -97.487,-22.239c-2.409,0 -4.818,0.038 -7.227,0.117l-0.625,0.026c-21.38,0.729 -38.112,18.659 -37.383,40.039c0.742,21.38 18.672,38.112 40.052,37.383ZM508.399,2236.94c17.266,16.107 30.651,36.289 38.62,59.01c7.07,20.195 29.167,30.834 49.362,23.763c20.182,-7.07 30.82,-29.179 23.75,-49.362c-12.2,-34.817 -32.643,-65.586 -58.893,-90.065c-15.651,-14.596 -40.156,-13.75 -54.753,1.901c-14.583,15.651 -13.737,40.156 1.914,54.753ZM555.183,2339.55l0.013,0.56c0.052,1.602 0.078,3.19 0.078,4.778c0,23.047 -5.273,44.74 -14.713,64.193c-9.349,19.245 -1.328,42.422 17.903,51.771c19.245,9.349 42.422,1.328 51.771,-17.917c14.44,-29.687 22.526,-63.086 22.513,-98.047c0,-2.395 -0.039,-4.804 -0.117,-7.226l-0.026,-0.833c-0.755,-21.394 -18.698,-38.112 -40.078,-37.357c-21.38,0.755 -38.099,18.698 -37.344,40.078Z" style="fill:#00a650;fill-rule:nonzero;"/><path d="M5571,2092.87c3.242,102.774 -77.422,188.724 -180.196,191.979c-102.76,3.256 -188.724,-77.408 -191.979,-180.195c-3.242,-102.76 77.435,-188.724 180.196,-191.966c102.773,-3.255 188.723,77.409 191.979,180.182Z" style="fill:#2e3092;fill-rule:nonzero;"/><path d="M5492.46,2205.86c-16.146,17.227 -36.367,30.56 -59.115,38.464c-20.221,7.018 -30.911,29.088 -23.893,49.297c7.019,20.208 29.089,30.911 49.297,23.893c34.857,-12.11 65.677,-32.474 90.222,-58.659c14.635,-15.599 13.854,-40.117 -1.758,-54.753c-15.599,-14.635 -40.118,-13.841 -54.753,1.758ZM5389.73,2252.37l-0.143,0c-1.602,0.052 -3.191,0.078 -4.779,0.078c-22.995,0 -44.636,-5.248 -64.063,-14.662c-19.258,-9.323 -42.422,-1.276 -51.758,17.969c-9.322,19.258 -1.289,42.422 17.969,51.758c29.635,14.375 62.969,22.422 97.852,22.409c2.396,0 4.817,-0.039 7.226,-0.118l0.222,0c21.38,-0.703 38.151,-18.593 37.448,-39.974c-0.691,-21.393 -18.594,-38.151 -39.974,-37.46ZM5284.17,2212.66c-17.24,-16.133 -30.599,-36.341 -38.516,-59.089c-7.044,-20.208 -29.128,-30.872 -49.323,-23.841c-20.208,7.032 -30.885,29.115 -23.841,49.323c12.136,34.844 32.526,65.638 58.737,90.169c15.612,14.623 40.13,13.802 54.753,-1.809c14.609,-15.625 13.802,-40.131 -1.81,-54.753ZM5237.55,2109.96l0,-0.287c-0.052,-1.601 -0.078,-3.19 -0.078,-4.752c0,-22.956 5.235,-44.558 14.596,-63.959c9.31,-19.258 1.251,-42.422 -18.007,-51.731c-19.258,-9.311 -42.423,-1.251 -51.745,18.007c-14.31,29.597 -22.331,62.865 -22.318,97.683c0,2.408 0.039,4.804 0.104,7.2l0.026,0.43c0.716,21.393 18.633,38.138 40.013,37.422c21.38,-0.717 38.125,-18.633 37.409,-40.013ZM5277.18,2004.36c16.12,-17.253 36.315,-30.638 59.05,-38.568c20.195,-7.057 30.86,-29.154 23.802,-49.349c-7.057,-20.195 -29.153,-30.846 -49.349,-23.789c-34.831,12.161 -65.612,32.591 -90.117,58.815c-14.597,15.638 -13.763,40.143 1.862,54.753c15.638,14.609 40.156,13.776 54.752,-1.862ZM5379.82,1957.66l0.429,-0.013c1.602,-0.039 3.19,-0.065 4.779,-0.065c22.904,0 44.453,5.208 63.815,14.531c19.271,9.297 42.422,1.198 51.719,-18.073c9.297,-19.258 1.211,-42.422 -18.06,-51.706c-29.544,-14.257 -62.734,-22.239 -97.474,-22.226c-2.409,0 -4.817,0.039 -7.239,0.104l-0.625,0.026c-21.381,0.729 -38.112,18.659 -37.383,40.039c0.729,21.38 18.659,38.125 40.039,37.383ZM5485.47,1997.17c17.266,16.107 30.664,36.289 38.633,59.011c7.07,20.195 29.166,30.833 49.361,23.749c20.196,-7.07 30.821,-29.179 23.751,-49.361c-12.201,-34.818 -32.657,-65.573 -58.907,-90.065c-15.651,-14.584 -40.156,-13.724 -54.752,1.914c-14.584,15.651 -13.737,40.169 1.914,54.752ZM5532.27,2099.78l0.026,0.56l0,-0.013c0.039,1.602 0.065,3.19 0.065,4.766c0,23.06 -5.274,44.752 -14.727,64.219c-9.349,19.244 -1.315,42.421 17.917,51.77c19.245,9.349 42.422,1.328 51.771,-17.916c14.44,-29.701 22.526,-63.099 22.513,-98.073c0,-2.396 -0.039,-4.792 -0.104,-7.201l-0.039,-0.846c-0.756,-21.38 -18.698,-38.099 -40.079,-37.344c-21.38,0.756 -38.098,18.698 -37.343,40.078Z" style="fill:#2e3092;fill-rule:nonzero;"/></g></svg>